<?xml version="1.0" encoding="UTF-8"?>
<!DOCTYPE svg PUBLIC "-//W3C//DTD SVG 1.1//EN" "http://www.w3.org/Graphics/SVG/1.1/DTD/svg11.dtd">
<!-- Creator: CorelDRAW 2018 (64-Bit) -->
<svg xmlns="http://www.w3.org/2000/svg" xml:space="preserve" width="0.426669in" height="0.213339in" version="1.1" style="shape-rendering:geometricPrecision; text-rendering:geometricPrecision; image-rendering:optimizeQuality; fill-rule:evenodd; clip-rule:evenodd"
viewBox="0 0 239.51 119.76"
 xmlns:xlink="http://www.w3.org/1999/xlink">
 <defs>
  <style type="text/css">
   <![CDATA[
    .fil1 {fill:black}
    .fil0 {fill:#666666}
    .fil2 {fill:#009688;fill-rule:nonzero}
   ]]>
  </style>
 </defs>
 <g id="Layer_x0020_1">
  <metadata id="CorelCorpID_0Corel-Layer"/>
  <rect class="fil0" x="0" y="0" width="239.51" height="119.76" rx="11.34" ry="14.99"/>
  <rect class="fil1" x="6.72" y="6.72" width="226.06" height="106.31" rx="9.29" ry="11.55"/>
  <path class="fil2" d="M63.29 60.7l1.66 1.66 0 23.29c-0.55,2.21 -1.95,3.6 -4.18,4.15l-2.5 -6.65 0 -17.45 5.01 -5zm-4.18 29.13l-25.01 0c-2.21,-0.56 -3.6,-1.95 -4.15,-4.18l6.65 -2.5 20.01 0 2.5 6.68zm-29.19 -5.84l0 -21.61 1.68 -1.68 5 5 0 15.79 -6.68 2.5zm26.69 -47.39l-19.92 0 -6.68 -2.5c0.55,-2.23 1.95,-3.63 4.16,-4.18l24.93 0 -2.5 6.68zm-20.01 1.66l0 15.79 -5 5 -1.68 -1.68 0 -21.61 6.68 2.5zm21.67 15.79l0 -17.45 2.5 -6.65c2.23,0.55 3.63,1.94 4.18,4.15l0 23.29 -1.66 1.66 -5.01 -5zm43.22 2.48l3.32 3.34 -3.32 3.34 -21.67 0 -3.32 -3.34 3.32 -3.34 21.67 0zm5.01 4.19l1.66 1.66 0 23.27c-0.55,2.23 -1.95,3.61 -4.18,4.16l-2.5 -6.65 0 -17.47 5.01 -4.98zm-26.69 -24.98l0 18.29 -5 4.99 -1.68 -1.66 0 -24.11 6.68 2.5zm21.67 18.29l0 -17.47 2.5 -6.65c2.23,0.55 3.63,1.94 4.18,4.16l0 23.27 -1.66 1.66 -5.01 -4.99zm21.55 35.79l-6.68 0 0 -6.68 6.68 0 0 6.68zm0 -39.87l-6.68 0 0 -6.67 6.68 0 0 6.67zm36.64 6.58l3.32 3.34 -3.32 3.34 -21.67 0 -3.32 -3.34 3.32 -3.34 21.67 0zm3.34 33.29l-27.51 0c-2.21,-0.56 -3.6,-1.95 -4.15,-4.18l6.65 -2.5 22.51 0 2.5 6.68zm-31.69 -5.84l0 -21.61 1.68 -1.68 5 5 0 15.79 -6.68 2.5zm26.69 -47.39l-19.92 0 -6.68 -2.5c0.55,-2.23 1.95,-3.63 4.16,-4.18l24.93 0 -2.5 6.68zm1.66 17.45l0 -17.45 2.5 -6.65c2.23,0.55 3.63,1.94 4.18,4.15l0 23.29 -1.66 1.66 -5.01 -5zm48.24 6.65l1.66 1.66 0 23.29c-0.55,2.21 -1.95,3.6 -4.18,4.15l-2.5 -6.65 0 -17.45 5.01 -5zm-4.18 29.13l-25.01 0c-2.21,-0.56 -3.6,-1.95 -4.15,-4.18l6.65 -2.5 20.01 0 2.5 6.68zm-29.19 -5.84l0 -21.61 1.68 -1.68 5 5 0 15.79 -6.68 2.5zm26.69 -47.39l-19.92 0 -6.68 -2.5c0.55,-2.23 1.95,-3.63 4.16,-4.18l24.93 0 -2.5 6.68zm-20.01 1.66l0 15.79 -5 5 -1.68 -1.68 0 -21.61 6.68 2.5zm21.67 15.79l0 -17.45 2.5 -6.65c2.23,0.55 3.63,1.94 4.18,4.15l0 23.29 -1.66 1.66 -5.01 -5z"/>
 </g>
</svg>
