<?xml version="1.0" encoding="UTF-8"?>
<!DOCTYPE svg PUBLIC "-//W3C//DTD SVG 1.1//EN" "http://www.w3.org/Graphics/SVG/1.1/DTD/svg11.dtd">
<!-- Creator: CorelDRAW 2018 (64-Bit) -->
<svg xmlns="http://www.w3.org/2000/svg" xml:space="preserve" width="2.33333in" height="0.302382in" version="1.1" style="shape-rendering:geometricPrecision; text-rendering:geometricPrecision; image-rendering:optimizeQuality; fill-rule:evenodd; clip-rule:evenodd"
viewBox="0 0 155.23 20.12"
 xmlns:xlink="http://www.w3.org/1999/xlink">
 <defs>
  <style type="text/css">
   <![CDATA[
    .fil3 {fill:none}
    .fil2 {fill:#2980B9}
    .fil0 {fill:#2F9058}
    .fil1 {fill:#F1C40F}
   ]]>
  </style>
 </defs>
 <g id="Layer_x0020_1">
  <metadata id="CorelCorpID_0Corel-Layer"/>
  <path class="fil0" d="M52.12 7.1l-0.71 0 -4.82 -6.03c-0.54,-0.67 -1.35,-1.07 -2.22,-1.07l-9.49 0c-1.16,0 -2.2,0.71 -2.64,1.78l-2.13 5.41c-1.22,0.32 -2.13,1.42 -2.13,2.74l0 4.97c0,0.39 0.32,0.71 0.71,0.71l2.13 0c0,2.35 1.91,4.26 4.26,4.26 2.35,0 4.26,-1.91 4.26,-4.26l5.68 0c0,2.35 1.91,4.26 4.26,4.26 2.35,0 4.26,-1.91 4.26,-4.26l2.13 0c0.39,0 0.71,-0.32 0.71,-0.71l0 -3.55c0,-2.35 -1.91,-4.26 -4.26,-4.26zm-17.03 10.64c-1.17,0 -2.13,-0.95 -2.13,-2.13 0,-1.17 0.95,-2.13 2.13,-2.13 1.17,0 2.13,0.95 2.13,2.13 0,1.17 -0.95,2.13 -2.13,2.13zm3.19 -10.64l-5.1 0 1.7 -4.26 3.4 0 0 4.26zm2.13 0l0 -4.26 3.96 0 3.41 4.26 -7.36 0zm8.87 10.64c-1.17,0 -2.13,-0.95 -2.13,-2.13 0,-1.17 0.95,-2.13 2.13,-2.13 1.17,0 2.13,0.95 2.13,2.13 0,1.17 -0.95,2.13 -2.13,2.13z"/>
  <path class="fil1" d="M87.55 7.1l-0.71 0 -4.82 -6.03c-0.54,-0.67 -1.35,-1.07 -2.22,-1.07l-9.49 0c-1.16,0 -2.2,0.71 -2.64,1.78l-2.13 5.41c-1.22,0.32 -2.13,1.42 -2.13,2.74l0 4.97c0,0.39 0.32,0.71 0.71,0.71l2.13 0c0,2.35 1.91,4.26 4.26,4.26 2.35,0 4.26,-1.91 4.26,-4.26l5.68 0c0,2.35 1.91,4.26 4.26,4.26 2.35,0 4.26,-1.91 4.26,-4.26l2.13 0c0.39,0 0.71,-0.32 0.71,-0.71l0 -3.55c0,-2.35 -1.91,-4.26 -4.26,-4.26zm-17.03 10.64c-1.17,0 -2.13,-0.95 -2.13,-2.13 0,-1.17 0.95,-2.13 2.13,-2.13 1.17,0 2.13,0.95 2.13,2.13 0,1.17 -0.95,2.13 -2.13,2.13zm3.19 -10.64l-5.1 0 1.7 -4.26 3.4 0 0 4.26zm2.13 0l0 -4.26 3.96 0 3.41 4.26 -7.36 0zm8.87 10.64c-1.17,0 -2.13,-0.95 -2.13,-2.13 0,-1.17 0.95,-2.13 2.13,-2.13 1.17,0 2.13,0.95 2.13,2.13 0,1.17 -0.95,2.13 -2.13,2.13z"/>
  <path class="fil2" d="M123.75 7.34l-0.71 0 -4.82 -6.03c-0.54,-0.67 -1.35,-1.07 -2.22,-1.07l-9.49 0c-1.16,0 -2.2,0.71 -2.64,1.78l-2.13 5.41c-1.22,0.32 -2.13,1.42 -2.13,2.74l0 4.97c0,0.39 0.32,0.71 0.71,0.71l2.13 0c0,2.35 1.91,4.26 4.26,4.26 2.35,0 4.26,-1.91 4.26,-4.26l5.68 0c0,2.35 1.91,4.26 4.26,4.26 2.35,0 4.26,-1.91 4.26,-4.26l2.13 0c0.39,0 0.71,-0.32 0.71,-0.71l0 -3.55c0,-2.35 -1.91,-4.26 -4.26,-4.26zm-17.03 10.64c-1.17,0 -2.13,-0.95 -2.13,-2.13 0,-1.17 0.95,-2.13 2.13,-2.13 1.17,0 2.13,0.95 2.13,2.13 0,1.17 -0.95,2.13 -2.13,2.13zm3.19 -10.64l-5.1 0 1.7 -4.26 3.4 0 0 4.26zm2.13 0l0 -4.26 3.96 0 3.41 4.26 -7.36 0zm8.87 10.64c-1.17,0 -2.13,-0.95 -2.13,-2.13 0,-1.17 0.95,-2.13 2.13,-2.13 1.17,0 2.13,0.95 2.13,2.13 0,1.17 -0.95,2.13 -2.13,2.13z"/>
  <rect class="fil3" x="-0" y="0" width="155.23" height="19.87"/>
 </g>
</svg>
