<?xml version="1.0" encoding="UTF-8"?>
<!DOCTYPE svg PUBLIC "-//W3C//DTD SVG 1.1//EN" "http://www.w3.org/Graphics/SVG/1.1/DTD/svg11.dtd">
<!-- Creator: CorelDRAW 2018 (64-Bit) -->
<svg xmlns="http://www.w3.org/2000/svg" xml:space="preserve" width="2.33334in" height="0.302382in" version="1.1" style="shape-rendering:geometricPrecision; text-rendering:geometricPrecision; image-rendering:optimizeQuality; fill-rule:evenodd; clip-rule:evenodd"
viewBox="0 0 152.86 19.81"
 xmlns:xlink="http://www.w3.org/1999/xlink">
 <defs>
  <style type="text/css">
   <![CDATA[
    .fil0 {fill:none}
    .fil4 {fill:#0AA79C}
    .fil1 {fill:#3F51B5}
    .fil3 {fill:#A42167}
    .fil2 {fill:#C0392B}
   ]]>
  </style>
 </defs>
 <g id="Layer_x0020_1">
  <metadata id="CorelCorpID_0Corel-Layer"/>
  <rect class="fil0" x="-0" y="0" width="152.86" height="19.57"/>
  <path class="fil1" d="M33.5 6.99l-0.7 0 -4.75 -5.94c-0.53,-0.66 -1.33,-1.05 -2.18,-1.05l-9.34 0c-1.14,0 -2.17,0.7 -2.6,1.76l-2.09 5.33c-1.2,0.31 -2.1,1.4 -2.1,2.7l0 4.89c0,0.39 0.31,0.7 0.7,0.7l2.1 0c0,2.32 1.88,4.19 4.19,4.19 2.32,0 4.19,-1.88 4.19,-4.19l5.59 0c0,2.32 1.88,4.19 4.19,4.19 2.32,0 4.19,-1.88 4.19,-4.19l2.1 0c0.39,0 0.7,-0.31 0.7,-0.7l0 -3.49c0,-2.32 -1.88,-4.19 -4.19,-4.19zm-16.77 10.48c-1.16,0 -2.1,-0.94 -2.1,-2.1 0,-1.16 0.94,-2.1 2.1,-2.1 1.16,0 2.1,0.94 2.1,2.1 0,1.16 -0.94,2.1 -2.1,2.1zm3.14 -10.48l-5.03 0 1.68 -4.19 3.35 0 0 4.19zm2.1 0l0 -4.19 3.9 0 3.35 4.19 -7.25 0zm8.73 10.48c-1.16,0 -2.1,-0.94 -2.1,-2.1 0,-1.16 0.94,-2.1 2.1,-2.1 1.16,0 2.1,0.94 2.1,2.1 0,1.16 -0.94,2.1 -2.1,2.1z"/>
  <path class="fil2" d="M68.39 6.99l-0.7 0 -4.75 -5.94c-0.53,-0.66 -1.33,-1.05 -2.18,-1.05l-9.34 0c-1.14,0 -2.17,0.7 -2.6,1.76l-2.09 5.33c-1.2,0.31 -2.1,1.4 -2.1,2.7l0 4.89c0,0.39 0.31,0.7 0.7,0.7l2.1 0c0,2.32 1.88,4.19 4.19,4.19 2.32,0 4.19,-1.88 4.19,-4.19l5.59 0c0,2.32 1.88,4.19 4.19,4.19 2.32,0 4.19,-1.88 4.19,-4.19l2.1 0c0.39,0 0.7,-0.31 0.7,-0.7l0 -3.49c0,-2.32 -1.88,-4.19 -4.19,-4.19zm-16.77 10.48c-1.16,0 -2.1,-0.94 -2.1,-2.1 0,-1.16 0.94,-2.1 2.1,-2.1 1.16,0 2.1,0.94 2.1,2.1 0,1.16 -0.94,2.1 -2.1,2.1zm3.14 -10.48l-5.03 0 1.68 -4.19 3.35 0 0 4.19zm2.1 0l0 -4.19 3.9 0 3.35 4.19 -7.25 0zm8.73 10.48c-1.16,0 -2.1,-0.94 -2.1,-2.1 0,-1.16 0.94,-2.1 2.1,-2.1 1.16,0 2.1,0.94 2.1,2.1 0,1.16 -0.94,2.1 -2.1,2.1z"/>
  <path class="fil3" d="M104.04 7.23l-0.7 0 -4.75 -5.94c-0.53,-0.66 -1.33,-1.05 -2.18,-1.05l-9.34 0c-1.14,0 -2.17,0.7 -2.6,1.76l-2.09 5.33c-1.2,0.31 -2.1,1.4 -2.1,2.7l0 4.89c0,0.39 0.31,0.7 0.7,0.7l2.1 0c0,2.32 1.88,4.19 4.19,4.19 2.32,0 4.19,-1.88 4.19,-4.19l5.59 0c0,2.32 1.88,4.19 4.19,4.19 2.32,0 4.19,-1.88 4.19,-4.19l2.1 0c0.39,0 0.7,-0.31 0.7,-0.7l0 -3.49c0,-2.32 -1.88,-4.19 -4.19,-4.19zm-16.77 10.48c-1.16,0 -2.1,-0.94 -2.1,-2.1 0,-1.16 0.94,-2.1 2.1,-2.1 1.16,0 2.1,0.94 2.1,2.1 0,1.16 -0.94,2.1 -2.1,2.1zm3.14 -10.48l-5.03 0 1.68 -4.19 3.35 0 0 4.19zm2.1 0l0 -4.19 3.9 0 3.35 4.19 -7.25 0zm8.73 10.48c-1.16,0 -2.1,-0.94 -2.1,-2.1 0,-1.16 0.94,-2.1 2.1,-2.1 1.16,0 2.1,0.94 2.1,2.1 0,1.16 -0.94,2.1 -2.1,2.1z"/>
  <path class="fil4" d="M138.93 7.23l-0.7 0 -4.75 -5.94c-0.53,-0.66 -1.33,-1.05 -2.18,-1.05l-9.34 0c-1.14,0 -2.17,0.7 -2.6,1.76l-2.09 5.33c-1.2,0.31 -2.1,1.4 -2.1,2.7l0 4.89c0,0.39 0.31,0.7 0.7,0.7l2.1 0c0,2.32 1.88,4.19 4.19,4.19 2.32,0 4.19,-1.88 4.19,-4.19l5.59 0c0,2.32 1.88,4.19 4.19,4.19 2.32,0 4.19,-1.88 4.19,-4.19l2.1 0c0.39,0 0.7,-0.31 0.7,-0.7l0 -3.49c0,-2.32 -1.88,-4.19 -4.19,-4.19zm-16.77 10.48c-1.16,0 -2.1,-0.94 -2.1,-2.1 0,-1.16 0.94,-2.1 2.1,-2.1 1.16,0 2.1,0.94 2.1,2.1 0,1.16 -0.94,2.1 -2.1,2.1zm3.14 -10.48l-5.03 0 1.68 -4.19 3.35 0 0 4.19zm2.1 0l0 -4.19 3.9 0 3.35 4.19 -7.25 0zm8.73 10.48c-1.16,0 -2.1,-0.94 -2.1,-2.1 0,-1.16 0.94,-2.1 2.1,-2.1 1.16,0 2.1,0.94 2.1,2.1 0,1.16 -0.94,2.1 -2.1,2.1z"/>
 </g>
</svg>
