<?xml version="1.0" encoding="UTF-8"?>
<!DOCTYPE svg PUBLIC "-//W3C//DTD SVG 1.1//EN" "http://www.w3.org/Graphics/SVG/1.1/DTD/svg11.dtd">
<!-- Creator: CorelDRAW 2018 (64-Bit) -->
<svg xmlns="http://www.w3.org/2000/svg" xml:space="preserve" width="2.33334in" height="0.667071in" version="1.1" style="shape-rendering:geometricPrecision; text-rendering:geometricPrecision; image-rendering:optimizeQuality; fill-rule:evenodd; clip-rule:evenodd"
viewBox="0 0 96.88 27.7"
 xmlns:xlink="http://www.w3.org/1999/xlink">
 <defs>
  <style type="text/css">
   <![CDATA[
    .fil0 {fill:none}
    .fil2 {fill:#2F9058}
    .fil5 {fill:#3F51B5}
    .fil4 {fill:#B71C1C}
    .fil3 {fill:#F1C40F}
    .fil1 {fill:#F47F20}
   ]]>
  </style>
 </defs>
 <g id="Layer_x0020_1">
  <metadata id="CorelCorpID_0Corel-Layer"/>
  <rect class="fil0" x="0" y="0" width="96.88" height="12.4"/>
  <rect class="fil0" x="0" y="15.14" width="96.88" height="12.4"/>
  <path class="fil1" d="M21.23 4.43l-0.44 0 -3.01 -3.76c-0.34,-0.42 -0.85,-0.66 -1.38,-0.66l-5.92 0c-0.72,0 -1.38,0.44 -1.64,1.11l-1.33 3.38c-0.76,0.2 -1.33,0.88 -1.33,1.71l0 3.1c0,0.24 0.2,0.44 0.44,0.44l1.33 0c0,1.47 1.19,2.66 2.66,2.66 1.47,0 2.66,-1.19 2.66,-2.66l3.54 0c0,1.47 1.19,2.66 2.66,2.66 1.47,0 2.66,-1.19 2.66,-2.66l1.33 0c0.24,0 0.44,-0.2 0.44,-0.44l0 -2.21c0,-1.47 -1.19,-2.66 -2.66,-2.66zm-10.63 6.64c-0.73,0 -1.33,-0.6 -1.33,-1.33 0,-0.73 0.6,-1.33 1.33,-1.33 0.73,0 1.33,0.6 1.33,1.33 0,0.73 -0.6,1.33 -1.33,1.33zm1.99 -6.64l-3.19 0 1.06 -2.66 2.12 0 0 2.66zm1.33 0l0 -2.66 2.47 0 2.13 2.66 -4.6 0zm5.54 6.64c-0.73,0 -1.33,-0.6 -1.33,-1.33 0,-0.73 0.6,-1.33 1.33,-1.33 0.73,0 1.33,0.6 1.33,1.33 0,0.73 -0.6,1.33 -1.33,1.33z"/>
  <path class="fil2" d="M43.35 19.57l-0.44 0 -3.01 -3.76c-0.34,-0.42 -0.85,-0.66 -1.38,-0.66l-5.92 0c-0.72,0 -1.38,0.44 -1.64,1.11l-1.33 3.38c-0.76,0.2 -1.33,0.88 -1.33,1.71l0 3.1c0,0.24 0.2,0.44 0.44,0.44l1.33 0c0,1.47 1.19,2.66 2.66,2.66 1.47,0 2.66,-1.19 2.66,-2.66l3.54 0c0,1.47 1.19,2.66 2.66,2.66 1.47,0 2.66,-1.19 2.66,-2.66l1.33 0c0.24,0 0.44,-0.2 0.44,-0.44l0 -2.21c0,-1.47 -1.19,-2.66 -2.66,-2.66zm-10.63 6.64c-0.73,0 -1.33,-0.6 -1.33,-1.33 0,-0.73 0.6,-1.33 1.33,-1.33 0.73,0 1.33,0.6 1.33,1.33 0,0.73 -0.6,1.33 -1.33,1.33zm1.99 -6.64l-3.19 0 1.06 -2.66 2.12 0 0 2.66zm1.33 0l0 -2.66 2.47 0 2.13 2.66 -4.6 0zm5.54 6.64c-0.73,0 -1.33,-0.6 -1.33,-1.33 0,-0.73 0.6,-1.33 1.33,-1.33 0.73,0 1.33,0.6 1.33,1.33 0,0.73 -0.6,1.33 -1.33,1.33z"/>
  <path class="fil3" d="M65.46 19.57l-0.44 0 -3.01 -3.76c-0.34,-0.42 -0.85,-0.66 -1.38,-0.66l-5.92 0c-0.72,0 -1.38,0.44 -1.64,1.11l-1.33 3.38c-0.76,0.2 -1.33,0.88 -1.33,1.71l0 3.1c0,0.24 0.2,0.44 0.44,0.44l1.33 0c0,1.47 1.19,2.66 2.66,2.66 1.47,0 2.66,-1.19 2.66,-2.66l3.54 0c0,1.47 1.19,2.66 2.66,2.66 1.47,0 2.66,-1.19 2.66,-2.66l1.33 0c0.24,0 0.44,-0.2 0.44,-0.44l0 -2.21c0,-1.47 -1.19,-2.66 -2.66,-2.66zm-10.63 6.64c-0.73,0 -1.33,-0.6 -1.33,-1.33 0,-0.73 0.6,-1.33 1.33,-1.33 0.73,0 1.33,0.6 1.33,1.33 0,0.73 -0.6,1.33 -1.33,1.33zm1.99 -6.64l-3.19 0 1.06 -2.66 2.12 0 0 2.66zm1.33 0l0 -2.66 2.47 0 2.13 2.66 -4.6 0zm5.54 6.64c-0.73,0 -1.33,-0.6 -1.33,-1.33 0,-0.73 0.6,-1.33 1.33,-1.33 0.73,0 1.33,0.6 1.33,1.33 0,0.73 -0.6,1.33 -1.33,1.33z"/>
  <path class="fil4" d="M88.05 19.73l-0.44 0 -3.01 -3.76c-0.34,-0.42 -0.85,-0.66 -1.38,-0.66l-5.92 0c-0.72,0 -1.38,0.44 -1.64,1.11l-1.33 3.38c-0.76,0.2 -1.33,0.88 -1.33,1.71l0 3.1c0,0.24 0.2,0.44 0.44,0.44l1.33 0c0,1.47 1.19,2.66 2.66,2.66 1.47,0 2.66,-1.19 2.66,-2.66l3.54 0c0,1.47 1.19,2.66 2.66,2.66 1.47,0 2.66,-1.19 2.66,-2.66l1.33 0c0.24,0 0.44,-0.2 0.44,-0.44l0 -2.21c0,-1.47 -1.19,-2.66 -2.66,-2.66zm-10.63 6.64c-0.73,0 -1.33,-0.6 -1.33,-1.33 0,-0.73 0.6,-1.33 1.33,-1.33 0.73,0 1.33,0.6 1.33,1.33 0,0.73 -0.6,1.33 -1.33,1.33zm1.99 -6.64l-3.19 0 1.06 -2.66 2.12 0 0 2.66zm1.33 0l0 -2.66 2.47 0 2.13 2.66 -4.6 0zm5.54 6.64c-0.73,0 -1.33,-0.6 -1.33,-1.33 0,-0.73 0.6,-1.33 1.33,-1.33 0.73,0 1.33,0.6 1.33,1.33 0,0.73 -0.6,1.33 -1.33,1.33z"/>
  <path class="fil5" d="M21.23 19.73l-0.44 0 -3.01 -3.76c-0.34,-0.42 -0.85,-0.66 -1.38,-0.66l-5.92 0c-0.72,0 -1.38,0.44 -1.64,1.11l-1.33 3.38c-0.76,0.2 -1.33,0.88 -1.33,1.71l0 3.1c0,0.24 0.2,0.44 0.44,0.44l1.33 0c0,1.47 1.19,2.66 2.66,2.66 1.47,0 2.66,-1.19 2.66,-2.66l3.54 0c0,1.47 1.19,2.66 2.66,2.66 1.47,0 2.66,-1.19 2.66,-2.66l1.33 0c0.24,0 0.44,-0.2 0.44,-0.44l0 -2.21c0,-1.47 -1.19,-2.66 -2.66,-2.66zm-10.63 6.64c-0.73,0 -1.33,-0.6 -1.33,-1.33 0,-0.73 0.6,-1.33 1.33,-1.33 0.73,0 1.33,0.6 1.33,1.33 0,0.73 -0.6,1.33 -1.33,1.33zm1.99 -6.64l-3.19 0 1.06 -2.66 2.12 0 0 2.66zm1.33 0l0 -2.66 2.47 0 2.13 2.66 -4.6 0zm5.54 6.64c-0.73,0 -1.33,-0.6 -1.33,-1.33 0,-0.73 0.6,-1.33 1.33,-1.33 0.73,0 1.33,0.6 1.33,1.33 0,0.73 -0.6,1.33 -1.33,1.33z"/>
 </g>
</svg>
