<?xml version="1.0" encoding="UTF-8"?>
<!DOCTYPE svg PUBLIC "-//W3C//DTD SVG 1.1//EN" "http://www.w3.org/Graphics/SVG/1.1/DTD/svg11.dtd">
<!-- Creator: CorelDRAW 2018 (64-Bit) -->
<svg xmlns="http://www.w3.org/2000/svg" xml:space="preserve" width="2.33334in" height="0.667071in" version="1.1" style="shape-rendering:geometricPrecision; text-rendering:geometricPrecision; image-rendering:optimizeQuality; fill-rule:evenodd; clip-rule:evenodd"
viewBox="0 0 132.11 37.77"
 xmlns:xlink="http://www.w3.org/1999/xlink">
 <defs>
  <style type="text/css">
   <![CDATA[
    .fil0 {fill:none}
    .fil4 {fill:#0AA79C}
    .fil5 {fill:#2F9058}
    .fil8 {fill:#3F51B5}
    .fil1 {fill:#607D8B}
    .fil3 {fill:#689F38}
    .fil7 {fill:#B71C1C}
    .fil6 {fill:#F1C40F}
    .fil2 {fill:#F47F20}
   ]]>
  </style>
 </defs>
 <g id="Layer_x0020_1">
  <metadata id="CorelCorpID_0Corel-Layer"/>
  <rect class="fil0" x="0" y="0" width="132.11" height="16.91"/>
  <rect class="fil0" x="0" y="20.65" width="132.11" height="16.91"/>
  <path class="fil1" d="M120.07 6.04l-0.6 0 -4.11 -5.13c-0.46,-0.57 -1.15,-0.91 -1.89,-0.91l-8.07 0c-0.99,0 -1.88,0.6 -2.24,1.52l-1.81 4.61c-1.04,0.27 -1.81,1.21 -1.81,2.33l0 4.23c0,0.33 0.27,0.6 0.6,0.6l1.81 0c0,2 1.62,3.62 3.62,3.62 2,0 3.62,-1.62 3.62,-3.62l4.83 0c0,2 1.62,3.62 3.62,3.62 2,0 3.62,-1.62 3.62,-3.62l1.81 0c0.33,0 0.6,-0.27 0.6,-0.6l0 -3.02c0,-2 -1.62,-3.62 -3.62,-3.62zm-14.49 9.06c-1,0 -1.81,-0.81 -1.81,-1.81 0,-1 0.81,-1.81 1.81,-1.81 1,0 1.81,0.81 1.81,1.81 0,1 -0.81,1.81 -1.81,1.81zm2.72 -9.06l-4.34 0 1.45 -3.62 2.89 0 0 3.62zm1.81 0l0 -3.62 3.37 0 2.9 3.62 -6.27 0zm7.55 9.06c-1,0 -1.81,-0.81 -1.81,-1.81 0,-1 0.81,-1.81 1.81,-1.81 1,0 1.81,0.81 1.81,1.81 0,1 -0.81,1.81 -1.81,1.81z"/>
  <path class="fil2" d="M28.95 6.04l-0.6 0 -4.11 -5.13c-0.46,-0.57 -1.15,-0.91 -1.89,-0.91l-8.07 0c-0.99,0 -1.88,0.6 -2.24,1.52l-1.81 4.61c-1.04,0.27 -1.81,1.21 -1.81,2.33l0 4.23c0,0.33 0.27,0.6 0.6,0.6l1.81 0c0,2 1.62,3.62 3.62,3.62 2,0 3.62,-1.62 3.62,-3.62l4.83 0c0,2 1.62,3.62 3.62,3.62 2,0 3.62,-1.62 3.62,-3.62l1.81 0c0.33,0 0.6,-0.27 0.6,-0.6l0 -3.02c0,-2 -1.62,-3.62 -3.62,-3.62zm-14.49 9.06c-1,0 -1.81,-0.81 -1.81,-1.81 0,-1 0.81,-1.81 1.81,-1.81 1,0 1.81,0.81 1.81,1.81 0,1 -0.81,1.81 -1.81,1.81zm2.72 -9.06l-4.34 0 1.45 -3.62 2.89 0 0 3.62zm1.81 0l0 -3.62 3.37 0 2.9 3.62 -6.27 0zm7.55 9.06c-1,0 -1.81,-0.81 -1.81,-1.81 0,-1 0.81,-1.81 1.81,-1.81 1,0 1.81,0.81 1.81,1.81 0,1 -0.81,1.81 -1.81,1.81z"/>
  <path class="fil3" d="M59.76 6.25l-0.6 0 -4.11 -5.13c-0.46,-0.57 -1.15,-0.91 -1.89,-0.91l-8.07 0c-0.99,0 -1.88,0.6 -2.24,1.52l-1.81 4.61c-1.04,0.27 -1.81,1.21 -1.81,2.33l0 4.23c0,0.33 0.27,0.6 0.6,0.6l1.81 0c0,2 1.62,3.62 3.62,3.62 2,0 3.62,-1.62 3.62,-3.62l4.83 0c0,2 1.62,3.62 3.62,3.62 2,0 3.62,-1.62 3.62,-3.62l1.81 0c0.33,0 0.6,-0.27 0.6,-0.6l0 -3.02c0,-2 -1.62,-3.62 -3.62,-3.62zm-14.49 9.06c-1,0 -1.81,-0.81 -1.81,-1.81 0,-1 0.81,-1.81 1.81,-1.81 1,0 1.81,0.81 1.81,1.81 0,1 -0.81,1.81 -1.81,1.81zm2.72 -9.06l-4.34 0 1.45 -3.62 2.89 0 0 3.62zm1.81 0l0 -3.62 3.37 0 2.9 3.62 -6.27 0zm7.55 9.06c-1,0 -1.81,-0.81 -1.81,-1.81 0,-1 0.81,-1.81 1.81,-1.81 1,0 1.81,0.81 1.81,1.81 0,1 -0.81,1.81 -1.81,1.81z"/>
  <path class="fil4" d="M89.91 6.25l-0.6 0 -4.11 -5.13c-0.46,-0.57 -1.15,-0.91 -1.89,-0.91l-8.07 0c-0.99,0 -1.88,0.6 -2.24,1.52l-1.81 4.61c-1.04,0.27 -1.81,1.21 -1.81,2.33l0 4.23c0,0.33 0.27,0.6 0.6,0.6l1.81 0c0,2 1.62,3.62 3.62,3.62 2,0 3.62,-1.62 3.62,-3.62l4.83 0c0,2 1.62,3.62 3.62,3.62 2,0 3.62,-1.62 3.62,-3.62l1.81 0c0.33,0 0.6,-0.27 0.6,-0.6l0 -3.02c0,-2 -1.62,-3.62 -3.62,-3.62zm-14.49 9.06c-1,0 -1.81,-0.81 -1.81,-1.81 0,-1 0.81,-1.81 1.81,-1.81 1,0 1.81,0.81 1.81,1.81 0,1 -0.81,1.81 -1.81,1.81zm2.72 -9.06l-4.34 0 1.45 -3.62 2.89 0 0 3.62zm1.81 0l0 -3.62 3.37 0 2.9 3.62 -6.27 0zm7.55 9.06c-1,0 -1.81,-0.81 -1.81,-1.81 0,-1 0.81,-1.81 1.81,-1.81 1,0 1.81,0.81 1.81,1.81 0,1 -0.81,1.81 -1.81,1.81z"/>
  <path class="fil5" d="M59.11 26.69l-0.6 0 -4.11 -5.13c-0.46,-0.57 -1.15,-0.91 -1.89,-0.91l-8.07 0c-0.99,0 -1.88,0.6 -2.24,1.52l-1.81 4.61c-1.04,0.27 -1.81,1.21 -1.81,2.33l0 4.23c0,0.33 0.27,0.6 0.6,0.6l1.81 0c0,2 1.62,3.62 3.62,3.62 2,0 3.62,-1.62 3.62,-3.62l4.83 0c0,2 1.62,3.62 3.62,3.62 2,0 3.62,-1.62 3.62,-3.62l1.81 0c0.33,0 0.6,-0.27 0.6,-0.6l0 -3.02c0,-2 -1.62,-3.62 -3.62,-3.62zm-14.49 9.06c-1,0 -1.81,-0.81 -1.81,-1.81 0,-1 0.81,-1.81 1.81,-1.81 1,0 1.81,0.81 1.81,1.81 0,1 -0.81,1.81 -1.81,1.81zm2.72 -9.06l-4.34 0 1.45 -3.62 2.89 0 0 3.62zm1.81 0l0 -3.62 3.37 0 2.9 3.62 -6.27 0zm7.55 9.06c-1,0 -1.81,-0.81 -1.81,-1.81 0,-1 0.81,-1.81 1.81,-1.81 1,0 1.81,0.81 1.81,1.81 0,1 -0.81,1.81 -1.81,1.81z"/>
  <path class="fil6" d="M89.26 26.69l-0.6 0 -4.11 -5.13c-0.46,-0.57 -1.15,-0.91 -1.89,-0.91l-8.07 0c-0.99,0 -1.88,0.6 -2.24,1.52l-1.81 4.61c-1.04,0.27 -1.81,1.21 -1.81,2.33l0 4.23c0,0.33 0.27,0.6 0.6,0.6l1.81 0c0,2 1.62,3.62 3.62,3.62 2,0 3.62,-1.62 3.62,-3.62l4.83 0c0,2 1.62,3.62 3.62,3.62 2,0 3.62,-1.62 3.62,-3.62l1.81 0c0.33,0 0.6,-0.27 0.6,-0.6l0 -3.02c0,-2 -1.62,-3.62 -3.62,-3.62zm-14.49 9.06c-1,0 -1.81,-0.81 -1.81,-1.81 0,-1 0.81,-1.81 1.81,-1.81 1,0 1.81,0.81 1.81,1.81 0,1 -0.81,1.81 -1.81,1.81zm2.72 -9.06l-4.34 0 1.45 -3.62 2.89 0 0 3.62zm1.81 0l0 -3.62 3.37 0 2.9 3.62 -6.27 0zm7.55 9.06c-1,0 -1.81,-0.81 -1.81,-1.81 0,-1 0.81,-1.81 1.81,-1.81 1,0 1.81,0.81 1.81,1.81 0,1 -0.81,1.81 -1.81,1.81z"/>
  <path class="fil7" d="M120.07 26.9l-0.6 0 -4.11 -5.13c-0.46,-0.57 -1.15,-0.91 -1.89,-0.91l-8.07 0c-0.99,0 -1.88,0.6 -2.24,1.52l-1.81 4.61c-1.04,0.27 -1.81,1.21 -1.81,2.33l0 4.23c0,0.33 0.27,0.6 0.6,0.6l1.81 0c0,2 1.62,3.62 3.62,3.62 2,0 3.62,-1.62 3.62,-3.62l4.83 0c0,2 1.62,3.62 3.62,3.62 2,0 3.62,-1.62 3.62,-3.62l1.81 0c0.33,0 0.6,-0.27 0.6,-0.6l0 -3.02c0,-2 -1.62,-3.62 -3.62,-3.62zm-14.49 9.06c-1,0 -1.81,-0.81 -1.81,-1.81 0,-1 0.81,-1.81 1.81,-1.81 1,0 1.81,0.81 1.81,1.81 0,1 -0.81,1.81 -1.81,1.81zm2.72 -9.06l-4.34 0 1.45 -3.62 2.89 0 0 3.62zm1.81 0l0 -3.62 3.37 0 2.9 3.62 -6.27 0zm7.55 9.06c-1,0 -1.81,-0.81 -1.81,-1.81 0,-1 0.81,-1.81 1.81,-1.81 1,0 1.81,0.81 1.81,1.81 0,1 -0.81,1.81 -1.81,1.81z"/>
  <path class="fil8" d="M28.95 26.9l-0.6 0 -4.11 -5.13c-0.46,-0.57 -1.15,-0.91 -1.89,-0.91l-8.07 0c-0.99,0 -1.88,0.6 -2.24,1.52l-1.81 4.61c-1.04,0.27 -1.81,1.21 -1.81,2.33l0 4.23c0,0.33 0.27,0.6 0.6,0.6l1.81 0c0,2 1.62,3.62 3.62,3.62 2,0 3.62,-1.62 3.62,-3.62l4.83 0c0,2 1.62,3.62 3.62,3.62 2,0 3.62,-1.62 3.62,-3.62l1.81 0c0.33,0 0.6,-0.27 0.6,-0.6l0 -3.02c0,-2 -1.62,-3.62 -3.62,-3.62zm-14.49 9.06c-1,0 -1.81,-0.81 -1.81,-1.81 0,-1 0.81,-1.81 1.81,-1.81 1,0 1.81,0.81 1.81,1.81 0,1 -0.81,1.81 -1.81,1.81zm2.72 -9.06l-4.34 0 1.45 -3.62 2.89 0 0 3.62zm1.81 0l0 -3.62 3.37 0 2.9 3.62 -6.27 0zm7.55 9.06c-1,0 -1.81,-0.81 -1.81,-1.81 0,-1 0.81,-1.81 1.81,-1.81 1,0 1.81,0.81 1.81,1.81 0,1 -0.81,1.81 -1.81,1.81z"/>
 </g>
</svg>
