<?xml version="1.0" encoding="UTF-8"?>
<!DOCTYPE svg PUBLIC "-//W3C//DTD SVG 1.1//EN" "http://www.w3.org/Graphics/SVG/1.1/DTD/svg11.dtd">
<svg xmlns="http://www.w3.org/2000/svg" xml:space="preserve" width="3.33176in" height="1.4927in" version="1.1" style="shape-rendering:geometricPrecision; text-rendering:geometricPrecision; image-rendering:optimizeQuality; fill-rule:evenodd; clip-rule:evenodd"
viewBox="0 0 389.67 174.58"
 xmlns:xlink="http://www.w3.org/1999/xlink">
 <defs>
  <style type="text/css">
   <![CDATA[
    .fil0 {fill:none}
    .fil6 {fill:#0AA79C;fill-rule:nonzero}
    .fil4 {fill:#27AE60;fill-rule:nonzero}
    .fil7 {fill:#2F9058;fill-rule:nonzero}
    .fil1 {fill:#3F51B5;fill-rule:nonzero}
    .fil2 {fill:#666666;fill-rule:nonzero}
    .fil5 {fill:#A42167;fill-rule:nonzero}
    .fil3 {fill:#C0392B;fill-rule:nonzero}
   ]]>
  </style>
 </defs>
 <g id="Layer_x0020_1">
  <metadata id="CorelCorpID_0Corel-Layer"/>
  <polygon class="fil0" points="-0,0 389.67,0 389.67,174.58 -0,174.58 "/>
  <g id="_2043426010704">
   <path class="fil1" d="M103.69 9.69c1.56,-1.12 2.97,-1.93 4.23,-2.44 1.26,-0.51 2.68,-0.76 4.27,-0.76 1.59,0 2.96,0.53 4.13,1.6 1.17,1.07 1.75,2.55 1.75,4.46 0,1.91 -1.51,3.92 -4.52,6.02 2.6,1.35 3.9,3.18 3.9,5.48 0,2.3 -0.86,4.19 -2.57,5.67 -1.72,1.48 -3.43,2.22 -5.15,2.22 -1.72,0 -3.29,-0.27 -4.72,-0.82l-0.7 -4.29c0.91,0.29 2.03,0.43 3.35,0.43 1.33,0 2.51,-0.29 3.55,-0.88 1.04,-0.58 1.56,-1.27 1.56,-2.07 0,-0.79 -0.33,-1.46 -0.97,-1.99 -0.65,-0.53 -1.48,-0.8 -2.5,-0.8 -1.01,0 -2.11,0.18 -3.27,0.55l-1.33 -4.02c2.73,-0.91 4.83,-1.88 6.3,-2.9 1.47,-1.03 2.2,-1.96 2.2,-2.79 0,-0.94 -0.51,-1.4 -1.52,-1.4 -1.35,0 -3.18,0.81 -5.5,2.42l-2.5 -3.7zm-35.11 46.35c1.56,-1.12 2.97,-1.93 4.23,-2.44 1.26,-0.51 2.68,-0.76 4.27,-0.76 1.59,0 2.96,0.53 4.13,1.6 1.17,1.07 1.75,2.55 1.75,4.46 0,1.91 -1.51,3.92 -4.52,6.02 2.6,1.35 3.9,3.18 3.9,5.48 0,2.3 -0.86,4.19 -2.57,5.67 -1.72,1.48 -3.43,2.22 -5.15,2.22 -1.72,0 -3.29,-0.27 -4.72,-0.82l-0.7 -4.29c0.91,0.29 2.03,0.43 3.35,0.43 1.33,0 2.51,-0.29 3.55,-0.88 1.04,-0.58 1.56,-1.27 1.56,-2.07 0,-0.79 -0.33,-1.46 -0.97,-1.99 -0.65,-0.53 -1.48,-0.8 -2.5,-0.8 -1.01,0 -2.11,0.18 -3.27,0.55l-1.33 -4.02c2.73,-0.91 4.83,-1.88 6.3,-2.9 1.47,-1.03 2.2,-1.96 2.2,-2.79 0,-0.94 -0.51,-1.4 -1.52,-1.4 -1.35,0 -3.18,0.81 -5.5,2.42l-2.5 -3.7zm168.03 0c1.56,-1.12 2.97,-1.93 4.23,-2.44 1.26,-0.51 2.68,-0.76 4.27,-0.76 1.59,0 2.96,0.53 4.13,1.6 1.17,1.07 1.75,2.55 1.75,4.46 0,1.91 -1.51,3.92 -4.52,6.02 2.6,1.35 3.9,3.18 3.9,5.48 0,2.3 -0.86,4.19 -2.57,5.67 -1.72,1.48 -3.43,2.22 -5.15,2.22 -1.72,0 -3.29,-0.27 -4.72,-0.82l-0.7 -4.29c0.91,0.29 2.03,0.43 3.35,0.43 1.33,0 2.51,-0.29 3.55,-0.88 1.04,-0.58 1.56,-1.27 1.56,-2.07 0,-0.79 -0.33,-1.46 -0.97,-1.99 -0.65,-0.53 -1.48,-0.8 -2.5,-0.8 -1.01,0 -2.11,0.18 -3.27,0.55l-1.33 -4.02c2.73,-0.91 4.83,-1.88 6.3,-2.9 1.47,-1.03 2.2,-1.96 2.2,-2.79 0,-0.94 -0.51,-1.4 -1.52,-1.4 -1.35,0 -3.18,0.81 -5.5,2.42l-2.5 -3.7z"/>
   <path class="fil2" d="M135.11 27.82c3.85,-4.08 6.37,-6.74 7.56,-7.99 -3.53,-3.53 -6.22,-6.41 -8.07,-8.62l3.74 -2.42c2.03,2.34 4.52,4.96 7.49,7.88 3.35,-3.33 6.33,-5.98 8.93,-7.95l2.81 3.78c-2.57,1.92 -5.37,4.39 -8.38,7.41 3.74,3.59 6.47,6.26 8.19,8.03l-3.31 3.31c-1.79,-1.95 -4.47,-4.67 -8.03,-8.15 -4.03,4.16 -6.69,6.84 -7.99,8.03l-2.92 -3.31zm45.54 -4.33c0,5.61 1.2,10.9 3.59,15.87l-5.07 1.79c-2.52,-4.63 -3.78,-10.25 -3.78,-16.88 0,-3.9 0.45,-7.78 1.36,-11.66 0.91,-3.87 2.05,-7.1 3.43,-9.67l3.74 2.11c-0.94,2.18 -1.72,4.96 -2.34,8.32 -0.62,3.37 -0.94,6.74 -0.94,10.12zm60.39 -1.29c-1.38,-0.13 -2.74,-0.19 -4.07,-0.19 -1.34,0 -2.92,0.03 -4.74,0.08l0 0.51c0,2.63 0.06,5.63 0.19,9.01l-5.46 -0.35c-0.13,-3.38 -0.2,-6.26 -0.2,-8.65l0 -0.2c-0.31,0.05 -3.05,0.21 -8.23,0.47l-0.23 -4.68c3.79,-0.13 6.63,-0.3 8.5,-0.51 0.13,-3.48 0.33,-6.69 0.58,-9.63l5.46 0.47c-0.29,2.94 -0.47,5.9 -0.55,8.89 1.82,-0.05 3.48,-0.08 4.99,-0.08 1.51,0 2.94,0.06 4.29,0.19l-0.55 4.68zm38.21 -1.68c0,-5.61 -1.2,-10.9 -3.59,-15.87l5.07 -1.79c2.52,4.63 3.78,10.25 3.78,16.88 0,3.9 -0.45,7.78 -1.36,11.66 -0.91,3.87 -2.05,7.1 -3.43,9.67l-3.74 -2.11c0.94,-2.18 1.72,-4.96 2.34,-8.32 0.62,-3.37 0.94,-6.74 0.94,-10.12zm-217.71 49.32c0,5.61 1.2,10.9 3.59,15.87l-5.07 1.79c-2.52,-4.63 -3.78,-10.25 -3.78,-16.88 0,-3.9 0.45,-7.78 1.36,-11.66 0.91,-3.87 2.05,-7.1 3.43,-9.67l3.74 2.11c-0.94,2.18 -1.72,4.96 -2.34,8.32 -0.62,3.37 -0.94,6.74 -0.94,10.12zm38.48 4.33c3.85,-4.08 6.37,-6.74 7.56,-7.99 -3.53,-3.53 -6.22,-6.41 -8.07,-8.62l3.74 -2.42c2.03,2.34 4.52,4.96 7.49,7.88 3.35,-3.33 6.33,-5.98 8.93,-7.95l2.81 3.78c-2.57,1.92 -5.37,4.39 -8.38,7.41 3.74,3.59 6.47,6.26 8.19,8.03l-3.31 3.31c-1.79,-1.95 -4.47,-4.67 -8.03,-8.15 -4.03,4.16 -6.69,6.84 -7.99,8.03l-2.92 -3.31zm60.12 -7.29c0,-5.61 -1.2,-10.9 -3.59,-15.87l5.07 -1.79c2.52,4.63 3.78,10.25 3.78,16.88 0,3.9 -0.45,7.78 -1.36,11.66 -0.91,3.87 -2.05,7.1 -3.43,9.67l-3.74 -2.11c0.94,-2.18 1.72,-4.96 2.34,-8.32 0.62,-3.37 0.94,-6.74 0.94,-10.12zm45.81 1.68c-1.38,-0.13 -2.74,-0.19 -4.07,-0.19 -1.34,0 -2.92,0.03 -4.74,0.08l0 0.51c0,2.63 0.06,5.63 0.19,9.01l-5.46 -0.35c-0.13,-3.38 -0.2,-6.26 -0.2,-8.65l0 -0.2c-0.31,0.05 -3.05,0.21 -8.23,0.47l-0.23 -4.68c3.79,-0.13 6.63,-0.3 8.5,-0.51 0.13,-3.48 0.33,-6.69 0.58,-9.63l5.46 0.47c-0.29,2.94 -0.47,5.9 -0.55,8.89 1.82,-0.05 3.48,-0.08 4.99,-0.08 1.51,0 2.94,0.06 4.29,0.19l-0.55 4.68zm23.63 1.29c0,5.61 1.2,10.9 3.59,15.87l-5.07 1.79c-2.52,-4.63 -3.78,-10.25 -3.78,-16.88 0,-3.9 0.45,-7.78 1.36,-11.66 0.91,-3.87 2.05,-7.1 3.43,-9.67l3.74 2.11c-0.94,2.18 -1.72,4.96 -2.34,8.32 -0.62,3.37 -0.94,6.74 -0.94,10.12zm38.48 4.33c3.85,-4.08 6.37,-6.74 7.56,-7.99 -3.53,-3.53 -6.22,-6.41 -8.07,-8.62l3.74 -2.42c2.03,2.34 4.52,4.96 7.49,7.88 3.35,-3.33 6.33,-5.98 8.93,-7.95l2.81 3.78c-2.57,1.92 -5.37,4.39 -8.38,7.41 3.74,3.59 6.47,6.26 8.19,8.03l-3.31 3.31c-1.79,-1.95 -4.47,-4.67 -8.03,-8.15 -4.03,4.16 -6.69,6.84 -7.99,8.03l-2.92 -3.31zm60.12 -7.29c0,-5.61 -1.2,-10.9 -3.59,-15.87l5.07 -1.79c2.52,4.63 3.78,10.25 3.78,16.88 0,3.9 -0.45,7.78 -1.36,11.66 -0.91,3.87 -2.05,7.1 -3.43,9.67l-3.74 -2.11c0.94,-2.18 1.72,-4.96 2.34,-8.32 0.62,-3.37 0.94,-6.74 0.94,-10.12zm-122.22 48.03c-1.38,-0.13 -2.74,-0.19 -4.07,-0.19 -1.34,0 -2.92,0.03 -4.74,0.08l0 0.51c0,2.63 0.06,5.63 0.19,9.01l-5.46 -0.35c-0.13,-3.38 -0.2,-6.26 -0.2,-8.65l0 -0.2c-0.31,0.05 -3.05,0.21 -8.23,0.47l-0.23 -4.68c3.79,-0.13 6.63,-0.3 8.5,-0.51 0.13,-3.48 0.33,-6.69 0.58,-9.63l5.46 0.47c-0.29,2.94 -0.47,5.9 -0.55,8.89 1.82,-0.05 3.48,-0.08 4.99,-0.08 1.51,0 2.94,0.06 4.29,0.19l-0.55 4.68z"/>
   <path class="fil3" d="M196.55 6.34c2.05,0 3.63,0.65 4.74,1.95 1.1,1.3 1.66,2.94 1.66,4.91 0,1.33 -0.73,3.24 -2.18,5.75 -1.46,2.51 -3.3,5.04 -5.54,7.58 0.57,-0.21 1.75,-0.31 3.53,-0.31 1.78,0 3.15,0.09 4.11,0.27l-0.47 4.41c-1.61,-0.13 -2.96,-0.2 -4.05,-0.2 -2.99,0 -6.32,0.62 -9.98,1.87l-1.68 -3.39c2.83,-2.36 5.47,-5.26 7.91,-8.69 2.44,-3.43 3.66,-5.87 3.66,-7.31 0,-1.44 -0.57,-2.16 -1.72,-2.16 -0.94,0 -1.9,0.54 -2.9,1.62 -1,1.08 -2.07,2.58 -3.22,4.5l-3.9 -2.73c3.38,-5.38 6.72,-8.07 10.02,-8.07zm-48.91 46.35c2.05,0 3.63,0.65 4.74,1.95 1.1,1.3 1.66,2.94 1.66,4.91 0,1.33 -0.73,3.24 -2.18,5.75 -1.46,2.51 -3.3,5.04 -5.54,7.58 0.57,-0.21 1.75,-0.31 3.53,-0.31 1.78,0 3.15,0.09 4.11,0.27l-0.47 4.41c-1.61,-0.13 -2.96,-0.2 -4.05,-0.2 -2.99,0 -6.32,0.62 -9.98,1.87l-1.68 -3.39c2.83,-2.36 5.47,-5.26 7.91,-8.69 2.44,-3.43 3.66,-5.87 3.66,-7.31 0,-1.44 -0.57,-2.16 -1.72,-2.16 -0.94,0 -1.9,0.54 -2.9,1.62 -1,1.08 -2.07,2.58 -3.22,4.5l-3.9 -2.73c3.38,-5.38 6.72,-8.07 10.02,-8.07z"/>
   <path class="fil4" d="M257.91 9.69c1.56,-1.12 2.97,-1.93 4.23,-2.44 1.26,-0.51 2.68,-0.76 4.27,-0.76 1.59,0 2.96,0.53 4.13,1.6 1.17,1.07 1.75,2.55 1.75,4.46 0,1.91 -1.51,3.92 -4.52,6.02 2.6,1.35 3.9,3.18 3.9,5.48 0,2.3 -0.86,4.19 -2.57,5.67 -1.72,1.48 -3.43,2.22 -5.15,2.22 -1.72,0 -3.29,-0.27 -4.72,-0.82l-0.7 -4.29c0.91,0.29 2.03,0.43 3.35,0.43 1.33,0 2.51,-0.29 3.55,-0.88 1.04,-0.58 1.56,-1.27 1.56,-2.07 0,-0.79 -0.33,-1.46 -0.97,-1.99 -0.65,-0.53 -1.48,-0.8 -2.5,-0.8 -1.01,0 -2.11,0.18 -3.27,0.55l-1.33 -4.02c2.73,-0.91 4.83,-1.88 6.3,-2.9 1.47,-1.03 2.2,-1.96 2.2,-2.79 0,-0.94 -0.51,-1.4 -1.52,-1.4 -1.35,0 -3.18,0.81 -5.5,2.42l-2.5 -3.7zm48.91 46.35c1.56,-1.12 2.97,-1.93 4.23,-2.44 1.26,-0.51 2.68,-0.76 4.27,-0.76 1.59,0 2.96,0.53 4.13,1.6 1.17,1.07 1.75,2.55 1.75,4.46 0,1.91 -1.51,3.92 -4.52,6.02 2.6,1.35 3.9,3.18 3.9,5.48 0,2.3 -0.86,4.19 -2.57,5.67 -1.72,1.48 -3.43,2.22 -5.15,2.22 -1.72,0 -3.29,-0.27 -4.72,-0.82l-0.7 -4.29c0.91,0.29 2.03,0.43 3.35,0.43 1.33,0 2.51,-0.29 3.55,-0.88 1.04,-0.58 1.56,-1.27 1.56,-2.07 0,-0.79 -0.33,-1.46 -0.97,-1.99 -0.65,-0.53 -1.48,-0.8 -2.5,-0.8 -1.01,0 -2.11,0.18 -3.27,0.55l-1.33 -4.02c2.73,-0.91 4.83,-1.88 6.3,-2.9 1.47,-1.03 2.2,-1.96 2.2,-2.79 0,-0.94 -0.51,-1.4 -1.52,-1.4 -1.35,0 -3.18,0.81 -5.5,2.42l-2.5 -3.7z"/>
   <path class="fil5" d="M161.83 109.14c1.61,0 3.03,0.58 4.25,1.75 1.22,1.17 1.83,2.96 1.83,5.38 0,2.42 -0.77,4.55 -2.32,6.41 -1.55,1.86 -3.44,2.79 -5.67,2.79 -2.24,0 -4.02,-0.9 -5.36,-2.69 -1.34,-1.79 -2.01,-4.16 -2.01,-7.1 0,-3.27 0.68,-6.26 2.03,-8.97 0.73,-1.48 1.4,-2.72 2.01,-3.7 0.61,-0.99 1.5,-2.34 2.67,-4.05l6 0.51c-3.51,3.66 -5.85,7.13 -7.02,10.41 1.25,-0.49 2.44,-0.74 3.59,-0.74zm-4.37 5.46l-0.04 1.09c0,1.64 0.25,2.96 0.74,3.98 0.49,1.01 1.14,1.52 1.93,1.52 0.79,0 1.48,-0.44 2.07,-1.33 0.58,-0.88 0.88,-1.9 0.88,-3.06 0,-1.16 -0.21,-2.01 -0.64,-2.55 -0.43,-0.55 -1.01,-0.82 -1.74,-0.82 -0.73,0 -1.79,0.39 -3.2,1.17z"/>
   <path class="fil6" d="M228.97 116.08c-2,0 -3.65,-0.73 -4.93,-2.2 -1.29,-1.47 -1.93,-3.22 -1.93,-5.24 0,-2.5 0.88,-4.76 2.65,-6.78 1.77,-2.03 3.77,-3.04 6,-3.04 1.79,0 3.44,0.72 4.95,2.14 0.78,0.75 1.41,1.83 1.89,3.22 0.48,1.39 0.72,3.02 0.72,4.89 0,4.13 -2.95,9.86 -8.85,17.19l-3.7 -2.61c2.26,-2.57 4.3,-5.32 6.12,-8.23 -1.22,0.44 -2.2,0.66 -2.92,0.66zm0.39 -4.29c1.22,0 2.6,-0.58 4.13,-1.75 0.1,-0.62 0.16,-1.08 0.16,-1.36 0,-1.95 -0.29,-3.37 -0.88,-4.25 -0.58,-0.88 -1.32,-1.33 -2.2,-1.33 -0.88,0 -1.74,0.57 -2.55,1.72 -0.82,1.14 -1.23,2.42 -1.23,3.82 0,0.86 0.24,1.6 0.72,2.22 0.48,0.62 1.1,0.94 1.85,0.94z"/>
   <path class="fil7" d="M190.12 146.33c-0.52,4.26 -0.78,8.61 -0.78,13.04 0,4.43 0.18,8.41 0.55,11.95l-5.22 -0.51c-0.18,-3.04 -0.27,-6.01 -0.27,-8.91 0,-2.9 0.1,-5.65 0.31,-8.25l-2.18 2.92 -2.96 -2.5c1.64,-2.39 3.37,-5.33 5.19,-8.81l5.38 1.05zm21.13 -0.9l0 4.29c-2.08,0 -4.35,0.2 -6.82,0.58 -0.03,0.26 -0.3,2.05 -0.82,5.38 2.65,0 4.76,0.55 6.32,1.66 1.56,1.1 2.34,2.67 2.34,4.7 0,4.63 -4.28,7.85 -12.83,9.67l-1.09 -4.21c5.9,-1.3 8.85,-2.99 8.85,-5.07 0,-0.73 -0.38,-1.33 -1.15,-1.79 -0.77,-0.47 -1.7,-0.7 -2.79,-0.7 -0.34,0 -1.31,0.17 -2.92,0.51l-2.26 -1.79 2.18 -11.81c4.34,-0.94 8.01,-1.4 10.99,-1.4z"/>
  </g>
 </g>
</svg>
