<?xml version="1.0" encoding="UTF-8"?>
<!DOCTYPE svg PUBLIC "-//W3C//DTD SVG 1.1//EN" "http://www.w3.org/Graphics/SVG/1.1/DTD/svg11.dtd">
<!-- Creator: CorelDRAW 2018 (64-Bit) -->
<svg xmlns="http://www.w3.org/2000/svg" xml:space="preserve" width="3.33176in" height="1.4927in" version="1.1" style="shape-rendering:geometricPrecision; text-rendering:geometricPrecision; image-rendering:optimizeQuality; fill-rule:evenodd; clip-rule:evenodd"
viewBox="0 0 337.69 151.29"
 xmlns:xlink="http://www.w3.org/1999/xlink">
 <defs>
  <style type="text/css">
   <![CDATA[
    .fil0 {fill:none}
    .fil5 {fill:#009688;fill-rule:nonzero}
    .fil2 {fill:#0AA79C;fill-rule:nonzero}
    .fil4 {fill:#2980B9;fill-rule:nonzero}
    .fil3 {fill:#3498DB;fill-rule:nonzero}
    .fil1 {fill:#3F51B5;fill-rule:nonzero}
   ]]>
  </style>
 </defs>
 <g id="Layer_x0020_1">
  <metadata id="CorelCorpID_0Corel-Layer"/>
  <rect class="fil0" x="-0" y="-0" width="337.69" height="151.29"/>
  <g id="_2334126755728">
   <path class="fil1" d="M108.89 53.77l0 3.72c-1.8,0 -3.77,0.17 -5.91,0.51 -0.02,0.23 -0.26,1.78 -0.71,4.66 2.3,0 4.12,0.48 5.47,1.44 1.35,0.96 2.03,2.31 2.03,4.07 0,4.01 -3.71,6.8 -11.12,8.38l-0.95 -3.65c5.11,-1.13 7.67,-2.59 7.67,-4.39 0,-0.63 -0.33,-1.15 -1,-1.55 -0.66,-0.41 -1.47,-0.61 -2.42,-0.61 -0.29,0 -1.14,0.15 -2.53,0.44l-1.96 -1.55 1.89 -10.24c3.76,-0.81 6.94,-1.22 9.53,-1.22z"/>
   <path class="fil2" d="M123.89 72.35c3.33,-3.54 5.52,-5.84 6.55,-6.93 -3.06,-3.06 -5.39,-5.55 -6.99,-7.47l3.24 -2.09c1.76,2.03 3.92,4.3 6.49,6.82 2.91,-2.88 5.48,-5.18 7.74,-6.89l2.43 3.28c-2.23,1.67 -4.65,3.81 -7.26,6.42 3.24,3.11 5.61,5.43 7.09,6.96l-2.87 2.87c-1.55,-1.69 -3.87,-4.04 -6.96,-7.06 -3.49,3.6 -5.8,5.92 -6.93,6.96l-2.53 -2.87zm0 40.17c3.33,-3.54 5.52,-5.84 6.55,-6.93 -3.06,-3.06 -5.39,-5.55 -6.99,-7.47l3.24 -2.09c1.76,2.03 3.92,4.3 6.49,6.82 2.91,-2.88 5.48,-5.18 7.74,-6.89l2.43 3.28c-2.23,1.67 -4.65,3.81 -7.26,6.42 3.24,3.11 5.61,5.43 7.09,6.96l-2.87 2.87c-1.55,-1.69 -3.87,-4.04 -6.96,-7.06 -3.49,3.6 -5.8,5.92 -6.93,6.96l-2.53 -2.87z"/>
   <path class="fil3" d="M157.51 56.64c1.35,-0.97 2.57,-1.67 3.67,-2.11 1.09,-0.44 2.33,-0.66 3.7,-0.66 1.37,0 2.57,0.46 3.58,1.39 1.01,0.92 1.52,2.21 1.52,3.87 0,1.66 -1.31,3.4 -3.92,5.22 2.25,1.17 3.38,2.75 3.38,4.75 0,1.99 -0.74,3.63 -2.23,4.92 -1.49,1.28 -2.97,1.93 -4.46,1.93 -1.49,0 -2.85,-0.24 -4.09,-0.71l-0.61 -3.72c0.79,0.25 1.76,0.37 2.91,0.37 1.15,0 2.17,-0.25 3.07,-0.76 0.9,-0.51 1.35,-1.1 1.35,-1.79 0,-0.69 -0.28,-1.26 -0.84,-1.72 -0.56,-0.46 -1.28,-0.69 -2.16,-0.69 -0.88,0 -1.82,0.16 -2.84,0.47l-1.15 -3.48c2.36,-0.79 4.18,-1.63 5.46,-2.52 1.27,-0.89 1.91,-1.7 1.91,-2.42 0,-0.81 -0.44,-1.22 -1.32,-1.22 -1.17,0 -2.76,0.7 -4.76,2.09l-2.16 -3.21zm12.23 37.3l0 3.72c-1.8,0 -3.77,0.17 -5.91,0.51 -0.02,0.23 -0.26,1.78 -0.71,4.66 2.3,0 4.12,0.48 5.47,1.44 1.35,0.96 2.03,2.31 2.03,4.07 0,4.01 -3.71,6.8 -11.12,8.38l-0.95 -3.65c5.11,-1.13 7.67,-2.59 7.67,-4.39 0,-0.63 -0.33,-1.15 -1,-1.55 -0.66,-0.41 -1.47,-0.61 -2.42,-0.61 -0.29,0 -1.14,0.15 -2.53,0.44l-1.96 -1.55 1.89 -10.24c3.76,-0.81 6.94,-1.22 9.53,-1.22z"/>
   <path class="fil4" d="M228.63 54.55c-0.45,3.69 -0.68,7.46 -0.68,11.3 0,3.84 0.16,7.29 0.47,10.36l-4.53 -0.44c-0.16,-2.64 -0.24,-5.21 -0.24,-7.72 0,-2.51 0.09,-4.89 0.27,-7.15l-1.89 2.53 -2.57 -2.16c1.42,-2.07 2.92,-4.62 4.49,-7.64l4.66 0.91zm18.31 -0.78l0 3.72c-1.8,0 -3.77,0.17 -5.91,0.51 -0.02,0.23 -0.26,1.78 -0.71,4.66 2.3,0 4.12,0.48 5.47,1.44 1.35,0.96 2.03,2.31 2.03,4.07 0,4.01 -3.71,6.8 -11.12,8.38l-0.95 -3.65c5.11,-1.13 7.67,-2.59 7.67,-4.39 0,-0.63 -0.33,-1.15 -1,-1.55 -0.66,-0.41 -1.47,-0.61 -2.42,-0.61 -0.29,0 -1.14,0.15 -2.53,0.44l-1.96 -1.55 1.89 -10.24c3.76,-0.81 6.94,-1.22 9.53,-1.22zm-150.28 43.04c1.35,-0.97 2.57,-1.67 3.67,-2.11 1.09,-0.44 2.33,-0.66 3.7,-0.66 1.37,0 2.57,0.46 3.58,1.39 1.01,0.92 1.52,2.21 1.52,3.87 0,1.66 -1.31,3.4 -3.92,5.22 2.25,1.17 3.38,2.75 3.38,4.75 0,1.99 -0.74,3.63 -2.23,4.92 -1.49,1.28 -2.97,1.93 -4.46,1.93 -1.49,0 -2.85,-0.24 -4.09,-0.71l-0.61 -3.72c0.79,0.25 1.76,0.37 2.91,0.37 1.15,0 2.17,-0.25 3.07,-0.76 0.9,-0.51 1.35,-1.1 1.35,-1.79 0,-0.69 -0.28,-1.26 -0.84,-1.72 -0.56,-0.46 -1.28,-0.69 -2.16,-0.69 -0.88,0 -1.82,0.16 -2.84,0.47l-1.15 -3.48c2.36,-0.79 4.18,-1.63 5.46,-2.52 1.27,-0.89 1.91,-1.7 1.91,-2.42 0,-0.81 -0.44,-1.22 -1.32,-1.22 -1.17,0 -2.76,0.7 -4.76,2.09l-2.16 -3.21zm131.97 -2.09c-0.45,3.69 -0.68,7.46 -0.68,11.3 0,3.84 0.16,7.29 0.47,10.36l-4.53 -0.44c-0.16,-2.64 -0.24,-5.21 -0.24,-7.72 0,-2.51 0.09,-4.89 0.27,-7.15l-1.89 2.53 -2.57 -2.16c1.42,-2.07 2.92,-4.62 4.49,-7.64l4.66 0.91zm18.31 -0.78l0 3.72c-1.8,0 -3.77,0.17 -5.91,0.51 -0.02,0.23 -0.26,1.78 -0.71,4.66 2.3,0 4.12,0.48 5.47,1.44 1.35,0.96 2.03,2.31 2.03,4.07 0,4.01 -3.71,6.8 -11.12,8.38l-0.95 -3.65c5.11,-1.13 7.67,-2.59 7.67,-4.39 0,-0.63 -0.33,-1.15 -1,-1.55 -0.66,-0.41 -1.47,-0.61 -2.42,-0.61 -0.29,0 -1.14,0.15 -2.53,0.44l-1.96 -1.55 1.89 -10.24c3.76,-0.81 6.94,-1.22 9.53,-1.22z"/>
   <path class="fil5" d="M184.1 59.92l12.03 -0.27c3.36,0 6.07,0.12 8.14,0.37l-0.61 4.05c-1.82,-0.25 -4.22,-0.37 -7.2,-0.37l-12.37 0.27 0 -4.05zm0 7.4l12.03 -0.27c3.36,0 6.07,0.12 8.14,0.37l-0.61 4.05c-1.82,-0.25 -4.22,-0.37 -7.2,-0.37l-12.37 0.27 0 -4.05zm0 32.77l12.03 -0.27c3.36,0 6.07,0.12 8.14,0.37l-0.61 4.05c-1.82,-0.25 -4.22,-0.37 -7.2,-0.37l-12.37 0.27 0 -4.05zm0 7.4l12.03 -0.27c3.36,0 6.07,0.12 8.14,0.37l-0.61 4.05c-1.82,-0.25 -4.22,-0.37 -7.2,-0.37l-12.37 0.27 0 -4.05z"/>
  </g>
 </g>
</svg>
