<?xml version="1.0" encoding="UTF-8"?>
<!DOCTYPE svg PUBLIC "-//W3C//DTD SVG 1.1//EN" "http://www.w3.org/Graphics/SVG/1.1/DTD/svg11.dtd">
<!-- Creator: CorelDRAW 2018 (64-Bit) -->
<svg xmlns="http://www.w3.org/2000/svg" xml:space="preserve" width="3.33176in" height="1.4927in" version="1.1" style="shape-rendering:geometricPrecision; text-rendering:geometricPrecision; image-rendering:optimizeQuality; fill-rule:evenodd; clip-rule:evenodd"
viewBox="0 0 407.33 182.49"
 xmlns:xlink="http://www.w3.org/1999/xlink">
 <defs>
  <style type="text/css">
   <![CDATA[
    .fil0 {fill:none}
    .fil2 {fill:#009688;fill-rule:nonzero}
    .fil1 {fill:#2980B9;fill-rule:nonzero}
    .fil3 {fill:#666666;fill-rule:nonzero}
   ]]>
  </style>
 </defs>
 <g id="Layer_x0020_1">
  <metadata id="CorelCorpID_0Corel-Layer"/>
  <rect class="fil0" x="-0" y="-0" width="407.33" height="182.49"/>
  <g id="_2138065714288">
   <path class="fil1" d="M136.63 77.51l0 4.48c-2.17,0 -4.55,0.2 -7.13,0.61 -0.03,0.27 -0.31,2.15 -0.86,5.62 2.77,0 4.97,0.58 6.6,1.73 1.63,1.15 2.45,2.79 2.45,4.91 0,4.84 -4.47,8.21 -13.41,10.11l-1.14 -4.4c6.17,-1.36 9.25,-3.12 9.25,-5.3 0,-0.76 -0.4,-1.39 -1.2,-1.87 -0.8,-0.49 -1.77,-0.73 -2.91,-0.73 -0.35,0 -1.37,0.18 -3.06,0.53l-2.36 -1.87 2.28 -12.35c4.54,-0.98 8.37,-1.47 11.49,-1.47zm146.79 0l0 4.48c-2.17,0 -4.55,0.2 -7.13,0.61 -0.03,0.27 -0.31,2.15 -0.86,5.62 2.77,0 4.97,0.58 6.6,1.73 1.63,1.15 2.45,2.79 2.45,4.91 0,4.84 -4.47,8.21 -13.41,10.11l-1.14 -4.4c6.17,-1.36 9.25,-3.12 9.25,-5.3 0,-0.76 -0.4,-1.39 -1.2,-1.87 -0.8,-0.49 -1.77,-0.73 -2.91,-0.73 -0.35,0 -1.37,0.18 -3.06,0.53l-2.36 -1.87 2.28 -12.35c4.54,-0.98 8.37,-1.47 11.49,-1.47z"/>
   <path class="fil2" d="M177.63 94.06c-1.44,-0.14 -2.86,-0.2 -4.26,-0.2 -1.4,0 -3.05,0.03 -4.95,0.08l0 0.53c0,2.74 0.07,5.88 0.2,9.41l-5.71 -0.37c-0.14,-3.53 -0.2,-6.55 -0.2,-9.05l0 -0.2c-0.33,0.05 -3.19,0.22 -8.6,0.49l-0.24 -4.89c3.97,-0.14 6.93,-0.31 8.88,-0.53 0.14,-3.64 0.34,-7 0.61,-10.07l5.71 0.49c-0.3,3.07 -0.49,6.17 -0.57,9.29 1.9,-0.05 3.64,-0.08 5.22,-0.08 1.58,0 3.07,0.07 4.48,0.2l-0.57 4.89zm49.72 -9.13l14.51 -0.33c4.05,0 7.32,0.15 9.82,0.45l-0.73 4.89c-2.2,-0.3 -5.09,-0.45 -8.68,-0.45l-14.92 0.33 0 -4.89zm0 8.92l14.51 -0.33c4.05,0 7.32,0.15 9.82,0.45l-0.73 4.89c-2.2,-0.3 -5.09,-0.45 -8.68,-0.45l-14.92 0.33 0 -4.89z"/>
   <path class="fil3" d="M203.22 82.12c-0.95,0 -1.73,1.18 -2.32,3.55 -0.6,2.36 -0.9,4.76 -0.9,7.19 0,2.43 0.28,4.25 0.84,5.44 0.56,1.2 1.31,1.79 2.26,1.79 0.73,0 1.42,-0.94 2.06,-2.83 0.64,-1.89 0.96,-4.01 0.96,-6.38 0,-5.84 -0.96,-8.76 -2.89,-8.76zm-8.52 11.45c0,-2.58 0.32,-5.06 0.96,-7.44 0.64,-2.38 1.62,-4.39 2.95,-6.03 1.33,-1.64 2.91,-2.47 4.73,-2.47 1.82,0 3.36,0.61 4.61,1.83 2.31,2.31 3.46,6.11 3.46,11.41 0,2.31 -0.41,4.53 -1.22,6.66 -0.81,2.13 -1.86,3.84 -3.14,5.11 -1.28,1.28 -2.59,1.92 -3.95,1.92 -2.61,0 -4.66,-1.01 -6.15,-3.02 -1.49,-2.01 -2.24,-4.67 -2.24,-7.99z"/>
  </g>
 </g>
</svg>
