<?xml version="1.0" encoding="UTF-8"?>
<!DOCTYPE svg PUBLIC "-//W3C//DTD SVG 1.1//EN" "http://www.w3.org/Graphics/SVG/1.1/DTD/svg11.dtd">
<!-- Creator: CorelDRAW 2018 (64-Bit) -->
<svg xmlns="http://www.w3.org/2000/svg" xml:space="preserve" width="3.33176in" height="1.4927in" version="1.1" style="shape-rendering:geometricPrecision; text-rendering:geometricPrecision; image-rendering:optimizeQuality; fill-rule:evenodd; clip-rule:evenodd"
viewBox="0 0 240.23 107.63"
 xmlns:xlink="http://www.w3.org/1999/xlink">
 <defs>
  <style type="text/css">
   <![CDATA[
    .fil0 {fill:none}
    .fil6 {fill:#009688;fill-rule:nonzero}
    .fil2 {fill:#0AA79C;fill-rule:nonzero}
    .fil3 {fill:#27AE60;fill-rule:nonzero}
    .fil4 {fill:#2980B9;fill-rule:nonzero}
    .fil5 {fill:#3498DB;fill-rule:nonzero}
    .fil1 {fill:#666666;fill-rule:nonzero}
   ]]>
  </style>
 </defs>
 <g id="Layer_x0020_1">
  <metadata id="CorelCorpID_0Corel-Layer"/>
  <rect class="fil0" x="-0" y="-0" width="240.23" height="107.63"/>
  <g id="_2495346398672">
   <path class="fil1" d="M71.3 34.21c-0.56,0 -1.02,0.7 -1.37,2.09 -0.35,1.39 -0.53,2.81 -0.53,4.24 0,1.43 0.16,2.5 0.49,3.21 0.33,0.71 0.77,1.06 1.33,1.06 0.43,0 0.84,-0.56 1.21,-1.67 0.38,-1.11 0.56,-2.37 0.56,-3.76 0,-3.45 -0.57,-5.17 -1.71,-5.17zm-5.02 6.75c0,-1.52 0.19,-2.98 0.56,-4.39 0.38,-1.4 0.96,-2.59 1.74,-3.56 0.79,-0.97 1.71,-1.45 2.79,-1.45 1.07,0 1.98,0.36 2.72,1.08 1.36,1.36 2.04,3.61 2.04,6.73 0,1.36 -0.24,2.67 -0.72,3.93 -0.48,1.26 -1.1,2.26 -1.85,3.02 -0.75,0.75 -1.53,1.13 -2.33,1.13 -1.54,0 -2.75,-0.59 -3.63,-1.78 -0.88,-1.19 -1.32,-2.76 -1.32,-4.71zm103.23 -6.75c-0.56,0 -1.02,0.7 -1.37,2.09 -0.35,1.39 -0.53,2.81 -0.53,4.24 0,1.43 0.16,2.5 0.49,3.21 0.33,0.71 0.77,1.06 1.33,1.06 0.43,0 0.84,-0.56 1.21,-1.67 0.38,-1.11 0.56,-2.37 0.56,-3.76 0,-3.45 -0.57,-5.17 -1.71,-5.17zm-5.02 6.75c0,-1.52 0.19,-2.98 0.56,-4.39 0.38,-1.4 0.96,-2.59 1.74,-3.56 0.79,-0.97 1.71,-1.45 2.79,-1.45 1.07,0 1.98,0.36 2.72,1.08 1.36,1.36 2.04,3.61 2.04,6.73 0,1.36 -0.24,2.67 -0.72,3.93 -0.48,1.26 -1.1,2.26 -1.85,3.02 -0.75,0.75 -1.53,1.13 -2.33,1.13 -1.54,0 -2.75,-0.59 -3.63,-1.78 -0.88,-1.19 -1.32,-2.76 -1.32,-4.71zm-22.44 21.82c-0.56,0 -1.02,0.7 -1.37,2.09 -0.35,1.39 -0.53,2.81 -0.53,4.24 0,1.43 0.16,2.5 0.49,3.21 0.33,0.71 0.77,1.06 1.33,1.06 0.43,0 0.84,-0.56 1.21,-1.67 0.38,-1.11 0.56,-2.37 0.56,-3.76 0,-3.45 -0.57,-5.17 -1.71,-5.17zm-5.02 6.75c0,-1.52 0.19,-2.98 0.56,-4.39 0.38,-1.4 0.96,-2.59 1.74,-3.56 0.79,-0.97 1.71,-1.45 2.79,-1.45 1.07,0 1.98,0.36 2.72,1.08 1.36,1.36 2.04,3.61 2.04,6.73 0,1.36 -0.24,2.67 -0.72,3.93 -0.48,1.26 -1.1,2.26 -1.85,3.02 -0.75,0.75 -1.53,1.13 -2.33,1.13 -1.54,0 -2.75,-0.59 -3.63,-1.78 -0.88,-1.19 -1.32,-2.76 -1.32,-4.71zm48.31 -6.75c-0.56,0 -1.02,0.7 -1.37,2.09 -0.35,1.39 -0.53,2.81 -0.53,4.24 0,1.43 0.16,2.5 0.49,3.21 0.33,0.71 0.77,1.06 1.33,1.06 0.43,0 0.84,-0.56 1.21,-1.67 0.38,-1.11 0.56,-2.37 0.56,-3.76 0,-3.45 -0.57,-5.17 -1.71,-5.17zm-5.02 6.75c0,-1.52 0.19,-2.98 0.56,-4.39 0.38,-1.4 0.96,-2.59 1.74,-3.56 0.79,-0.97 1.71,-1.45 2.79,-1.45 1.07,0 1.98,0.36 2.72,1.08 1.36,1.36 2.04,3.61 2.04,6.73 0,1.36 -0.24,2.67 -0.72,3.93 -0.48,1.26 -1.1,2.26 -1.85,3.02 -0.75,0.75 -1.53,1.13 -2.33,1.13 -1.54,0 -2.75,-0.59 -3.63,-1.78 -0.88,-1.19 -1.32,-2.76 -1.32,-4.71z"/>
   <path class="fil2" d="M85.99 44.72c2.37,-2.52 3.93,-4.16 4.66,-4.93 -2.18,-2.18 -3.84,-3.95 -4.98,-5.31l2.31 -1.49c1.25,1.44 2.79,3.06 4.61,4.86 2.07,-2.05 3.9,-3.69 5.5,-4.9l1.73 2.33c-1.59,1.19 -3.31,2.71 -5.17,4.57 2.31,2.21 3.99,3.86 5.05,4.95l-2.04 2.04c-1.11,-1.2 -2.76,-2.88 -4.95,-5.02 -2.48,2.56 -4.13,4.21 -4.93,4.95l-1.8 -2.04zm54.46 -8.84l8.56 -0.19c2.39,0 4.32,0.09 5.79,0.26l-0.43 2.88c-1.3,-0.18 -3,-0.26 -5.12,-0.26l-8.8 0.19 0 -2.88zm0 5.26l8.56 -0.19c2.39,0 4.32,0.09 5.79,0.26l-0.43 2.88c-1.3,-0.18 -3,-0.26 -5.12,-0.26l-8.8 0.19 0 -2.88zm-70.29 32.16c2.37,-2.52 3.93,-4.16 4.66,-4.93 -2.18,-2.18 -3.84,-3.95 -4.98,-5.31l2.31 -1.49c1.25,1.44 2.79,3.06 4.61,4.86 2.07,-2.05 3.9,-3.69 5.5,-4.9l1.73 2.33c-1.59,1.19 -3.31,2.71 -5.17,4.57 2.31,2.21 3.99,3.86 5.05,4.95l-2.04 2.04c-1.11,-1.2 -2.76,-2.88 -4.95,-5.02 -2.48,2.56 -4.13,4.21 -4.93,4.95l-1.8 -2.04zm43.29 0c2.37,-2.52 3.93,-4.16 4.66,-4.93 -2.18,-2.18 -3.84,-3.95 -4.98,-5.31l2.31 -1.49c1.25,1.44 2.79,3.06 4.61,4.86 2.07,-2.05 3.9,-3.69 5.5,-4.9l1.73 2.33c-1.59,1.19 -3.31,2.71 -5.17,4.57 2.31,2.21 3.99,3.86 5.05,4.95l-2.04 2.04c-1.11,-1.2 -2.76,-2.88 -4.95,-5.02 -2.48,2.56 -4.13,4.21 -4.93,4.95l-1.8 -2.04z"/>
   <path class="fil3" d="M117.21 32.05c-0.32,2.63 -0.48,5.31 -0.48,8.04 0,2.73 0.11,5.19 0.34,7.37l-3.22 -0.31c-0.11,-1.87 -0.17,-3.71 -0.17,-5.49 0,-1.79 0.06,-3.48 0.19,-5.08l-1.35 1.8 -1.83 -1.54c1.01,-1.47 2.08,-3.28 3.2,-5.43l3.32 0.65zm9.01 2.16c-0.56,0 -1.02,0.7 -1.37,2.09 -0.35,1.39 -0.53,2.81 -0.53,4.24 0,1.43 0.16,2.5 0.49,3.21 0.33,0.71 0.77,1.06 1.33,1.06 0.43,0 0.84,-0.56 1.21,-1.67 0.38,-1.11 0.56,-2.37 0.56,-3.76 0,-3.45 -0.57,-5.17 -1.71,-5.17zm-5.02 6.75c0,-1.52 0.19,-2.98 0.56,-4.39 0.38,-1.4 0.96,-2.59 1.74,-3.56 0.79,-0.97 1.71,-1.45 2.79,-1.45 1.07,0 1.98,0.36 2.72,1.08 1.36,1.36 2.04,3.61 2.04,6.73 0,1.36 -0.24,2.67 -0.72,3.93 -0.48,1.26 -1.1,2.26 -1.85,3.02 -0.75,0.75 -1.53,1.13 -2.33,1.13 -1.54,0 -2.75,-0.59 -3.63,-1.78 -0.88,-1.19 -1.32,-2.76 -1.32,-4.71z"/>
   <path class="fil4" d="M56.24 60.05c1.27,0 2.24,0.4 2.92,1.2 0.68,0.8 1.02,1.81 1.02,3.03 0,0.82 -0.45,2 -1.35,3.54 -0.9,1.55 -2.04,3.1 -3.41,4.67 0.35,-0.13 1.08,-0.19 2.18,-0.19 1.1,0 1.94,0.06 2.54,0.17l-0.29 2.72c-0.99,-0.08 -1.83,-0.12 -2.5,-0.12 -1.84,0 -3.89,0.38 -6.15,1.15l-1.03 -2.09c1.75,-1.46 3.37,-3.24 4.88,-5.36 1.51,-2.12 2.26,-3.62 2.26,-4.51 0,-0.89 -0.35,-1.33 -1.06,-1.33 -0.58,0 -1.17,0.33 -1.79,1 -0.62,0.67 -1.28,1.59 -1.98,2.78l-2.4 -1.68c2.08,-3.32 4.14,-4.98 6.18,-4.98z"/>
   <path class="fil5" d="M94.07 62.12c0.96,-0.69 1.83,-1.19 2.61,-1.5 0.78,-0.31 1.65,-0.47 2.63,-0.47 0.98,0 1.83,0.33 2.55,0.99 0.72,0.66 1.08,1.57 1.08,2.75 0,1.18 -0.93,2.42 -2.79,3.71 1.6,0.83 2.4,1.96 2.4,3.38 0,1.42 -0.53,2.58 -1.59,3.5 -1.06,0.91 -2.12,1.37 -3.17,1.37 -1.06,0 -2.03,-0.17 -2.91,-0.5l-0.43 -2.64c0.56,0.18 1.25,0.26 2.07,0.26 0.82,0 1.55,-0.18 2.19,-0.54 0.64,-0.36 0.96,-0.79 0.96,-1.27 0,-0.49 -0.2,-0.9 -0.6,-1.23 -0.4,-0.33 -0.91,-0.49 -1.54,-0.49 -0.62,0 -1.3,0.11 -2.02,0.34l-0.82 -2.48c1.68,-0.56 2.98,-1.16 3.88,-1.79 0.91,-0.63 1.36,-1.21 1.36,-1.72 0,-0.58 -0.31,-0.87 -0.94,-0.87 -0.83,0 -1.96,0.5 -3.39,1.49l-1.54 -2.28z"/>
   <path class="fil6" d="M156.28 64.45l8.56 -0.19c2.39,0 4.32,0.09 5.79,0.26l-0.43 2.88c-1.3,-0.18 -3,-0.26 -5.12,-0.26l-8.8 0.19 0 -2.88zm0 5.26l8.56 -0.19c2.39,0 4.32,0.09 5.79,0.26l-0.43 2.88c-1.3,-0.18 -3,-0.26 -5.12,-0.26l-8.8 0.19 0 -2.88z"/>
  </g>
 </g>
</svg>
