<?xml version="1.0" encoding="UTF-8"?>
<!DOCTYPE svg PUBLIC "-//W3C//DTD SVG 1.1//EN" "http://www.w3.org/Graphics/SVG/1.1/DTD/svg11.dtd">
<!-- Creator: CorelDRAW 2018 (64-Bit) -->
<svg xmlns="http://www.w3.org/2000/svg" xml:space="preserve" width="0.925614in" height="1.56033in" version="1.1" style="shape-rendering:geometricPrecision; text-rendering:geometricPrecision; image-rendering:optimizeQuality; fill-rule:evenodd; clip-rule:evenodd"
viewBox="0 0 22.1 37.26"
 xmlns:xlink="http://www.w3.org/1999/xlink">
 <defs>
  <style type="text/css">
   <![CDATA[
    .str1 {stroke:#3F51B5;stroke-width:0.32;stroke-miterlimit:2.61313;stroke-opacity:0.501961}
    .str0 {stroke:#3F51B5;stroke-width:0.32;stroke-miterlimit:2.61313}
    .fil0 {fill:#3498DB}
    .fil2 {fill:#3498DB;fill-rule:nonzero}
    .fil3 {fill:#3F51B5;fill-rule:nonzero}
    .fil1 {fill:#3498DB;fill-opacity:0.501961}
   ]]>
  </style>
 </defs>
 <g id="Layer_x0020_1">
  <metadata id="CorelCorpID_0Corel-Layer"/>
  <circle class="fil0 str0" cx="7.33" cy="9.05" r="1.84"/>
  <circle class="fil0 str0" cx="13.72" cy="9.05" r="1.84"/>
  <circle class="fil0 str0" cx="20.1" cy="9.05" r="1.84"/>
  <circle class="fil0 str0" cx="7.33" cy="15.43" r="1.84"/>
  <circle class="fil0 str0" cx="13.72" cy="15.43" r="1.84"/>
  <circle class="fil0 str0" cx="20.1" cy="15.43" r="1.84"/>
  <circle class="fil0 str0" cx="7.33" cy="21.81" r="1.84"/>
  <circle class="fil0 str0" cx="13.72" cy="21.81" r="1.84"/>
  <circle class="fil0 str0" cx="20.1" cy="21.81" r="1.84"/>
  <circle class="fil0 str0" cx="7.33" cy="28.19" r="1.84"/>
  <circle class="fil0 str0" cx="13.72" cy="28.19" r="1.84"/>
  <circle class="fil0 str0" cx="20.1" cy="28.19" r="1.84"/>
  <circle class="fil0 str0" cx="7.33" cy="34.57" r="1.84"/>
  <circle class="fil0 str0" cx="13.72" cy="34.57" r="1.84"/>
  <circle class="fil0 str0" cx="20.1" cy="34.57" r="1.84"/>
  <path class="fil1 str1" d="M7.33 7.2c1.02,0 1.84,0.83 1.84,1.84 0,1.02 -0.83,1.84 -1.84,1.84 -1.02,0 -1.84,-0.83 -1.84,-1.84 0,-1.02 0.83,-1.84 1.84,-1.84z"/>
  <path class="fil2" d="M8.41 0.23c-0.11,0.87 -0.16,1.76 -0.16,2.66 0,0.9 0.04,1.72 0.11,2.44l-1.07 -0.1c-0.04,-0.62 -0.06,-1.23 -0.06,-1.82 0,-0.59 0.02,-1.15 0.06,-1.68l-0.45 0.6 -0.6 -0.51c0.33,-0.49 0.69,-1.09 1.06,-1.8l1.1 0.21z"/>
  <path class="fil2" d="M14.09 0c0.42,0 0.74,0.13 0.97,0.4 0.23,0.27 0.34,0.6 0.34,1 0,0.27 -0.15,0.66 -0.45,1.17 -0.3,0.51 -0.67,1.03 -1.13,1.55 0.12,-0.04 0.36,-0.06 0.72,-0.06 0.36,0 0.64,0.02 0.84,0.06l-0.1 0.9c-0.33,-0.03 -0.6,-0.04 -0.83,-0.04 -0.61,0 -1.29,0.13 -2.04,0.38l-0.34 -0.69c0.58,-0.48 1.12,-1.07 1.62,-1.77 0.5,-0.7 0.75,-1.2 0.75,-1.49 0,-0.29 -0.12,-0.44 -0.35,-0.44 -0.19,0 -0.39,0.11 -0.59,0.33 -0.2,0.22 -0.42,0.53 -0.66,0.92l-0.8 -0.56c0.69,-1.1 1.37,-1.65 2.05,-1.65z"/>
  <path class="fil2" d="M18.63 0.73c0.32,-0.23 0.61,-0.39 0.86,-0.5 0.26,-0.1 0.55,-0.16 0.87,-0.16 0.32,0 0.6,0.11 0.84,0.33 0.24,0.22 0.36,0.52 0.36,0.91 0,0.39 -0.31,0.8 -0.92,1.23 0.53,0.28 0.8,0.65 0.8,1.12 0,0.47 -0.18,0.86 -0.53,1.16 -0.35,0.3 -0.7,0.45 -1.05,0.45 -0.35,0 -0.67,-0.06 -0.96,-0.17l-0.14 -0.88c0.19,0.06 0.41,0.09 0.68,0.09 0.27,0 0.51,-0.06 0.72,-0.18 0.21,-0.12 0.32,-0.26 0.32,-0.42 0,-0.16 -0.07,-0.3 -0.2,-0.41 -0.13,-0.11 -0.3,-0.16 -0.51,-0.16 -0.21,0 -0.43,0.04 -0.67,0.11l-0.27 -0.82c0.56,-0.19 0.99,-0.38 1.29,-0.59 0.3,-0.21 0.45,-0.4 0.45,-0.57 0,-0.19 -0.1,-0.29 -0.31,-0.29 -0.28,0 -0.65,0.16 -1.12,0.49l-0.51 -0.76z"/>
  <path class="fil3" d="M2.84 6.6c-0.11,0.87 -0.16,1.76 -0.16,2.66 0,0.9 0.04,1.72 0.11,2.44l-1.07 -0.1c-0.04,-0.62 -0.06,-1.23 -0.06,-1.82 0,-0.59 0.02,-1.15 0.06,-1.68l-0.45 0.6 -0.6 -0.51c0.33,-0.49 0.69,-1.09 1.06,-1.8l1.1 0.21z"/>
  <path class="fil3" d="M2.13 12.75c0.42,0 0.74,0.13 0.97,0.4 0.23,0.27 0.34,0.6 0.34,1 0,0.27 -0.15,0.66 -0.45,1.17 -0.3,0.51 -0.67,1.03 -1.13,1.55 0.12,-0.04 0.36,-0.06 0.72,-0.06 0.36,0 0.64,0.02 0.84,0.06l-0.1 0.9c-0.33,-0.03 -0.6,-0.04 -0.83,-0.04 -0.61,0 -1.29,0.13 -2.04,0.38l-0.34 -0.69c0.58,-0.48 1.12,-1.07 1.62,-1.77 0.5,-0.7 0.75,-1.2 0.75,-1.49 0,-0.29 -0.12,-0.44 -0.35,-0.44 -0.19,0 -0.39,0.11 -0.59,0.33 -0.2,0.22 -0.42,0.53 -0.66,0.92l-0.8 -0.56c0.69,-1.1 1.37,-1.65 2.05,-1.65z"/>
  <path class="fil3" d="M0.29 19.86c0.32,-0.23 0.61,-0.39 0.86,-0.5 0.26,-0.1 0.55,-0.16 0.87,-0.16 0.32,0 0.6,0.11 0.84,0.33 0.24,0.22 0.36,0.52 0.36,0.91 0,0.39 -0.31,0.8 -0.92,1.23 0.53,0.28 0.8,0.65 0.8,1.12 0,0.47 -0.18,0.86 -0.53,1.16 -0.35,0.3 -0.7,0.45 -1.05,0.45 -0.35,0 -0.67,-0.06 -0.96,-0.17l-0.14 -0.88c0.19,0.06 0.41,0.09 0.68,0.09 0.27,0 0.51,-0.06 0.72,-0.18 0.21,-0.12 0.32,-0.26 0.32,-0.42 0,-0.16 -0.07,-0.3 -0.2,-0.41 -0.13,-0.11 -0.3,-0.16 -0.51,-0.16 -0.21,0 -0.43,0.04 -0.67,0.11l-0.27 -0.82c0.56,-0.19 0.99,-0.38 1.29,-0.59 0.3,-0.21 0.45,-0.4 0.45,-0.57 0,-0.19 -0.1,-0.29 -0.31,-0.29 -0.28,0 -0.65,0.16 -1.12,0.49l-0.51 -0.76z"/>
  <path class="fil3" d="M2.04 29.37c-0.19,0 -0.55,0.03 -1.09,0.1l-0.95 -0.64c0,-0.13 0.25,-0.64 0.75,-1.53 0.5,-0.89 0.9,-1.5 1.18,-1.81l1.31 0.13c-0.13,1 -0.21,1.96 -0.24,2.89l0.51 0.05 -0.11 0.84 -0.41 0c0,0.6 0.01,1.11 0.04,1.53l-0.96 -0.08c-0.03,-0.38 -0.04,-0.86 -0.04,-1.46zm-0.85 -0.83c0.27,-0.04 0.55,-0.06 0.86,-0.06 0.04,-0.7 0.1,-1.36 0.19,-1.97 -0.45,0.78 -0.8,1.45 -1.05,2.02z"/>
  <path class="fil3" d="M3 31.89l0 0.88c-0.42,0 -0.89,0.04 -1.39,0.12 -0.01,0.05 -0.06,0.42 -0.17,1.1 0.54,0 0.97,0.11 1.29,0.34 0.32,0.23 0.48,0.55 0.48,0.96 0,0.94 -0.87,1.6 -2.62,1.97l-0.22 -0.86c1.2,-0.27 1.81,-0.61 1.81,-1.03 0,-0.15 -0.08,-0.27 -0.23,-0.37 -0.16,-0.1 -0.35,-0.14 -0.57,-0.14 -0.07,0 -0.27,0.03 -0.6,0.1l-0.46 -0.37 0.45 -2.41c0.89,-0.19 1.63,-0.29 2.24,-0.29z"/>
 </g>
</svg>
