<?xml version="1.0" encoding="UTF-8"?>
<!DOCTYPE svg PUBLIC "-//W3C//DTD SVG 1.1//EN" "http://www.w3.org/Graphics/SVG/1.1/DTD/svg11.dtd">
<svg xmlns="http://www.w3.org/2000/svg" xml:space="preserve" width="3.33176in" height="1.4927in" version="1.1" style="shape-rendering:geometricPrecision; text-rendering:geometricPrecision; image-rendering:optimizeQuality; fill-rule:evenodd; clip-rule:evenodd"
viewBox="0 0 466.81 209.14"
 xmlns:xlink="http://www.w3.org/1999/xlink">
 <defs>
  <style type="text/css">
   <![CDATA[
    .fil2 {fill:none}
    .fil1 {fill:#3D3F94;fill-rule:nonzero}
    .fil0 {fill:#C51162;fill-rule:nonzero}
   ]]>
  </style>
 </defs>
 <g id="Layer_x0020_1">
  <metadata id="CorelCorpID_0Corel-Layer"/>
  <path class="fil0" d="M97.79 43.17l0 5.14c-2.49,0 -5.22,0.23 -8.17,0.7 -0.03,0.31 -0.36,2.46 -0.98,6.45 3.18,0 5.7,0.66 7.57,1.98 1.87,1.32 2.8,3.2 2.8,5.63 0,5.54 -5.12,9.4 -15.36,11.58l-1.31 -5.04c7.07,-1.56 10.6,-3.58 10.6,-6.07 0,-0.87 -0.46,-1.59 -1.38,-2.15 -0.92,-0.56 -2.03,-0.84 -3.34,-0.84 -0.4,0 -1.57,0.2 -3.5,0.61l-2.71 -2.15 2.62 -14.15c5.2,-1.12 9.59,-1.68 13.17,-1.68zm46.98 18.96c-1.65,-0.16 -3.28,-0.23 -4.88,-0.23 -1.6,0 -3.49,0.03 -5.67,0.09l0 0.61c0,3.14 0.08,6.74 0.23,10.79l-6.54 -0.42c-0.16,-4.05 -0.23,-7.5 -0.23,-10.37l0 -0.23c-0.37,0.06 -3.66,0.25 -9.85,0.56l-0.28 -5.6c4.55,-0.16 7.94,-0.36 10.18,-0.61 0.16,-4.17 0.39,-8.02 0.7,-11.54l6.54 0.56c-0.34,3.52 -0.56,7.07 -0.65,10.65 2.18,-0.06 4.17,-0.09 5.98,-0.09 1.81,0 3.52,0.08 5.14,0.23l-0.65 5.6zm28.3 1.54c0,6.73 1.43,13.06 4.3,19.01l-6.07 2.15c-3.02,-5.54 -4.53,-12.28 -4.53,-20.22 0,-4.67 0.54,-9.32 1.63,-13.96 1.09,-4.64 2.46,-8.5 4.11,-11.58l4.48 2.52c-1.12,2.62 -2.06,5.94 -2.8,9.97 -0.75,4.03 -1.12,8.07 -1.12,12.12zm19.05 -20.55c2.46,0 4.35,0.78 5.67,2.34 1.32,1.56 1.98,3.52 1.98,5.88 0,1.59 -0.87,3.88 -2.62,6.89 -1.74,3 -3.95,6.03 -6.63,9.08 0.69,-0.25 2.09,-0.37 4.23,-0.37 2.13,0 3.78,0.11 4.93,0.33l-0.56 5.28c-1.93,-0.16 -3.55,-0.23 -4.86,-0.23 -3.58,0 -7.57,0.75 -11.96,2.24l-2.01 -4.06c3.39,-2.83 6.55,-6.3 9.48,-10.41 2.93,-4.11 4.39,-7.03 4.39,-8.76 0,-1.73 -0.69,-2.59 -2.05,-2.59 -1.12,0 -2.28,0.65 -3.48,1.94 -1.2,1.29 -2.48,3.09 -3.85,5.39l-4.67 -3.27c4.05,-6.45 8.05,-9.67 12,-9.67zm53.29 19.01c-1.65,-0.16 -3.28,-0.23 -4.88,-0.23 -1.6,0 -3.49,0.03 -5.67,0.09l0 0.61c0,3.14 0.08,6.74 0.23,10.79l-6.54 -0.42c-0.16,-4.05 -0.23,-7.5 -0.23,-10.37l0 -0.23c-0.37,0.06 -3.66,0.25 -9.85,0.56l-0.28 -5.6c4.55,-0.16 7.94,-0.36 10.18,-0.61 0.16,-4.17 0.39,-8.02 0.7,-11.54l6.54 0.56c-0.34,3.52 -0.56,7.07 -0.65,10.65 2.18,-0.06 4.17,-0.09 5.98,-0.09 1.81,0 3.52,0.08 5.14,0.23l-0.65 5.6zm34.42 -17.89c-0.62,5.11 -0.93,10.31 -0.93,15.62 0,5.31 0.22,10.08 0.65,14.31l-6.26 -0.61c-0.22,-3.64 -0.33,-7.2 -0.33,-10.67 0,-3.47 0.12,-6.76 0.37,-9.88l-2.62 3.5 -3.55 -2.99c1.96,-2.86 4.03,-6.38 6.21,-10.55l6.44 1.26zm11.35 15.88c0,-6.73 -1.43,-13.06 -4.3,-19.01l6.07 -2.15c3.02,5.54 4.53,12.28 4.53,20.22 0,4.67 -0.54,9.32 -1.63,13.96 -1.09,4.64 -2.46,8.5 -4.11,11.58l-4.48 -2.52c1.12,-2.62 2.06,-5.94 2.8,-9.97 0.75,-4.03 1.12,-8.07 1.12,-12.12zm27.74 -8.45l16.63 -0.37c4.64,0 8.39,0.17 11.26,0.51l-0.84 5.6c-2.52,-0.34 -5.84,-0.51 -9.95,-0.51l-17.09 0.37 0 -5.6zm0 10.23l16.63 -0.37c4.64,0 8.39,0.17 11.26,0.51l-0.84 5.6c-2.52,-0.34 -5.84,-0.51 -9.95,-0.51l-17.09 0.37 0 -5.6zm56.3 12.98c-2.54,0 -4.72,-0.83 -6.56,-2.48 -1.84,-1.65 -2.76,-3.8 -2.76,-6.44 0,-2.65 1.25,-5.09 3.74,-7.33 -2.02,-1.87 -3.04,-4.06 -3.04,-6.59 0,-2.52 0.95,-4.75 2.85,-6.68 1.9,-1.93 4.13,-2.9 6.68,-2.9 2.55,0 4.6,0.93 6.14,2.78 1.54,1.85 2.31,3.74 2.31,5.67 0,2.99 -1.45,5.59 -4.34,7.8 1.28,0.72 2.31,1.68 3.11,2.9 0.79,1.21 1.19,2.58 1.19,4.11 0,2.24 -0.92,4.33 -2.76,6.26 -1.84,1.93 -4.02,2.9 -6.56,2.9zm0.02 -5.14c1,0 1.86,-0.31 2.59,-0.93 0.73,-0.62 1.1,-1.41 1.1,-2.36 0,-0.95 -0.25,-1.77 -0.75,-2.45 -0.5,-0.69 -1,-1.21 -1.49,-1.56 -0.5,-0.36 -1.17,-0.77 -2.01,-1.24 -2.12,1.4 -3.18,3.02 -3.18,4.86 0,1.09 0.37,1.98 1.12,2.66 0.75,0.69 1.62,1.03 2.62,1.03zm0.56 -22.14c-0.96,0 -1.81,0.38 -2.52,1.14 -0.72,0.76 -1.07,1.6 -1.07,2.5 0,0.9 0.26,1.79 0.77,2.66 0.51,0.87 1.1,1.51 1.75,1.91 1.34,-0.81 2.38,-1.59 3.13,-2.33 0.75,-0.75 1.12,-1.53 1.12,-2.36 0,-0.83 -0.29,-1.62 -0.86,-2.38 -0.58,-0.76 -1.35,-1.14 -2.31,-1.14z"/>
  <path class="fil1" d="M88.96 147.18c0,6.73 1.43,13.06 4.3,19.01l-6.07 2.15c-3.02,-5.54 -4.53,-12.28 -4.53,-20.22 0,-4.67 0.54,-9.32 1.63,-13.96 1.09,-4.64 2.46,-8.5 4.11,-11.58l4.48 2.52c-1.12,2.62 -2.06,5.94 -2.8,9.97 -0.75,4.03 -1.12,8.07 -1.12,12.12zm25.36 -20.5l0 5.14c-2.49,0 -5.22,0.23 -8.17,0.7 -0.03,0.31 -0.36,2.46 -0.98,6.45 3.18,0 5.7,0.66 7.57,1.98 1.87,1.32 2.8,3.2 2.8,5.63 0,5.54 -5.12,9.4 -15.36,11.58l-1.31 -5.04c7.07,-1.56 10.6,-3.58 10.6,-6.07 0,-0.87 -0.46,-1.59 -1.38,-2.15 -0.92,-0.56 -2.03,-0.84 -3.34,-0.84 -0.4,0 -1.57,0.2 -3.5,0.61l-2.71 -2.15 2.62 -14.15c5.2,-1.12 9.59,-1.68 13.17,-1.68zm46.98 18.96c-1.65,-0.16 -3.28,-0.23 -4.88,-0.23 -1.6,0 -3.49,0.03 -5.67,0.09l0 0.61c0,3.14 0.08,6.74 0.23,10.79l-6.54 -0.42c-0.16,-4.05 -0.23,-7.5 -0.23,-10.37l0 -0.23c-0.37,0.06 -3.66,0.25 -9.85,0.56l-0.28 -5.6c4.55,-0.16 7.94,-0.36 10.18,-0.61 0.16,-4.17 0.39,-8.02 0.7,-11.54l6.54 0.56c-0.34,3.52 -0.56,7.07 -0.65,10.65 2.18,-0.06 4.17,-0.09 5.98,-0.09 1.81,0 3.52,0.08 5.14,0.23l-0.65 5.6zm30.82 -19.01c2.46,0 4.35,0.78 5.67,2.34 1.32,1.56 1.98,3.52 1.98,5.88 0,1.59 -0.87,3.88 -2.62,6.89 -1.74,3 -3.95,6.03 -6.63,9.08 0.69,-0.25 2.09,-0.37 4.23,-0.37 2.13,0 3.78,0.11 4.93,0.33l-0.56 5.28c-1.93,-0.16 -3.55,-0.23 -4.86,-0.23 -3.58,0 -7.57,0.75 -11.96,2.24l-2.01 -4.06c3.39,-2.83 6.55,-6.3 9.48,-10.41 2.93,-4.11 4.39,-7.03 4.39,-8.76 0,-1.73 -0.69,-2.59 -2.05,-2.59 -1.12,0 -2.28,0.65 -3.48,1.94 -1.2,1.29 -2.48,3.09 -3.85,5.39l-4.67 -3.27c4.05,-6.45 8.05,-9.67 12,-9.67zm14.94 17c0,-6.73 -1.43,-13.06 -4.3,-19.01l6.07 -2.15c3.02,5.54 4.53,12.28 4.53,20.22 0,4.67 -0.54,9.32 -1.63,13.96 -1.09,4.64 -2.46,8.5 -4.11,11.58l-4.48 -2.52c1.12,-2.62 2.06,-5.94 2.8,-9.97 0.75,-4.03 1.12,-8.07 1.12,-12.12zm54.88 2.01c-1.65,-0.16 -3.28,-0.23 -4.88,-0.23 -1.6,0 -3.49,0.03 -5.67,0.09l0 0.61c0,3.14 0.08,6.74 0.23,10.79l-6.54 -0.42c-0.16,-4.05 -0.23,-7.5 -0.23,-10.37l0 -0.23c-0.37,0.06 -3.66,0.25 -9.85,0.56l-0.28 -5.6c4.55,-0.16 7.94,-0.36 10.18,-0.61 0.16,-4.17 0.39,-8.02 0.7,-11.54l6.54 0.56c-0.34,3.52 -0.56,7.07 -0.65,10.65 2.18,-0.06 4.17,-0.09 5.98,-0.09 1.81,0 3.52,0.08 5.14,0.23l-0.65 5.6zm34.42 -17.89c-0.62,5.11 -0.93,10.31 -0.93,15.62 0,5.31 0.22,10.08 0.65,14.31l-6.26 -0.61c-0.22,-3.64 -0.33,-7.2 -0.33,-10.67 0,-3.47 0.12,-6.76 0.37,-9.88l-2.62 3.5 -3.55 -2.99c1.96,-2.86 4.03,-6.38 6.21,-10.55l6.44 1.26zm22.56 7.43l16.63 -0.37c4.64,0 8.39,0.17 11.26,0.51l-0.84 5.6c-2.52,-0.34 -5.84,-0.51 -9.95,-0.51l-17.09 0.37 0 -5.6zm0 10.23l16.63 -0.37c4.64,0 8.39,0.17 11.26,0.51l-0.84 5.6c-2.52,-0.34 -5.84,-0.51 -9.95,-0.51l-17.09 0.37 0 -5.6zm56.3 12.98c-2.54,0 -4.72,-0.83 -6.56,-2.48 -1.84,-1.65 -2.76,-3.8 -2.76,-6.44 0,-2.65 1.25,-5.09 3.74,-7.33 -2.02,-1.87 -3.04,-4.06 -3.04,-6.59 0,-2.52 0.95,-4.75 2.85,-6.68 1.9,-1.93 4.13,-2.9 6.68,-2.9 2.55,0 4.6,0.93 6.14,2.78 1.54,1.85 2.31,3.74 2.31,5.67 0,2.99 -1.45,5.59 -4.34,7.8 1.28,0.72 2.31,1.68 3.11,2.9 0.79,1.21 1.19,2.58 1.19,4.11 0,2.24 -0.92,4.33 -2.76,6.26 -1.84,1.93 -4.02,2.9 -6.56,2.9zm0.02 -5.14c1,0 1.86,-0.31 2.59,-0.93 0.73,-0.62 1.1,-1.41 1.1,-2.36 0,-0.95 -0.25,-1.77 -0.75,-2.45 -0.5,-0.69 -1,-1.21 -1.49,-1.56 -0.5,-0.36 -1.17,-0.77 -2.01,-1.24 -2.12,1.4 -3.18,3.02 -3.18,4.86 0,1.09 0.37,1.98 1.12,2.66 0.75,0.69 1.62,1.03 2.62,1.03zm0.56 -22.14c-0.96,0 -1.81,0.38 -2.52,1.14 -0.72,0.76 -1.07,1.6 -1.07,2.5 0,0.9 0.26,1.79 0.77,2.66 0.51,0.87 1.1,1.51 1.75,1.91 1.34,-0.81 2.38,-1.59 3.13,-2.33 0.75,-0.75 1.12,-1.53 1.12,-2.36 0,-0.83 -0.29,-1.62 -0.86,-2.38 -0.58,-0.76 -1.35,-1.14 -2.31,-1.14z"/>
  <rect class="fil2" x="-0" y="-0" width="466.81" height="209.14"/>
 </g>
</svg>
