<?xml version="1.0" encoding="UTF-8"?>
<!DOCTYPE svg PUBLIC "-//W3C//DTD SVG 1.1//EN" "http://www.w3.org/Graphics/SVG/1.1/DTD/svg11.dtd">
<!-- Creator: CorelDRAW 2018 (64-Bit) -->
<svg xmlns="http://www.w3.org/2000/svg" xml:space="preserve" width="3.33176in" height="1.4927in" version="1.1" style="shape-rendering:geometricPrecision; text-rendering:geometricPrecision; image-rendering:optimizeQuality; fill-rule:evenodd; clip-rule:evenodd"
viewBox="0 0 400.27 179.33"
 xmlns:xlink="http://www.w3.org/1999/xlink">
 <defs>
  <style type="text/css">
   <![CDATA[
    .fil4 {fill:none}
    .fil1 {fill:#2980B9;fill-rule:nonzero}
    .fil3 {fill:#3F51B5;fill-rule:nonzero}
    .fil2 {fill:#666666;fill-rule:nonzero}
    .fil0 {fill:#A42167;fill-rule:nonzero}
   ]]>
  </style>
 </defs>
 <g id="Layer_x0020_1">
  <metadata id="CorelCorpID_0Corel-Layer"/>
  <g id="_2172500667008">
   <path class="fil0" d="M135.68 52.42l0 4.4c-2.14,0 -4.47,0.2 -7.01,0.6 -0.03,0.27 -0.31,2.11 -0.84,5.53 2.72,0 4.89,0.57 6.49,1.7 1.6,1.13 2.4,2.74 2.4,4.83 0,4.75 -4.39,8.06 -13.17,9.93l-1.12 -4.32c6.06,-1.34 9.09,-3.07 9.09,-5.21 0,-0.75 -0.39,-1.36 -1.18,-1.84 -0.79,-0.48 -1.74,-0.72 -2.86,-0.72 -0.35,0 -1.35,0.17 -3,0.52l-2.32 -1.84 2.24 -12.13c4.46,-0.96 8.22,-1.44 11.29,-1.44zm72.12 47.61l0 4.4c-2.14,0 -4.47,0.2 -7.01,0.6 -0.03,0.27 -0.31,2.11 -0.84,5.53 2.72,0 4.89,0.57 6.49,1.7 1.6,1.13 2.4,2.74 2.4,4.83 0,4.75 -4.39,8.06 -13.17,9.93l-1.12 -4.32c6.06,-1.34 9.09,-3.07 9.09,-5.21 0,-0.75 -0.39,-1.36 -1.18,-1.84 -0.79,-0.48 -1.74,-0.72 -2.86,-0.72 -0.35,0 -1.35,0.17 -3,0.52l-2.32 -1.84 2.24 -12.13c4.46,-0.96 8.22,-1.44 11.29,-1.44z"/>
   <path class="fil1" d="M279.01 52.3l1.28 4.53c-4.11,8.33 -6.74,15.69 -7.89,22.07l-4.73 -0.44c1.39,-7.29 4.04,-14.5 7.97,-21.63 -3.42,0.27 -6.31,0.56 -8.69,0.88l-0.88 -4.32c3.39,-0.45 7.7,-0.81 12.93,-1.08zm0 47.61l1.28 4.53c-4.11,8.33 -6.74,15.69 -7.89,22.07l-4.73 -0.44c1.39,-7.29 4.04,-14.5 7.97,-21.63 -3.42,0.27 -6.31,0.56 -8.69,0.88l-0.88 -4.32c3.39,-0.45 7.7,-0.81 12.93,-1.08z"/>
   <path class="fil2" d="M175.97 68.68c-1.42,-0.13 -2.81,-0.2 -4.18,-0.2 -1.37,0 -3,0.03 -4.87,0.08l0 0.52c0,2.7 0.07,5.78 0.2,9.25l-5.61 -0.36c-0.13,-3.47 -0.2,-6.43 -0.2,-8.89l0 -0.2c-0.32,0.05 -3.14,0.21 -8.45,0.48l-0.24 -4.81c3.9,-0.13 6.81,-0.31 8.73,-0.52 0.13,-3.58 0.33,-6.87 0.6,-9.89l5.61 0.48c-0.29,3.02 -0.48,6.06 -0.56,9.13 1.87,-0.05 3.58,-0.08 5.13,-0.08 1.55,0 3.02,0.07 4.4,0.2l-0.56 4.81zm48.86 -8.97l14.26 -0.32c3.98,0 7.2,0.15 9.65,0.44l-0.72 4.81c-2.16,-0.29 -5.01,-0.44 -8.53,-0.44l-14.66 0.32 0 -4.81zm0 8.77l14.26 -0.32c3.98,0 7.2,0.15 9.65,0.44l-0.72 4.81c-2.16,-0.29 -5.01,-0.44 -8.53,-0.44l-14.66 0.32 0 -4.81zm-48.86 47.81c-1.42,-0.13 -2.81,-0.2 -4.18,-0.2 -1.37,0 -3,0.03 -4.87,0.08l0 0.52c0,2.7 0.07,5.78 0.2,9.25l-5.61 -0.36c-0.13,-3.47 -0.2,-6.43 -0.2,-8.89l0 -0.2c-0.32,0.05 -3.14,0.21 -8.45,0.48l-0.24 -4.81c3.9,-0.13 6.81,-0.31 8.73,-0.52 0.13,-3.58 0.33,-6.87 0.6,-9.89l5.61 0.48c-0.29,3.02 -0.48,6.06 -0.56,9.13 1.87,-0.05 3.58,-0.08 5.13,-0.08 1.55,0 3.02,0.07 4.4,0.2l-0.56 4.81zm48.86 -8.97l14.26 -0.32c3.98,0 7.2,0.15 9.65,0.44l-0.72 4.81c-2.16,-0.29 -5.01,-0.44 -8.53,-0.44l-14.66 0.32 0 -4.81zm0 8.77l14.26 -0.32c3.98,0 7.2,0.15 9.65,0.44l-0.72 4.81c-2.16,-0.29 -5.01,-0.44 -8.53,-0.44l-14.66 0.32 0 -4.81z"/>
   <path class="fil3" d="M202.4 52.38c2.11,0 3.73,0.67 4.87,2 1.13,1.33 1.7,3.02 1.7,5.05 0,1.36 -0.75,3.33 -2.24,5.91 -1.5,2.58 -3.39,5.17 -5.69,7.79 0.59,-0.21 1.8,-0.32 3.62,-0.32 1.83,0 3.24,0.09 4.23,0.28l-0.48 4.53c-1.66,-0.13 -3.04,-0.2 -4.17,-0.2 -3.07,0 -6.49,0.64 -10.25,1.92l-1.72 -3.48c2.91,-2.43 5.62,-5.41 8.13,-8.93 2.51,-3.52 3.76,-6.03 3.76,-7.51 0,-1.48 -0.59,-2.22 -1.76,-2.22 -0.96,0 -1.96,0.55 -2.98,1.66 -1.03,1.11 -2.13,2.65 -3.3,4.63l-4 -2.8c3.47,-5.53 6.9,-8.29 10.29,-8.29zm-72.12 47.61c2.11,0 3.73,0.67 4.87,2 1.13,1.33 1.7,3.02 1.7,5.05 0,1.36 -0.75,3.33 -2.24,5.91 -1.5,2.58 -3.39,5.17 -5.69,7.79 0.59,-0.21 1.8,-0.32 3.62,-0.32 1.83,0 3.24,0.09 4.23,0.28l-0.48 4.53c-1.66,-0.13 -3.04,-0.2 -4.17,-0.2 -3.07,0 -6.49,0.64 -10.25,1.92l-1.72 -3.48c2.91,-2.43 5.62,-5.41 8.13,-8.93 2.51,-3.52 3.76,-6.03 3.76,-7.51 0,-1.48 -0.59,-2.22 -1.76,-2.22 -0.96,0 -1.96,0.55 -2.98,1.66 -1.03,1.11 -2.13,2.65 -3.3,4.63l-4 -2.8c3.47,-5.53 6.9,-8.29 10.29,-8.29z"/>
  </g>
  <rect class="fil4" x="-0" y="-0" width="400.27" height="179.33"/>
 </g>
</svg>
