<?xml version="1.0" encoding="UTF-8"?>
<!DOCTYPE svg PUBLIC "-//W3C//DTD SVG 1.1//EN" "http://www.w3.org/Graphics/SVG/1.1/DTD/svg11.dtd">
<!-- Creator: CorelDRAW 2018 (64-Bit) -->
<svg xmlns="http://www.w3.org/2000/svg" xml:space="preserve" width="3.33176in" height="1.4927in" version="1.1" style="shape-rendering:geometricPrecision; text-rendering:geometricPrecision; image-rendering:optimizeQuality; fill-rule:evenodd; clip-rule:evenodd"
viewBox="0 0 401.93 180.07"
 xmlns:xlink="http://www.w3.org/1999/xlink">
 <defs>
  <style type="text/css">
   <![CDATA[
    .fil5 {fill:none}
    .fil0 {fill:#2980B9;fill-rule:nonzero}
    .fil2 {fill:#3498DB;fill-rule:nonzero}
    .fil1 {fill:#666666;fill-rule:nonzero}
    .fil4 {fill:#A42167;fill-rule:nonzero}
    .fil3 {fill:#C0392B;fill-rule:nonzero}
   ]]>
  </style>
 </defs>
 <g id="Layer_x0020_1">
  <metadata id="CorelCorpID_0Corel-Layer"/>
  <path class="fil0" d="M130.11 52.06c2.12,0 3.75,0.67 4.89,2.01 1.14,1.34 1.71,3.03 1.71,5.07 0,1.37 -0.75,3.34 -2.25,5.93 -1.5,2.59 -3.4,5.19 -5.71,7.82 0.59,-0.21 1.8,-0.32 3.64,-0.32 1.84,0 3.25,0.09 4.24,0.28l-0.48 4.54c-1.66,-0.13 -3.06,-0.2 -4.18,-0.2 -3.08,0 -6.51,0.64 -10.29,1.93l-1.73 -3.5c2.92,-2.44 5.64,-5.43 8.16,-8.97 2.52,-3.54 3.78,-6.05 3.78,-7.54 0,-1.49 -0.59,-2.23 -1.77,-2.23 -0.97,0 -1.96,0.56 -3,1.67 -1.03,1.11 -2.14,2.66 -3.32,4.64l-4.02 -2.81c3.49,-5.55 6.93,-8.32 10.33,-8.32zm144.84 0c2.12,0 3.75,0.67 4.89,2.01 1.14,1.34 1.71,3.03 1.71,5.07 0,1.37 -0.75,3.34 -2.25,5.93 -1.5,2.59 -3.4,5.19 -5.71,7.82 0.59,-0.21 1.8,-0.32 3.64,-0.32 1.84,0 3.25,0.09 4.24,0.28l-0.48 4.54c-1.66,-0.13 -3.06,-0.2 -4.18,-0.2 -3.08,0 -6.51,0.64 -10.29,1.93l-1.73 -3.5c2.92,-2.44 5.64,-5.43 8.16,-8.97 2.52,-3.54 3.78,-6.05 3.78,-7.54 0,-1.49 -0.59,-2.23 -1.77,-2.23 -0.97,0 -1.96,0.56 -3,1.67 -1.03,1.11 -2.14,2.66 -3.32,4.64l-4.02 -2.81c3.49,-5.55 6.93,-8.32 10.33,-8.32z"/>
  <path class="fil1" d="M153.4 74.21c3.97,-4.21 6.57,-6.96 7.8,-8.24 -3.65,-3.65 -6.42,-6.61 -8.32,-8.89l3.86 -2.49c2.09,2.41 4.66,5.12 7.72,8.12 3.46,-3.43 6.53,-6.17 9.21,-8.2l2.9 3.9c-2.65,1.98 -5.54,4.53 -8.65,7.64 3.86,3.7 6.67,6.46 8.44,8.28l-3.42 3.42c-1.85,-2.01 -4.61,-4.81 -8.28,-8.4 -4.15,4.29 -6.9,7.05 -8.24,8.28l-3.02 -3.42zm71.66 -14.8l14.32 -0.32c3.99,0 7.22,0.15 9.69,0.44l-0.72 4.83c-2.17,-0.29 -5.03,-0.44 -8.57,-0.44l-14.72 0.32 0 -4.83zm0 8.81l14.32 -0.32c3.99,0 7.22,0.15 9.69,0.44l-0.72 4.83c-2.17,-0.29 -5.03,-0.44 -8.57,-0.44l-14.72 0.32 0 -4.83zm-71.66 53.8c3.97,-4.21 6.57,-6.96 7.8,-8.24 -3.65,-3.65 -6.42,-6.61 -8.32,-8.89l3.86 -2.49c2.09,2.41 4.66,5.12 7.72,8.12 3.46,-3.43 6.53,-6.17 9.21,-8.2l2.9 3.9c-2.65,1.98 -5.54,4.53 -8.65,7.64 3.86,3.7 6.67,6.46 8.44,8.28l-3.42 3.42c-1.85,-2.01 -4.61,-4.81 -8.28,-8.4 -4.15,4.29 -6.9,7.05 -8.24,8.28l-3.02 -3.42zm71.66 -14.8l14.32 -0.32c3.99,0 7.22,0.15 9.69,0.44l-0.72 4.83c-2.17,-0.29 -5.03,-0.44 -8.57,-0.44l-14.72 0.32 0 -4.83zm0 8.81l14.32 -0.32c3.99,0 7.22,0.15 9.69,0.44l-0.72 4.83c-2.17,-0.29 -5.03,-0.44 -8.57,-0.44l-14.72 0.32 0 -4.83z"/>
  <path class="fil2" d="M205.63 53.02c-0.54,4.4 -0.8,8.88 -0.8,13.45 0,4.57 0.19,8.68 0.56,12.32l-5.39 -0.52c-0.19,-3.14 -0.28,-6.2 -0.28,-9.19 0,-2.99 0.11,-5.82 0.32,-8.5l-2.25 3.02 -3.06 -2.57c1.69,-2.47 3.47,-5.5 5.35,-9.09l5.55 1.09z"/>
  <path class="fil3" d="M133.21 100.83c-0.54,4.4 -0.8,8.88 -0.8,13.45 0,4.57 0.19,8.68 0.56,12.32l-5.39 -0.52c-0.19,-3.14 -0.28,-6.2 -0.28,-9.19 0,-2.99 0.11,-5.82 0.32,-8.5l-2.25 3.02 -3.06 -2.57c1.69,-2.47 3.47,-5.5 5.35,-9.09l5.55 1.09z"/>
  <path class="fil4" d="M202.94 110.28c1.66,0 3.12,0.6 4.38,1.81 1.26,1.21 1.89,3.06 1.89,5.55 0,2.49 -0.8,4.7 -2.39,6.62 -1.6,1.92 -3.55,2.88 -5.85,2.88 -2.31,0 -4.15,-0.93 -5.53,-2.77 -1.38,-1.85 -2.07,-4.29 -2.07,-7.32 0,-3.38 0.7,-6.46 2.09,-9.25 0.75,-1.53 1.44,-2.8 2.07,-3.82 0.63,-1.02 1.55,-2.41 2.75,-4.18l6.19 0.52c-3.62,3.78 -6.03,7.36 -7.24,10.74 1.29,-0.51 2.52,-0.76 3.7,-0.76zm-4.5 5.63l-0.04 1.13c0,1.69 0.25,3.06 0.76,4.1 0.51,1.05 1.17,1.57 1.99,1.57 0.82,0 1.53,-0.46 2.13,-1.37 0.6,-0.91 0.9,-1.96 0.9,-3.16 0,-1.19 -0.22,-2.07 -0.66,-2.63 -0.44,-0.56 -1.04,-0.84 -1.79,-0.84 -0.75,0 -1.85,0.4 -3.3,1.21zm76.93 -5.63c1.66,0 3.12,0.6 4.38,1.81 1.26,1.21 1.89,3.06 1.89,5.55 0,2.49 -0.8,4.7 -2.39,6.62 -1.6,1.92 -3.55,2.88 -5.85,2.88 -2.31,0 -4.15,-0.93 -5.53,-2.77 -1.38,-1.85 -2.07,-4.29 -2.07,-7.32 0,-3.38 0.7,-6.46 2.09,-9.25 0.75,-1.53 1.44,-2.8 2.07,-3.82 0.63,-1.02 1.55,-2.41 2.75,-4.18l6.19 0.52c-3.62,3.78 -6.03,7.36 -7.24,10.74 1.29,-0.51 2.52,-0.76 3.7,-0.76zm-4.5 5.63l-0.04 1.13c0,1.69 0.25,3.06 0.76,4.1 0.51,1.05 1.17,1.57 1.99,1.57 0.82,0 1.53,-0.46 2.13,-1.37 0.6,-0.91 0.9,-1.96 0.9,-3.16 0,-1.19 -0.22,-2.07 -0.66,-2.63 -0.44,-0.56 -1.04,-0.84 -1.79,-0.84 -0.75,0 -1.85,0.4 -3.3,1.21z"/>
  <rect class="fil5" x="-0" y="-0" width="401.93" height="180.07"/>
 </g>
</svg>
