<?xml version="1.0" encoding="UTF-8"?>
<!DOCTYPE svg PUBLIC "-//W3C//DTD SVG 1.1//EN" "http://www.w3.org/Graphics/SVG/1.1/DTD/svg11.dtd">
<!-- Creator: CorelDRAW 2018 (64-Bit) -->
<svg xmlns="http://www.w3.org/2000/svg" xml:space="preserve" width="3.33176in" height="1.4927in" version="1.1" style="shape-rendering:geometricPrecision; text-rendering:geometricPrecision; image-rendering:optimizeQuality; fill-rule:evenodd; clip-rule:evenodd"
viewBox="0 0 405.8 181.81"
 xmlns:xlink="http://www.w3.org/1999/xlink">
 <defs>
  <style type="text/css">
   <![CDATA[
    .fil0 {fill:none}
    .fil1 {fill:#B71C1C;fill-rule:nonzero}
   ]]>
  </style>
 </defs>
 <g id="Layer_x0020_1">
  <metadata id="CorelCorpID_0Corel-Layer"/>
  <rect class="fil0" x="-0" y="-0" width="405.8" height="181.81"/>
  <path class="fil1" d="M141.56 96.91c-0.95,0 -2.8,0.16 -5.56,0.49l-4.83 -3.29c0,-0.65 1.28,-3.25 3.84,-7.82 2.56,-4.56 4.57,-7.64 6.03,-9.24l6.7 0.65c-0.65,5.09 -1.06,10 -1.22,14.74l2.6 0.24 -0.57 4.26 -2.11 0c0,3.09 0.07,5.68 0.2,7.8l-4.87 -0.41c-0.14,-1.92 -0.2,-4.4 -0.2,-7.43zm-4.34 -4.22c1.35,-0.19 2.81,-0.28 4.38,-0.28 0.19,-3.57 0.51,-6.92 0.97,-10.03 -2.3,3.98 -4.09,7.42 -5.36,10.31zm24.12 -0.28l7.88 -0.37c0.81,0 1.56,0.04 2.23,0.12l0.16 4.38c-0.81,-0.08 -1.61,-0.12 -2.4,-0.12l-7.39 0.37 -0.49 -4.38zm32.68 4.51c-0.95,0 -2.8,0.16 -5.56,0.49l-4.83 -3.29c0,-0.65 1.28,-3.25 3.84,-7.82 2.56,-4.56 4.57,-7.64 6.03,-9.24l6.7 0.65c-0.65,5.09 -1.06,10 -1.22,14.74l2.6 0.24 -0.57 4.26 -2.11 0c0,3.09 0.07,5.68 0.2,7.8l-4.87 -0.41c-0.14,-1.92 -0.2,-4.4 -0.2,-7.43zm-4.34 -4.22c1.35,-0.19 2.81,-0.28 4.38,-0.28 0.19,-3.57 0.51,-6.92 0.97,-10.03 -2.3,3.98 -4.09,7.42 -5.36,10.31zm27.73 -8l14.45 -0.33c4.03,0 7.29,0.15 9.78,0.45l-0.73 4.87c-2.19,-0.3 -5.07,-0.45 -8.65,-0.45l-14.86 0.33 0 -4.87zm0 8.89l14.45 -0.33c4.03,0 7.29,0.15 9.78,0.45l-0.73 4.87c-2.19,-0.3 -5.07,-0.45 -8.65,-0.45l-14.86 0.33 0 -4.87zm49.08 -11.69c-0.95,0 -1.72,1.18 -2.31,3.53 -0.6,2.35 -0.89,4.74 -0.89,7.17 0,2.42 0.28,4.23 0.83,5.42 0.56,1.19 1.31,1.79 2.25,1.79 0.73,0 1.41,-0.94 2.05,-2.82 0.64,-1.88 0.95,-4 0.95,-6.35 0,-5.82 -0.96,-8.73 -2.88,-8.73zm-8.49 11.41c0,-2.57 0.32,-5.04 0.95,-7.41 0.64,-2.37 1.62,-4.37 2.94,-6.01 1.33,-1.64 2.9,-2.46 4.71,-2.46 1.81,0 3.34,0.61 4.59,1.83 2.3,2.3 3.45,6.09 3.45,11.37 0,2.3 -0.41,4.51 -1.22,6.64 -0.81,2.12 -1.85,3.82 -3.13,5.1 -1.27,1.27 -2.58,1.91 -3.94,1.91 -2.6,0 -4.64,-1 -6.13,-3 -1.49,-2 -2.23,-4.66 -2.23,-7.96z"/>
 </g>
</svg>
