<?xml version="1.0" encoding="UTF-8"?>
<!DOCTYPE svg PUBLIC "-//W3C//DTD SVG 1.1//EN" "http://www.w3.org/Graphics/SVG/1.1/DTD/svg11.dtd">
<!-- Creator: CorelDRAW 2018 (64-Bit) -->
<svg xmlns="http://www.w3.org/2000/svg" xml:space="preserve" width="1.46167in" height="1.02398in" version="1.1" style="shape-rendering:geometricPrecision; text-rendering:geometricPrecision; image-rendering:optimizeQuality; fill-rule:evenodd; clip-rule:evenodd"
viewBox="0 0 51.89 36.35"
 xmlns:xlink="http://www.w3.org/1999/xlink">
 <defs>
  <style type="text/css">
   <![CDATA[
    .str0 {stroke:#3F51B5;stroke-width:0.47;stroke-miterlimit:2.61313}
    .fil2 {fill:#3498DB}
    .fil0 {fill:#3498DB;fill-rule:nonzero}
    .fil1 {fill:#3F51B5;fill-rule:nonzero}
   ]]>
  </style>
 </defs>
 <g id="Layer_x0020_1">
  <metadata id="CorelCorpID_0Corel-Layer"/>
  <path class="fil0" d="M4.09 9.88c-0.16,1.29 -0.24,2.61 -0.24,3.96 0,1.34 0.06,2.55 0.17,3.63l-1.59 -0.15c-0.06,-0.92 -0.08,-1.82 -0.08,-2.7 0,-0.88 0.03,-1.71 0.09,-2.5l-0.66 0.89 -0.9 -0.76c0.5,-0.73 1.02,-1.62 1.57,-2.67l1.63 0.32z"/>
  <path class="fil0" d="M3.04 19.02c0.62,0 1.1,0.2 1.44,0.59 0.34,0.39 0.5,0.89 0.5,1.49 0,0.4 -0.22,0.98 -0.66,1.75 -0.44,0.76 -1,1.53 -1.68,2.3 0.17,-0.06 0.53,-0.09 1.07,-0.09 0.54,0 0.96,0.03 1.25,0.08l-0.14 1.34c-0.49,-0.04 -0.9,-0.06 -1.23,-0.06 -0.91,0 -1.92,0.19 -3.03,0.57l-0.51 -1.03c0.86,-0.72 1.66,-1.6 2.4,-2.64 0.74,-1.04 1.11,-1.78 1.11,-2.22 0,-0.44 -0.17,-0.66 -0.52,-0.66 -0.28,0 -0.58,0.16 -0.88,0.49 -0.3,0.33 -0.63,0.78 -0.98,1.37l-1.18 -0.83c1.03,-1.63 2.04,-2.45 3.04,-2.45z"/>
  <path class="fil0" d="M0.31 29.59c0.47,-0.34 0.9,-0.59 1.28,-0.74 0.38,-0.15 0.81,-0.23 1.3,-0.23 0.48,0 0.9,0.16 1.25,0.49 0.35,0.32 0.53,0.78 0.53,1.35 0,0.58 -0.46,1.19 -1.37,1.83 0.79,0.41 1.18,0.96 1.18,1.66 0,0.7 -0.26,1.27 -0.78,1.72 -0.52,0.45 -1.04,0.67 -1.56,0.67 -0.52,0 -1,-0.08 -1.43,-0.25l-0.21 -1.3c0.28,0.09 0.62,0.13 1.02,0.13 0.4,0 0.76,-0.09 1.08,-0.27 0.32,-0.18 0.47,-0.39 0.47,-0.63 0,-0.24 -0.1,-0.44 -0.3,-0.6 -0.2,-0.16 -0.45,-0.24 -0.76,-0.24 -0.31,0 -0.64,0.06 -0.99,0.17l-0.4 -1.22c0.83,-0.28 1.47,-0.57 1.91,-0.88 0.45,-0.31 0.67,-0.59 0.67,-0.85 0,-0.28 -0.15,-0.43 -0.46,-0.43 -0.41,0 -0.97,0.24 -1.67,0.73l-0.76 -1.12z"/>
  <path class="fil1" d="M12.38 0.4c-0.16,1.29 -0.24,2.61 -0.24,3.96 0,1.34 0.06,2.55 0.17,3.63l-1.59 -0.15c-0.06,-0.92 -0.08,-1.82 -0.08,-2.7 0,-0.88 0.03,-1.71 0.09,-2.5l-0.66 0.89 -0.9 -0.76c0.5,-0.73 1.02,-1.62 1.57,-2.67l1.63 0.32z"/>
  <path class="fil1" d="M20.82 0.05c0.62,0 1.1,0.2 1.44,0.59 0.34,0.39 0.5,0.89 0.5,1.49 0,0.4 -0.22,0.98 -0.66,1.75 -0.44,0.76 -1,1.53 -1.68,2.3 0.17,-0.06 0.53,-0.09 1.07,-0.09 0.54,0 0.96,0.03 1.25,0.08l-0.14 1.34c-0.49,-0.04 -0.9,-0.06 -1.23,-0.06 -0.91,0 -1.92,0.19 -3.03,0.57l-0.51 -1.03c0.86,-0.72 1.66,-1.6 2.4,-2.64 0.74,-1.04 1.11,-1.78 1.11,-2.22 0,-0.44 -0.17,-0.66 -0.52,-0.66 -0.28,0 -0.58,0.16 -0.88,0.49 -0.3,0.33 -0.63,0.78 -0.98,1.37l-1.18 -0.83c1.03,-1.63 2.04,-2.45 3.04,-2.45z"/>
  <path class="fil1" d="M27.57 1.14c0.47,-0.34 0.9,-0.59 1.28,-0.74 0.38,-0.15 0.81,-0.23 1.3,-0.23 0.48,0 0.9,0.16 1.25,0.49 0.35,0.32 0.53,0.78 0.53,1.35 0,0.58 -0.46,1.19 -1.37,1.83 0.79,0.41 1.18,0.96 1.18,1.66 0,0.7 -0.26,1.27 -0.78,1.72 -0.52,0.45 -1.04,0.67 -1.56,0.67 -0.52,0 -1,-0.08 -1.43,-0.25l-0.21 -1.3c0.28,0.09 0.62,0.13 1.02,0.13 0.4,0 0.76,-0.09 1.08,-0.27 0.32,-0.18 0.47,-0.39 0.47,-0.63 0,-0.24 -0.1,-0.44 -0.3,-0.6 -0.2,-0.16 -0.45,-0.24 -0.76,-0.24 -0.31,0 -0.64,0.06 -0.99,0.17l-0.4 -1.22c0.83,-0.28 1.47,-0.57 1.91,-0.88 0.45,-0.31 0.67,-0.59 0.67,-0.85 0,-0.28 -0.15,-0.43 -0.46,-0.43 -0.41,0 -0.97,0.24 -1.67,0.73l-0.76 -1.12z"/>
  <path class="fil1" d="M39.66 5.79c-0.28,0 -0.82,0.05 -1.62,0.14l-1.41 -0.96c0,-0.19 0.37,-0.95 1.12,-2.28 0.75,-1.33 1.33,-2.23 1.76,-2.69l1.95 0.19c-0.19,1.48 -0.31,2.91 -0.35,4.3l0.76 0.07 -0.17 1.24 -0.62 0c0,0.9 0.02,1.66 0.06,2.27l-1.42 -0.12c-0.04,-0.56 -0.06,-1.28 -0.06,-2.17zm-1.27 -1.23c0.39,-0.06 0.82,-0.08 1.28,-0.08 0.06,-1.04 0.15,-2.02 0.28,-2.92 -0.67,1.16 -1.19,2.16 -1.56,3.01z"/>
  <path class="fil1" d="M50.58 0.05l0 1.3c-0.63,0 -1.32,0.06 -2.07,0.18 -0.01,0.08 -0.09,0.62 -0.25,1.63 0.8,0 1.44,0.17 1.92,0.5 0.47,0.34 0.71,0.81 0.71,1.43 0,1.4 -1.3,2.38 -3.89,2.93l-0.33 -1.28c1.79,-0.39 2.69,-0.91 2.69,-1.54 0,-0.22 -0.12,-0.4 -0.35,-0.54 -0.23,-0.14 -0.51,-0.21 -0.85,-0.21 -0.1,0 -0.4,0.05 -0.89,0.15l-0.69 -0.54 0.66 -3.59c1.32,-0.28 2.43,-0.43 3.34,-0.43z"/>
  <rect class="fil2 str0" x="7.62" y="10.5" width="6.16" height="6.15"/>
  <rect class="fil2 str0" x="17.09" y="10.5" width="6.16" height="6.15"/>
  <rect class="fil2 str0" x="7.62" y="19.96" width="6.16" height="6.15"/>
  <rect class="fil2 str0" x="17.09" y="19.96" width="6.16" height="6.15"/>
  <rect class="fil2 str0" x="7.62" y="29.43" width="6.16" height="6.15"/>
  <rect class="fil2 str0" x="17.09" y="29.43" width="6.16" height="6.15"/>
  <rect class="fil2 str0" x="26.55" y="10.5" width="6.16" height="6.15"/>
  <rect class="fil2 str0" x="26.55" y="19.96" width="6.16" height="6.15"/>
  <rect class="fil2 str0" x="26.55" y="29.43" width="6.16" height="6.15"/>
  <rect class="fil2 str0" x="36.02" y="10.5" width="6.16" height="6.15"/>
  <rect class="fil2 str0" x="36.02" y="19.96" width="6.16" height="6.15"/>
  <rect class="fil2 str0" x="36.02" y="29.43" width="6.16" height="6.15"/>
  <rect class="fil2 str0" x="45.49" y="10.5" width="6.16" height="6.15"/>
  <rect class="fil2 str0" x="45.49" y="19.96" width="6.16" height="6.15"/>
  <rect class="fil2 str0" x="45.49" y="29.43" width="6.16" height="6.15"/>
 </g>
</svg>
