<?xml version="1.0" encoding="UTF-8"?>
<!DOCTYPE svg PUBLIC "-//W3C//DTD SVG 1.1//EN" "http://www.w3.org/Graphics/SVG/1.1/DTD/svg11.dtd">
<!-- Creator: CorelDRAW 2018 (64-Bit) -->
<svg xmlns="http://www.w3.org/2000/svg" xml:space="preserve" width="1.89333in" height="0.632004in" version="1.1" style="shape-rendering:geometricPrecision; text-rendering:geometricPrecision; image-rendering:optimizeQuality; fill-rule:evenodd; clip-rule:evenodd"
viewBox="0 0 123.69 41.29"
 xmlns:xlink="http://www.w3.org/1999/xlink">
 <defs>
  <style type="text/css">
   <![CDATA[
    .fil2 {fill:none}
    .fil1 {fill:#3D3F94;fill-rule:nonzero}
    .fil0 {fill:#C51162;fill-rule:nonzero}
   ]]>
  </style>
 </defs>
 <g id="Layer_x0020_1">
  <metadata id="CorelCorpID_0Corel-Layer"/>
  <path class="fil0" d="M26.21 0.72l0 2.4c-1.16,0 -2.43,0.11 -3.81,0.33 -0.01,0.15 -0.17,1.15 -0.46,3.01 1.48,0 2.66,0.31 3.53,0.93 0.87,0.62 1.31,1.49 1.31,2.62 0,2.58 -2.39,4.38 -7.16,5.4l-0.61 -2.35c3.3,-0.73 4.94,-1.67 4.94,-2.83 0,-0.41 -0.21,-0.74 -0.64,-1 -0.43,-0.26 -0.95,-0.39 -1.56,-0.39 -0.19,0 -0.73,0.09 -1.63,0.28l-1.26 -1 1.22 -6.6c2.42,-0.52 4.47,-0.78 6.14,-0.78zm21.91 8.84c-0.77,-0.07 -1.53,-0.11 -2.28,-0.11 -0.75,0 -1.63,0.01 -2.65,0.04l0 0.28c0,1.47 0.04,3.14 0.11,5.03l-3.05 -0.2c-0.07,-1.89 -0.11,-3.5 -0.11,-4.83l0 -0.11c-0.17,0.03 -1.71,0.12 -4.59,0.26l-0.13 -2.61c2.12,-0.07 3.7,-0.17 4.75,-0.28 0.07,-1.95 0.18,-3.74 0.33,-5.38l3.05 0.26c-0.16,1.64 -0.26,3.3 -0.3,4.97 1.02,-0.03 1.95,-0.04 2.79,-0.04 0.84,0 1.64,0.04 2.4,0.11l-0.3 2.61zm14.37 -8.86c1.15,0 2.03,0.36 2.65,1.09 0.62,0.73 0.93,1.64 0.93,2.74 0,0.74 -0.41,1.81 -1.22,3.21 -0.81,1.4 -1.84,2.81 -3.09,4.24 0.32,-0.12 0.98,-0.17 1.97,-0.17 0.99,0 1.76,0.05 2.3,0.15l-0.26 2.46c-0.9,-0.07 -1.66,-0.11 -2.26,-0.11 -1.67,0 -3.53,0.35 -5.57,1.05l-0.94 -1.89c1.58,-1.32 3.06,-2.94 4.42,-4.86 1.36,-1.92 2.05,-3.28 2.05,-4.08 0,-0.81 -0.32,-1.21 -0.96,-1.21 -0.52,0 -1.06,0.3 -1.62,0.9 -0.56,0.6 -1.16,1.44 -1.8,2.52l-2.18 -1.52c1.89,-3.01 3.75,-4.51 5.6,-4.51zm12.19 3.99l7.75 -0.17c2.16,0 3.91,0.08 5.25,0.24l-0.39 2.61c-1.18,-0.16 -2.72,-0.24 -4.64,-0.24l-7.97 0.17 0 -2.61zm0 4.77l7.75 -0.17c2.16,0 3.91,0.08 5.25,0.24l-0.39 2.61c-1.18,-0.16 -2.72,-0.24 -4.64,-0.24l-7.97 0.17 0 -2.61zm29.46 -8.8l0.7 2.46c-2.24,4.53 -3.67,8.53 -4.29,12l-2.57 -0.24c0.75,-3.96 2.2,-7.88 4.33,-11.76 -1.86,0.15 -3.43,0.31 -4.73,0.48l-0.48 -2.35c1.84,-0.25 4.19,-0.44 7.03,-0.59z"/>
  <path class="fil1" d="M23.27 26.59c1.15,0 2.03,0.36 2.65,1.09 0.62,0.73 0.93,1.64 0.93,2.74 0,0.74 -0.41,1.81 -1.22,3.21 -0.81,1.4 -1.84,2.81 -3.09,4.24 0.32,-0.12 0.98,-0.17 1.97,-0.17 0.99,0 1.76,0.05 2.3,0.15l-0.26 2.46c-0.9,-0.07 -1.66,-0.11 -2.26,-0.11 -1.67,0 -3.53,0.35 -5.57,1.05l-0.94 -1.89c1.58,-1.32 3.06,-2.94 4.42,-4.86 1.36,-1.92 2.05,-3.28 2.05,-4.08 0,-0.81 -0.32,-1.21 -0.96,-1.21 -0.52,0 -1.06,0.3 -1.62,0.9 -0.56,0.6 -1.16,1.44 -1.8,2.52l-2.18 -1.52c1.89,-3.01 3.75,-4.51 5.6,-4.51zm24.85 8.86c-0.77,-0.07 -1.53,-0.11 -2.28,-0.11 -0.75,0 -1.63,0.01 -2.65,0.04l0 0.28c0,1.47 0.04,3.14 0.11,5.03l-3.05 -0.2c-0.07,-1.89 -0.11,-3.5 -0.11,-4.83l0 -0.11c-0.17,0.03 -1.71,0.12 -4.59,0.26l-0.13 -2.61c2.12,-0.07 3.7,-0.17 4.75,-0.28 0.07,-1.95 0.18,-3.74 0.33,-5.38l3.05 0.26c-0.16,1.64 -0.26,3.3 -0.3,4.97 1.02,-0.03 1.95,-0.04 2.79,-0.04 0.84,0 1.64,0.04 2.4,0.11l-0.3 2.61zm17.31 -8.84l0 2.4c-1.16,0 -2.43,0.11 -3.81,0.33 -0.01,0.15 -0.17,1.15 -0.46,3.01 1.48,0 2.66,0.31 3.53,0.93 0.87,0.62 1.31,1.49 1.31,2.62 0,2.58 -2.39,4.38 -7.16,5.4l-0.61 -2.35c3.3,-0.73 4.94,-1.67 4.94,-2.83 0,-0.41 -0.21,-0.74 -0.64,-1 -0.43,-0.26 -0.95,-0.39 -1.56,-0.39 -0.19,0 -0.73,0.09 -1.63,0.28l-1.26 -1 1.22 -6.6c2.42,-0.52 4.47,-0.78 6.14,-0.78zm9.25 3.96l7.75 -0.17c2.16,0 3.91,0.08 5.25,0.24l-0.39 2.61c-1.18,-0.16 -2.72,-0.24 -4.64,-0.24l-7.97 0.17 0 -2.61zm0 4.77l7.75 -0.17c2.16,0 3.91,0.08 5.25,0.24l-0.39 2.61c-1.18,-0.16 -2.72,-0.24 -4.64,-0.24l-7.97 0.17 0 -2.61zm29.46 -8.8l0.7 2.46c-2.24,4.53 -3.67,8.53 -4.29,12l-2.57 -0.24c0.75,-3.96 2.2,-7.88 4.33,-11.76 -1.86,0.15 -3.43,0.31 -4.73,0.48l-0.48 -2.35c1.84,-0.25 4.19,-0.44 7.03,-0.59z"/>
  <rect class="fil2" y="0" width="123.69" height="40.68"/>
 </g>
</svg>
