<?xml version="1.0" encoding="UTF-8"?>
<!DOCTYPE svg PUBLIC "-//W3C//DTD SVG 1.1//EN" "http://www.w3.org/Graphics/SVG/1.1/DTD/svg11.dtd">
<svg xmlns="http://www.w3.org/2000/svg" xml:space="preserve" width="1.70822in" height="0.958728in" version="1.1" style="shape-rendering:geometricPrecision; text-rendering:geometricPrecision; image-rendering:optimizeQuality; fill-rule:evenodd; clip-rule:evenodd"
viewBox="0 0 82.53 46.32"
 xmlns:xlink="http://www.w3.org/1999/xlink">
 <defs>
  <style type="text/css">
   <![CDATA[
    .str2 {stroke:#00A859;stroke-width:0.38;stroke-miterlimit:2.61313}
    .str1 {stroke:#0AA79C;stroke-width:0.38;stroke-miterlimit:2.61313}
    .str0 {stroke:#3F51B5;stroke-width:0.38;stroke-miterlimit:2.61313}
    .str3 {stroke:#F1C40F;stroke-width:0.38;stroke-miterlimit:2.61313}
    .fil4 {fill:#00A859}
    .fil3 {fill:#0AA79C}
    .fil1 {fill:#3F51B5}
    .fil5 {fill:#F1C40F}
    .fil2 {fill:white}
    .fil0 {fill:#C0392B;fill-rule:nonzero}
   ]]>
  </style>
 </defs>
 <g id="Layer_x0020_1">
  <metadata id="CorelCorpID_0Corel-Layer"/>
  <path class="fil0" d="M36.68 22.23l0 -1.19 8.09 0 0 1.19 -8.09 0zm0 3.56l0 -1.19 8.09 0 0 1.19 -8.09 0z"/>
  <path class="fil1 str0" d="M7.95 4.84c-0.54,0 -2.85,0.05 -4.34,2.3l0 -2.3c0,-1.41 -1.15,-2.56 -2.56,-2.56 -0.47,0 -0.85,0.38 -0.85,0.85 0,0.47 0.38,0.85 0.85,0.85 0.47,0 0.85,0.38 0.85,0.85l0 6.84c0,0.94 0.77,1.71 1.71,1.71l4.7 0c0.24,0 0.43,-0.19 0.43,-0.43l0 -0.43c0,-0.47 -0.38,-0.85 -0.85,-0.85l-0.85 0 3.42 -2.56 0 3.85c0,0.24 0.19,0.43 0.43,0.43l0.85 0c0.24,0 0.43,-0.19 0.43,-0.43l0 -5.51c-0.28,0.07 -0.56,0.12 -0.85,0.12 -1.65,0 -3.03,-1.18 -3.35,-2.74zm4.21 -2.56l-1.71 0 -1.71 -1.71 0 3.59c0,1.42 1.15,2.56 2.56,2.56 1.42,0 2.56,-1.15 2.56,-2.56l0 -3.59 -1.71 1.71z"/>
  <path class="fil2" d="M12.37 4.42c-0.24,0 -0.43,-0.19 -0.43,-0.43 0,-0.24 0.19,-0.43 0.43,-0.43 0.24,0 0.43,0.19 0.43,0.43 0,0.24 -0.19,0.43 -0.43,0.43z"/>
  <path class="fil2" d="M10.23 4.42c-0.24,0 -0.43,-0.19 -0.43,-0.43 0,-0.24 0.19,-0.43 0.43,-0.43 0.24,0 0.43,0.19 0.43,0.43 0,0.24 -0.19,0.43 -0.43,0.43z"/>
  <path class="fil3 str1" d="M30.72 2.28l-1.71 0 -1.71 -1.71 0 3.59c0,1.42 1.15,2.56 2.56,2.56 1.42,0 2.56,-1.15 2.56,-2.56l0 -3.59 -1.71 1.71zm-4.2 2.56c-0.54,0 -2.85,0.05 -4.34,2.3l0 -2.3c0,-1.41 -1.15,-2.56 -2.56,-2.56 -0.47,0 -0.85,0.38 -0.85,0.85 0,0.47 0.38,0.85 0.85,0.85 0.47,0 0.85,0.38 0.85,0.85l0 6.84c0,0.94 0.77,1.71 1.71,1.71l4.7 0c0.24,0 0.43,-0.19 0.43,-0.43l0 -0.43c0,-0.47 -0.38,-0.85 -0.85,-0.85l-0.85 0 3.42 -2.56 0 3.85c0,0.24 0.19,0.43 0.43,0.43l0.85 0c0.24,0 0.43,-0.19 0.43,-0.43l0 -5.51c-0.27,0.07 -0.56,0.12 -0.85,0.12 -1.65,0 -3.03,-1.18 -3.35,-2.74z"/>
  <path class="fil2" d="M30.93 4.41c-0.24,0 -0.43,-0.19 -0.43,-0.43 0,-0.24 0.19,-0.43 0.43,-0.43 0.24,0 0.43,0.19 0.43,0.43 0,0.24 -0.19,0.43 -0.43,0.43z"/>
  <path class="fil2" d="M28.79 4.41c-0.24,0 -0.43,-0.19 -0.43,-0.43 0,-0.24 0.19,-0.43 0.43,-0.43 0.24,0 0.43,0.19 0.43,0.43 0,0.24 -0.19,0.43 -0.43,0.43z"/>
  <path class="fil4 str2" d="M49.27 2.28l-1.71 0 -1.71 -1.71 0 3.59c0,1.42 1.15,2.56 2.56,2.56 1.42,0 2.56,-1.15 2.56,-2.56l0 -3.59 -1.71 1.71zm-4.21 2.56c-0.54,0 -2.85,0.05 -4.34,2.3l0 -2.3c0,-1.41 -1.15,-2.56 -2.56,-2.56 -0.47,0 -0.85,0.38 -0.85,0.85 0,0.47 0.38,0.85 0.85,0.85 0.47,0 0.85,0.38 0.85,0.85l0 6.84c0,0.94 0.77,1.71 1.71,1.71l4.7 0c0.24,0 0.43,-0.19 0.43,-0.43l0 -0.43c0,-0.47 -0.38,-0.85 -0.85,-0.85l-0.85 0 3.42 -2.56 0 3.85c0,0.24 0.19,0.43 0.43,0.43l0.85 0c0.24,0 0.43,-0.19 0.43,-0.43l0 -5.51c-0.28,0.07 -0.56,0.12 -0.85,0.12 -1.65,0 -3.03,-1.18 -3.35,-2.74z"/>
  <path class="fil2" d="M49.48 4.41c-0.24,0 -0.43,-0.19 -0.43,-0.43 0,-0.24 0.19,-0.43 0.43,-0.43 0.24,0 0.43,0.19 0.43,0.43 0,0.24 -0.19,0.43 -0.43,0.43z"/>
  <path class="fil2" d="M47.35 4.41c-0.24,0 -0.43,-0.19 -0.43,-0.43 0,-0.24 0.19,-0.43 0.43,-0.43 0.24,0 0.43,0.19 0.43,0.43 0,0.24 -0.19,0.43 -0.43,0.43z"/>
  <path class="fil5 str3" d="M80.63 2.17l-1.71 0 -1.71 -1.71 0 3.59c0,1.42 1.15,2.56 2.56,2.56 1.42,0 2.56,-1.15 2.56,-2.56l0 -3.59 -1.71 1.71zm-4.21 2.56c-0.54,0 -2.85,0.05 -4.34,2.3l0 -2.3c0,-1.41 -1.15,-2.56 -2.56,-2.56 -0.47,0 -0.85,0.38 -0.85,0.85 0,0.47 0.38,0.85 0.85,0.85 0.47,0 0.85,0.38 0.85,0.85l0 6.84c0,0.94 0.77,1.71 1.71,1.71l4.7 0c0.24,0 0.43,-0.19 0.43,-0.43l0 -0.43c0,-0.47 -0.38,-0.85 -0.85,-0.85l-0.85 0 3.42 -2.56 0 3.85c0,0.24 0.19,0.43 0.43,0.43l0.85 0c0.24,0 0.43,-0.19 0.43,-0.43l0 -5.51c-0.28,0.07 -0.56,0.12 -0.85,0.12 -1.65,0 -3.03,-1.18 -3.35,-2.74z"/>
  <path class="fil2" d="M80.84 4.31c-0.24,0 -0.43,-0.19 -0.43,-0.43 0,-0.24 0.19,-0.43 0.43,-0.43 0.24,0 0.43,0.19 0.43,0.43 0,0.24 -0.19,0.43 -0.43,0.43z"/>
  <path class="fil2" d="M78.71 4.31c-0.24,0 -0.43,-0.19 -0.43,-0.43 0,-0.24 0.19,-0.43 0.43,-0.43 0.24,0 0.43,0.19 0.43,0.43 0,0.24 -0.19,0.43 -0.43,0.43z"/>
  <path class="fil5 str3" d="M77.98 35.01l-1.71 0 -1.71 -1.71 0 3.59c0,1.42 1.15,2.56 2.56,2.56 1.42,0 2.56,-1.15 2.56,-2.56l0 -3.59 -1.71 1.71zm-4.21 2.56c-0.54,0 -2.85,0.05 -4.34,2.3l0 -2.3c0,-1.41 -1.15,-2.56 -2.56,-2.56 -0.47,0 -0.85,0.38 -0.85,0.85 0,0.47 0.38,0.85 0.85,0.85 0.47,0 0.85,0.38 0.85,0.85l0 6.84c0,0.94 0.77,1.71 1.71,1.71l4.7 0c0.24,0 0.43,-0.19 0.43,-0.43l0 -0.43c0,-0.47 -0.38,-0.85 -0.85,-0.85l-0.85 0 3.42 -2.56 0 3.85c0,0.24 0.19,0.43 0.43,0.43l0.85 0c0.24,0 0.43,-0.19 0.43,-0.43l0 -5.51c-0.27,0.07 -0.56,0.12 -0.85,0.12 -1.65,0 -3.03,-1.18 -3.35,-2.74z"/>
  <path class="fil2" d="M76.06 37.15c-0.24,0 -0.43,-0.19 -0.43,-0.43 0,-0.24 0.19,-0.43 0.43,-0.43 0.24,0 0.43,0.19 0.43,0.43 0,0.24 -0.19,0.43 -0.43,0.43z"/>
  <path class="fil2" d="M78.19 37.15c-0.24,0 -0.43,-0.19 -0.43,-0.43 0,-0.24 0.19,-0.43 0.43,-0.43 0.24,0 0.43,0.19 0.43,0.43 0,0.24 -0.19,0.43 -0.43,0.43z"/>
  <path class="fil1 str0" d="M9.1 37.58c-0.54,0 -2.85,0.05 -4.34,2.3l0 -2.3c0,-1.41 -1.15,-2.56 -2.56,-2.56 -0.47,0 -0.85,0.38 -0.85,0.85 0,0.47 0.38,0.85 0.85,0.85 0.47,0 0.85,0.38 0.85,0.85l0 6.84c0,0.94 0.77,1.71 1.71,1.71l4.7 0c0.24,0 0.43,-0.19 0.43,-0.43l0 -0.43c0,-0.47 -0.38,-0.85 -0.85,-0.85l-0.85 0 3.42 -2.56 0 3.85c0,0.24 0.19,0.43 0.43,0.43l0.85 0c0.24,0 0.43,-0.19 0.43,-0.43l0 -5.51c-0.28,0.07 -0.56,0.12 -0.85,0.12 -1.65,0 -3.03,-1.18 -3.35,-2.74zm4.21 -2.56l-1.71 0 -1.71 -1.71 0 3.59c0,1.42 1.15,2.56 2.56,2.56 1.42,0 2.56,-1.15 2.56,-2.56l0 -3.59 -1.71 1.71z"/>
  <path class="fil2" d="M13.52 37.15c-0.24,0 -0.43,-0.19 -0.43,-0.43 0,-0.24 0.19,-0.43 0.43,-0.43 0.24,0 0.43,0.19 0.43,0.43 0,0.24 -0.19,0.43 -0.43,0.43z"/>
  <path class="fil2" d="M11.38 37.15c-0.24,0 -0.43,-0.19 -0.43,-0.43 0,-0.24 0.19,-0.43 0.43,-0.43 0.24,0 0.43,0.19 0.43,0.43 0,0.24 -0.19,0.43 -0.43,0.43z"/>
  <path class="fil3 str1" d="M33.52 35.01l-1.71 0 -1.71 -1.71 0 3.59c0,1.42 1.15,2.56 2.56,2.56 1.42,0 2.56,-1.15 2.56,-2.56l0 -3.59 -1.71 1.71zm-4.2 2.56c-0.54,0 -2.85,0.05 -4.34,2.3l0 -2.3c0,-1.41 -1.15,-2.56 -2.56,-2.56 -0.47,0 -0.85,0.38 -0.85,0.85 0,0.47 0.38,0.85 0.85,0.85 0.47,0 0.85,0.38 0.85,0.85l0 6.84c0,0.94 0.77,1.71 1.71,1.71l4.7 0c0.24,0 0.43,-0.19 0.43,-0.43l0 -0.43c0,-0.47 -0.38,-0.85 -0.85,-0.85l-0.85 0 3.42 -2.56 0 3.85c0,0.24 0.19,0.43 0.43,0.43l0.85 0c0.24,0 0.43,-0.19 0.43,-0.43l0 -5.51c-0.27,0.07 -0.56,0.12 -0.85,0.12 -1.65,0 -3.03,-1.18 -3.35,-2.74z"/>
  <path class="fil2" d="M33.73 37.15c-0.24,0 -0.43,-0.19 -0.43,-0.43 0,-0.24 0.19,-0.43 0.43,-0.43 0.24,0 0.43,0.19 0.43,0.43 0,0.24 -0.19,0.43 -0.43,0.43z"/>
  <path class="fil2" d="M31.6 37.15c-0.24,0 -0.43,-0.19 -0.43,-0.43 0,-0.24 0.19,-0.43 0.43,-0.43 0.24,0 0.43,0.19 0.43,0.43 0,0.24 -0.19,0.43 -0.43,0.43z"/>
  <path class="fil4 str2" d="M55.27 35.01l-1.71 0 -1.71 -1.71 0 3.59c0,1.42 1.15,2.56 2.56,2.56 1.42,0 2.56,-1.15 2.56,-2.56l0 -3.59 -1.71 1.71zm-4.21 2.56c-0.54,0 -2.85,0.05 -4.34,2.3l0 -2.3c0,-1.41 -1.15,-2.56 -2.56,-2.56 -0.47,0 -0.85,0.38 -0.85,0.85 0,0.47 0.38,0.85 0.85,0.85 0.47,0 0.85,0.38 0.85,0.85l0 6.84c0,0.94 0.77,1.71 1.71,1.71l4.7 0c0.24,0 0.43,-0.19 0.43,-0.43l0 -0.43c0,-0.47 -0.38,-0.85 -0.85,-0.85l-0.85 0 3.42 -2.56 0 3.85c0,0.24 0.19,0.43 0.43,0.43l0.85 0c0.24,0 0.43,-0.19 0.43,-0.43l0 -5.51c-0.28,0.07 -0.56,0.12 -0.85,0.12 -1.65,0 -3.03,-1.18 -3.35,-2.74z"/>
  <path class="fil2" d="M55.49 37.15c-0.24,0 -0.43,-0.19 -0.43,-0.43 0,-0.24 0.19,-0.43 0.43,-0.43 0.24,0 0.43,0.19 0.43,0.43 0,0.24 -0.19,0.43 -0.43,0.43z"/>
  <path class="fil2" d="M53.35 37.15c-0.24,0 -0.43,-0.19 -0.43,-0.43 0,-0.24 0.19,-0.43 0.43,-0.43 0.24,0 0.43,0.19 0.43,0.43 0,0.24 -0.19,0.43 -0.43,0.43z"/>
  <polygon class="fil0" points="61.05,6.44 64.66,6.44 64.66,7.64 61.05,7.64 61.05,11.38 59.82,11.38 59.82,7.64 56.23,7.64 56.23,6.44 59.82,6.44 59.82,2.68 61.05,2.68 "/>
 </g>
</svg>
