<?xml version="1.0" encoding="UTF-8"?>
<!DOCTYPE svg PUBLIC "-//W3C//DTD SVG 1.1//EN" "http://www.w3.org/Graphics/SVG/1.1/DTD/svg11.dtd">
<!-- Creator: CorelDRAW 2018 (64-Bit) -->
<svg xmlns="http://www.w3.org/2000/svg" xml:space="preserve" width="1.35336in" height="1.08519in" version="1.1" style="shape-rendering:geometricPrecision; text-rendering:geometricPrecision; image-rendering:optimizeQuality; fill-rule:evenodd; clip-rule:evenodd"
viewBox="0 0 449.45 360.39"
 xmlns:xlink="http://www.w3.org/1999/xlink">
 <defs>
  <style type="text/css">
   <![CDATA[
    .str0 {stroke:#C0392B;stroke-width:4.43;stroke-miterlimit:22.9256}
    .str1 {stroke:#2980B9;stroke-width:4.43;stroke-miterlimit:22.9256}
    .str2 {stroke:#2980B9;stroke-width:4.43;stroke-linejoin:round;stroke-miterlimit:22.9256}
    .fil0 {fill:none}
    .fil1 {fill:#B71C1C;fill-rule:nonzero}
   ]]>
  </style>
 </defs>
 <g id="Layer_x0020_1">
  <metadata id="CorelCorpID_0Corel-Layer"/>
  <path class="fil0 str0" d="M91.97 338.44c0.04,-0.74 0.06,-1.48 0.06,-2.21 0,-13.6 -6.95,-26.25 -18.42,-33.54"/>
  <polygon class="fil0 str1" points="363.87,11.89 38.43,337.92 "/>
  <path class="fil1" d="M426.65 322.62l9.29 0c4.36,0 7.53,0.65 9.47,1.96 1.95,1.3 2.93,3.37 2.93,6.19 0,1.95 -0.54,3.56 -1.63,4.83 -1.09,1.27 -2.67,2.09 -4.76,2.47l0 0.22c5,0.85 7.5,3.48 7.5,7.87 0,2.94 -1,5.24 -2.98,6.89 -1.99,1.65 -4.77,2.47 -8.34,2.47l-11.48 0 0 -32.91zm3.83 14.11l6.3 0c2.7,0 4.65,-0.42 5.83,-1.28 1.19,-0.84 1.78,-2.27 1.78,-4.29 0,-1.84 -0.66,-3.18 -1.98,-3.99 -1.32,-0.82 -3.42,-1.23 -6.3,-1.23l-5.63 0 0 10.79zm0 3.23l0 12.31 6.87 0c2.65,0 4.66,-0.52 5.99,-1.54 1.34,-1.02 2.02,-2.63 2.02,-4.82 0,-2.04 -0.69,-3.54 -2.06,-4.5 -1.38,-0.96 -3.46,-1.44 -6.27,-1.44l-6.55 0z"/>
  <path class="fil1" d="M30.28 343.43c0,5.27 -1.34,9.41 -4,12.43 -2.66,3.02 -6.37,4.53 -11.11,4.53 -4.85,0 -8.59,-1.48 -11.22,-4.45 -2.63,-2.97 -3.96,-7.15 -3.96,-12.55 0,-5.36 1.32,-9.51 3.96,-12.46 2.64,-2.95 6.39,-4.42 11.25,-4.42 4.73,0 8.42,1.5 11.08,4.5 2.66,3 3.99,7.14 3.99,12.42zm-26.23 -0.01c0,4.46 0.94,7.84 2.84,10.14 1.9,2.31 4.66,3.46 8.27,3.46 3.65,0 6.41,-1.14 8.27,-3.44 1.86,-2.3 2.79,-5.68 2.79,-10.16 0,-4.42 -0.92,-7.78 -2.78,-10.07 -1.85,-2.29 -4.59,-3.43 -8.23,-3.43 -3.65,0 -6.41,1.15 -8.32,3.46 -1.9,2.31 -2.84,5.65 -2.84,10.05z"/>
  <path class="fil1" d="M397.06 33.05l-4.09 -10.46 -13.2 0 -4.05 10.46 -3.87 0 13.01 -33.05 3.22 0 12.94 33.05 -3.96 0zm-5.28 -13.92l-3.83 -10.19c-0.49,-1.29 -1.01,-2.87 -1.53,-4.75 -0.33,1.44 -0.8,3.02 -1.42,4.75l-3.87 10.19 10.65 0z"/>
  <path class="fil1" d="M171.4 304.71l-4.09 -10.46 -13.2 0 -4.05 10.46 -3.87 0 13.01 -33.05 3.22 0 12.94 33.05 -3.96 0zm-5.28 -13.92l-3.83 -10.19c-0.49,-1.29 -1.01,-2.87 -1.53,-4.75 -0.33,1.44 -0.8,3.02 -1.42,4.75l-3.87 10.19 10.65 0zm41.41 -2.57c0,5.27 -1.34,9.41 -4,12.43 -2.66,3.02 -6.37,4.53 -11.11,4.53 -4.85,0 -8.59,-1.48 -11.22,-4.45 -2.63,-2.97 -3.96,-7.15 -3.96,-12.55 0,-5.36 1.32,-9.51 3.96,-12.46 2.64,-2.95 6.39,-4.42 11.25,-4.42 4.73,0 8.42,1.5 11.08,4.5 2.66,3 3.99,7.14 3.99,12.42zm-26.23 -0.01c0,4.46 0.94,7.84 2.84,10.14 1.9,2.31 4.66,3.46 8.27,3.46 3.65,0 6.41,-1.14 8.27,-3.44 1.86,-2.3 2.79,-5.68 2.79,-10.16 0,-4.42 -0.92,-7.78 -2.78,-10.07 -1.85,-2.29 -4.59,-3.43 -8.23,-3.43 -3.65,0 -6.41,1.15 -8.32,3.46 -1.9,2.31 -2.84,5.65 -2.84,10.05zm3.22 -19.55c1.91,-2.04 3.24,-3.54 4.01,-4.5 0.77,-0.96 1.32,-1.74 1.67,-2.36l3.73 0c0.33,0.63 0.91,1.44 1.73,2.44 0.81,0.99 2.17,2.47 4.04,4.42l0 0.52 -2.68 0c-1.32,-0.82 -2.98,-2.22 -4.98,-4.18 -2.04,2 -3.68,3.4 -4.93,4.18l-2.59 0 0 -0.52zm30.34 3.14l9.29 0c4.36,0 7.53,0.65 9.47,1.96 1.95,1.3 2.93,3.37 2.93,6.19 0,1.95 -0.54,3.56 -1.63,4.83 -1.09,1.27 -2.67,2.09 -4.76,2.47l0 0.22c5,0.85 7.5,3.48 7.5,7.87 0,2.94 -1,5.24 -2.98,6.89 -1.99,1.65 -4.77,2.47 -8.34,2.47l-11.48 0 0 -32.91zm3.83 14.11l6.3 0c2.7,0 4.65,-0.42 5.83,-1.28 1.19,-0.84 1.78,-2.27 1.78,-4.29 0,-1.84 -0.66,-3.18 -1.98,-3.99 -1.32,-0.82 -3.42,-1.23 -6.3,-1.23l-5.63 0 0 10.79zm0 3.23l0 12.31 6.87 0c2.65,0 4.66,-0.52 5.99,-1.54 1.34,-1.02 2.02,-2.63 2.02,-4.82 0,-2.04 -0.69,-3.54 -2.06,-4.5 -1.38,-0.96 -3.46,-1.44 -6.27,-1.44l-6.55 0zm36.18 -3.73l0 -3.09 20.93 0 0 3.09 -20.93 0zm0 9.22l0 -3.09 20.93 0 0 3.09 -20.93 0zm61.1 2.54l-4.89 0 0 7.56 -3.58 0 0 -7.56 -16.01 0 0 -3.27 15.63 -22.27 3.96 0 0 22.13 4.89 0 0 3.41zm-8.47 -3.41l0 -10.94c0,-2.14 0.08,-4.57 0.22,-7.27l-0.18 0c-0.72,1.44 -1.4,2.63 -2.03,3.58l-10.29 14.63 12.28 0zm21.92 -9.13c3.47,0 6.2,0.86 8.19,2.58 1.99,1.71 2.98,4.07 2.98,7.05 0,3.41 -1.08,6.08 -3.25,8.02 -2.17,1.94 -5.16,2.9 -8.97,2.9 -3.71,0 -6.54,-0.59 -8.49,-1.78l0 -3.6c1.05,0.68 2.36,1.2 3.92,1.58 1.56,0.38 3.1,0.58 4.62,0.58 2.64,0 4.69,-0.62 6.15,-1.87 1.47,-1.24 2.2,-3.04 2.2,-5.4 0,-4.59 -2.81,-6.88 -8.44,-6.88 -1.43,0 -3.33,0.22 -5.72,0.65l-1.94 -1.24 1.24 -15.41 16.36 0 0 3.46 -13.17 0 -0.84 9.87c1.73,-0.35 3.45,-0.51 5.16,-0.51zm17.54 -14.19c0,-2.53 0.88,-4.69 2.65,-6.47 1.77,-1.77 3.92,-2.66 6.45,-2.66 2.53,0 4.69,0.88 6.47,2.65 1.77,1.77 2.66,3.93 2.66,6.48 0,1.64 -0.4,3.16 -1.2,4.56 -0.8,1.39 -1.91,2.5 -3.34,3.32 -1.42,0.82 -2.95,1.23 -4.59,1.23 -2.54,0 -4.69,-0.88 -6.45,-2.63 -1.77,-1.76 -2.65,-3.92 -2.65,-6.48zm3.37 0c0,1.6 0.57,2.96 1.71,4.07 1.14,1.11 2.5,1.67 4.08,1.67 1.57,0 2.91,-0.55 4.03,-1.65 1.12,-1.1 1.68,-2.47 1.68,-4.09 0,-1.63 -0.55,-3.01 -1.65,-4.11 -1.1,-1.1 -2.46,-1.65 -4.06,-1.65 -1.62,0 -2.99,0.56 -4.11,1.67 -1.12,1.11 -1.68,2.48 -1.68,4.09z"/>
  <line class="fil0 str2" x1="404.9" y1="353.23" x2="420.33" y2= "337.8" />
  <line class="fil0 str2" x1="404.9" y1="323.65" x2="420.33" y2= "339.08" />
  <polygon class="fil0 str1" points="420.35,338.44 36.78,338.44 "/>
  <line class="fil0 str2" x1="363.87" y1="32.8" x2="363.87" y2= "10.99" />
  <line class="fil0 str2" x1="342.96" y1="11.89" x2="364.78" y2= "11.89" />
 </g>
</svg>
