<?xml version="1.0" encoding="UTF-8"?>
<!DOCTYPE svg PUBLIC "-//W3C//DTD SVG 1.1//EN" "http://www.w3.org/Graphics/SVG/1.1/DTD/svg11.dtd">
<!-- Creator: CorelDRAW 2018 (64 Bit) -->
<svg xmlns="http://www.w3.org/2000/svg" xml:space="preserve" width="270px" height="256px" version="1.1" style="shape-rendering:geometricPrecision; text-rendering:geometricPrecision; image-rendering:optimizeQuality; fill-rule:evenodd; clip-rule:evenodd"
viewBox="0 0 39.91 37.91"
 xmlns:xlink="http://www.w3.org/1999/xlink">
 <defs>
  <style type="text/css">
   <![CDATA[
    .str1 {stroke:#27AE60;stroke-width:0.59;stroke-miterlimit:22.9256}
    .str2 {stroke:#2980B9;stroke-width:0.59;stroke-miterlimit:22.9256}
    .str0 {stroke:#C0392B;stroke-width:0.59;stroke-miterlimit:22.9256}
    .str3 {stroke:#F1C40F;stroke-width:0.59;stroke-miterlimit:22.9256}
    .fil0 {fill:none}
   ]]>
  </style>
 </defs>
 <g id="Layer_x0020_1">
  <metadata id="CorelCorpID_0Corel-Layer"/>
  <rect class="fil0 str0" x="1.44" y="0.47" width="14.8" height="14.8"/>
  <polygon class="fil0 str1" points="12.41,37.18 14.45,32.59 16.5,28.01 12.76,24.64 9.03,21.28 4.68,23.8 0.33,26.31 1.38,31.22 2.42,36.13 7.42,36.66 "/>
  <polygon class="fil0 str2" points="26.76,37.61 24.62,33.92 22.49,30.22 24.62,26.52 26.76,22.82 31.03,22.82 35.3,22.82 37.44,26.52 39.57,30.22 37.44,33.92 35.3,37.61 31.03,37.61 "/>
  <polygon class="fil0 str3" points="33.84,15.31 33.84,7.91 33.84,0.51 27.44,4.21 21.03,7.91 27.44,11.61 "/>
 </g>
</svg>
