<?xml version="1.0" encoding="UTF-8"?>
<!DOCTYPE svg PUBLIC "-//W3C//DTD SVG 1.0//EN" "http://www.w3.org/TR/2001/REC-SVG-20010904/DTD/svg10.dtd">
<!-- Creator: CorelDRAW 2017 -->
<svg xmlns="http://www.w3.org/2000/svg" xml:space="preserve" width="128px" height="128px" version="1.0" style="shape-rendering:geometricPrecision; text-rendering:geometricPrecision; image-rendering:optimizeQuality; fill-rule:evenodd; clip-rule:evenodd"
viewBox="0 0 14.5 14.5"
 xmlns:xlink="http://www.w3.org/1999/xlink">
 <defs>
  <style type="text/css">
   <![CDATA[
    .fil1 {fill:#FEFEFE}
    .fil0 {fill:#27AE61}
   ]]>
  </style>
 </defs>
 <g id="Camada_x0020_1">
  <metadata id="CorelCorpID_0Corel-Layer"/>
  <rect class="fil0" transform="matrix(0.119625 -0.119626 -0.0176706 -0.0176707 7.24945 14.4991)" width="60.6" height="32.06"/>
  <rect class="fil1" transform="matrix(0.115884 -0.115885 -0.0106007 -0.0106008 7.24948 14.2725)" width="60.6" height="32.06"/>
  <rect class="fil0" transform="matrix(0.112148 -0.112148 0.00353499 0.00353501 7.13613 13.9326)" width="60.6" height="32.06"/>
  <rect class="fil0" transform="matrix(0.119625 -0.119626 -0.0176706 -0.0176707 0.566417 7.81604)" width="60.6" height="32.06"/>
  <rect class="fil1" transform="matrix(0.115884 -0.115885 -0.0106007 -0.0106008 0.566443 7.58937)" width="60.6" height="32.06"/>
  <rect class="fil0" transform="matrix(0.112148 -0.112148 0.00353499 0.00353501 0.453099 7.24957)" width="60.6" height="32.06"/>
  <rect class="fil0" transform="matrix(-0.119625 -0.119626 -0.0176706 0.0176707 14.4991 7.24954)" width="60.6" height="32.06"/>
  <rect class="fil1" transform="matrix(-0.115884 -0.115885 -0.0106007 0.0106008 14.2724 7.24951)" width="60.6" height="32.06"/>
  <rect class="fil0" transform="matrix(-0.112148 -0.112148 0.00353499 -0.00353501 13.9326 7.36285)" width="60.6" height="32.06"/>
  <rect class="fil0" transform="matrix(-0.119625 -0.119626 -0.0176706 0.0176707 7.81603 13.9326)" width="60.6" height="32.06"/>
  <rect class="fil1" transform="matrix(-0.115884 -0.115885 -0.0106007 0.0106008 7.58937 13.9326)" width="60.6" height="32.06"/>
  <rect class="fil0" transform="matrix(-0.112148 -0.112148 0.00353499 -0.00353501 7.24957 14.0459)" width="60.6" height="32.06"/>
 </g>
</svg>
