<?xml version="1.0" encoding="UTF-8"?>
<!DOCTYPE svg PUBLIC "-//W3C//DTD SVG 1.1//EN" "http://www.w3.org/Graphics/SVG/1.1/DTD/svg11.dtd">
<!-- Creator: CorelDRAW 2018 (64 Bit) -->
<svg xmlns="http://www.w3.org/2000/svg" xml:space="preserve" width="19.4432mm" height="18.4914mm" version="1.1" style="shape-rendering:geometricPrecision; text-rendering:geometricPrecision; image-rendering:optimizeQuality; fill-rule:evenodd; clip-rule:evenodd"
viewBox="0 0 698.07 663.9"
 xmlns:xlink="http://www.w3.org/1999/xlink">
 <defs>
  <style type="text/css">
   <![CDATA[
    .str0 {stroke:#C0392B;stroke-width:24.32;stroke-miterlimit:22.9256}
    .fil0 {fill:none}
   ]]>
  </style>
 </defs>
 <g id="Camada_x0020_1">
  <metadata id="CorelCorpID_0Corel-Layer"/>
  <polygon class="fil0 str0" points="349.03,492.14 408.55,448.9 468.06,405.66 445.33,335.7 422.6,265.74 349.03,265.74 275.47,265.74 252.74,335.7 230.01,405.66 289.52,448.9 "/>
  <polygon class="fil0 str0" points="156.45,632.06 230.01,405.66 289.52,448.9 349.03,492.14 "/>
  <polygon class="fil0 str0" points="541.62,632.06 468.06,405.66 408.55,448.9 349.03,492.14 "/>
  <polygon class="fil0 str0" points="37.43,265.74 230.01,405.66 252.74,335.7 275.47,265.74 "/>
  <polygon class="fil0 str0" points="349.03,39.35 275.47,265.74 349.03,265.74 422.6,265.74 "/>
  <polygon class="fil0 str0" points="660.64,265.74 422.6,265.74 445.33,335.7 468.06,405.66 "/>
 </g>
</svg>
