<?xml version="1.0" encoding="UTF-8"?>
<!DOCTYPE svg PUBLIC "-//W3C//DTD SVG 1.1//EN" "http://www.w3.org/Graphics/SVG/1.1/DTD/svg11.dtd">
<!-- Creator: CorelDRAW 2018 (64 Bit) -->
<svg xmlns="http://www.w3.org/2000/svg" xml:space="preserve" width="42.7855mm" height="40.1273mm" version="1.1" style="shape-rendering:geometricPrecision; text-rendering:geometricPrecision; image-rendering:optimizeQuality; fill-rule:evenodd; clip-rule:evenodd"
viewBox="0 0 5889.81 5523.88"
 xmlns:xlink="http://www.w3.org/1999/xlink">
 <defs>
  <style type="text/css">
   <![CDATA[
    .str2 {stroke:#27AE60;stroke-width:93.24;stroke-miterlimit:22.9256}
    .str3 {stroke:#2980B9;stroke-width:93.24;stroke-miterlimit:22.9256}
    .str0 {stroke:#C0392B;stroke-width:93.24;stroke-miterlimit:22.9256}
    .str1 {stroke:#F1C40F;stroke-width:93.24;stroke-miterlimit:22.9256}
    .fil0 {fill:none}
   ]]>
  </style>
 </defs>
 <g id="Camada_x0020_1">
  <metadata id="CorelCorpID_0Corel-Layer"/>
  <polygon class="fil0 str0" points="1338.27,1886.96 1566.45,1721.18 1794.63,1555.39 1707.47,1287.15 1620.31,1018.91 1338.27,1018.91 1056.22,1018.91 969.06,1287.15 881.9,1555.39 1110.08,1721.18 "/>
  <polygon class="fil0 str0" points="599.85,2423.44 881.9,1555.39 1110.08,1721.18 1338.27,1886.96 "/>
  <polygon class="fil0 str0" points="2076.68,2423.44 1794.63,1555.39 1566.45,1721.18 1338.27,1886.96 "/>
  <polygon class="fil0 str0" points="143.5,1018.91 881.9,1555.39 969.05,1287.15 1056.22,1018.91 "/>
  <polygon class="fil0 str0" points="1338.27,150.86 1056.22,1018.91 1338.27,1018.91 1620.31,1018.91 "/>
  <polygon class="fil0 str0" points="2533.03,1018.91 1620.31,1018.91 1707.47,1287.15 1794.63,1555.39 "/>
  <polyline class="fil0 str1" points="4210.12,877.22 3308.98,2501.5 5734.27,2468.11 4521.61,1689.36 "/>
  <polyline class="fil0 str2" points="86.85,5512.24 281.65,3589.14 2685.95,3187.04 "/>
  <path class="fil0 str2" d="M51.88 5477.27c39.44,-0.12 78.89,-0.23 470.17,-62.39 391.27,-62.17 1134.39,-186.38 1545.9,-567.04 411.53,-380.68 491.44,-1017.82 531.4,-1336.39 39.96,-318.58 39.96,-318.58 39.96,-318.58"/>
  <polygon class="fil0 str3" points="5190.99,5471.45 5506.1,4925.67 5821.18,4379.91 5506.08,3834.15 5190.99,3288.38 4560.79,3288.38 3930.59,3288.37 3615.49,3834.15 3300.4,4379.91 3615.5,4925.67 3930.6,5471.43 4560.79,5471.45 "/>
 </g>
</svg>
