<?xml version="1.0" encoding="UTF-8"?>
<!DOCTYPE svg PUBLIC "-//W3C//DTD SVG 1.1//EN" "http://www.w3.org/Graphics/SVG/1.1/DTD/svg11.dtd">
<!-- Creator: CorelDRAW 2018 (64-Bit) -->
<svg xmlns="http://www.w3.org/2000/svg" xml:space="preserve" width="0.444555in" height="0.0885354in" version="1.1" style="shape-rendering:geometricPrecision; text-rendering:geometricPrecision; image-rendering:optimizeQuality; fill-rule:evenodd; clip-rule:evenodd"
viewBox="0 0 18.87 3.76"
 xmlns:xlink="http://www.w3.org/1999/xlink">
 <defs>
  <style type="text/css">
   <![CDATA[
    .str1 {stroke:black;stroke-width:0.42;stroke-linejoin:round;stroke-miterlimit:22.9256}
    .str0 {stroke:black;stroke-width:0.42;stroke-linejoin:bevel;stroke-miterlimit:22.9256}
    .fil0 {fill:none}
    .fil1 {fill:black;fill-rule:nonzero}
   ]]>
  </style>
 </defs>
 <g id="Layer_x0020_1">
  <metadata id="CorelCorpID_0Corel-Layer"/>
  <line class="fil0 str0" x1="18.5" y1="1.15" x2="0.27" y2= "1.15" />
  <line class="fil0 str1" x1="18.72" y1="1.01" x2="17.58" y2= "2.15" />
  <line class="fil0 str1" x1="18.72" y1="1.29" x2="17.58" y2= "0.15" />
  <line class="fil0 str1" x1="1.29" y1="2.15" x2="0.15" y2= "1.01" />
  <line class="fil0 str0" x1="1.29" y1="0.15" x2="0.15" y2= "1.29" />
  <path class="fil1" d="M16.33 2.62c0.05,0 0.09,0 0.13,0.01l-0.02 0.16c-0.05,-0.01 -0.09,-0.02 -0.12,-0.02 -0.09,0 -0.17,0.04 -0.23,0.11 -0.06,0.07 -0.1,0.16 -0.1,0.27l0 0.6 -0.17 0 0 -1.12 0.14 0 0.02 0.21 0.01 0c0.04,-0.07 0.09,-0.13 0.15,-0.17 0.06,-0.04 0.12,-0.06 0.19,-0.06z"/>
 </g>
</svg>
