<?xml version="1.0" encoding="UTF-8"?>
<!DOCTYPE svg PUBLIC "-//W3C//DTD SVG 1.0//EN" "http://www.w3.org/TR/2001/REC-SVG-20010904/DTD/svg10.dtd">
<!-- Creator: CorelDRAW 2017 -->
<svg xmlns="http://www.w3.org/2000/svg" xml:space="preserve" width="128px" height="128px" version="1.0" style="shape-rendering:geometricPrecision; text-rendering:geometricPrecision; image-rendering:optimizeQuality; fill-rule:evenodd; clip-rule:evenodd"
viewBox="0 0 12.22 12.22"
 xmlns:xlink="http://www.w3.org/1999/xlink">
 <defs>
  <style type="text/css">
   <![CDATA[
    .fil0 {fill:#27AE61}
    .fil1 {fill:white}
   ]]>
  </style>
 </defs>
 <g id="Camada_x0020_1">
  <metadata id="CorelCorpID_0Corel-Layer"/>
  <path class="fil0" d="M6.11 0l3.05 2.33 3.06 2.34 -1.17 3.77 -1.16 3.78 -3.78 0 -3.78 0 -1.16 -3.78 -1.17 -3.77 3.05 -2.34 3.06 -2.33z"/>
  <path class="fil1" d="M6.11 0.31l2.91 2.23 2.92 2.22 -1.12 3.6 -1.11 3.61 -3.6 0 -3.6 0 -1.11 -3.61 -1.12 -3.6 2.92 -2.22 2.91 -2.23z"/>
  <path class="fil0" d="M6.11 0.62l2.77 2.12 2.78 2.11 -1.06 3.43 -1.06 3.43 -3.43 0 -3.43 0 -1.06 -3.43 -1.06 -3.43 2.78 -2.11 2.77 -2.12z"/>
 </g>
</svg>
