<?xml version="1.0" encoding="UTF-8"?>
<!DOCTYPE svg PUBLIC "-//W3C//DTD SVG 1.1//EN" "http://www.w3.org/Graphics/SVG/1.1/DTD/svg11.dtd">
<!-- Creator: CorelDRAW 2018 (64-Bit) -->
<svg xmlns="http://www.w3.org/2000/svg" xml:space="preserve" width="0.426665in" height="0.426665in" version="1.1" style="shape-rendering:geometricPrecision; text-rendering:geometricPrecision; image-rendering:optimizeQuality; fill-rule:evenodd; clip-rule:evenodd"
viewBox="0 0 39.27 39.27"
 xmlns:xlink="http://www.w3.org/1999/xlink">
 <defs>
  <style type="text/css">
   <![CDATA[
    .fil4 {fill:black}
    .fil0 {fill:#4D4D4D}
    .fil6 {fill:#607D8B}
    .fil1 {fill:#E6E6E6}
    .fil5 {fill:#F44336}
    .fil2 {fill:#373435;fill-rule:nonzero}
    .fil3 {fill:black;fill-rule:nonzero}
   ]]>
  </style>
 </defs>
 <g id="Layer_x0020_1">
  <metadata id="CorelCorpID_0Corel-Layer"/>
  <rect class="fil0" x="-0" y="0" width="39.27" height="39.27" rx="6.16" ry="6.16"/>
  <rect class="fil1" x="2.45" y="2.45" width="34.37" height="34.37" rx="4.51" ry="4.51"/>
  <path class="fil2" d="M26.75 9.27l-0.31 0 0 -2.02c0,-0.17 0.01,-0.33 0.02,-0.48 -0.03,0.03 -0.06,0.06 -0.09,0.09 -0.03,0.03 -0.19,0.16 -0.46,0.38l-0.17 -0.22 0.75 -0.58 0.27 0 0 2.84z"/>
  <path class="fil3" d="M32.1 14.15l-1.87 0 0 -0.28 0.75 -0.75c0.23,-0.23 0.38,-0.39 0.45,-0.49 0.07,-0.1 0.13,-0.19 0.16,-0.29 0.04,-0.09 0.05,-0.19 0.05,-0.3 0,-0.15 -0.05,-0.27 -0.14,-0.36 -0.09,-0.09 -0.22,-0.13 -0.38,-0.13 -0.12,0 -0.23,0.02 -0.33,0.06 -0.11,0.04 -0.22,0.11 -0.35,0.21l-0.17 -0.22c0.26,-0.22 0.55,-0.32 0.85,-0.32 0.27,0 0.48,0.07 0.63,0.2 0.15,0.14 0.23,0.32 0.23,0.55 0,0.18 -0.05,0.36 -0.15,0.53 -0.1,0.18 -0.29,0.4 -0.57,0.67l-0.62 0.61 0 0.02 1.46 0 0 0.3z"/>
  <path class="fil3" d="M33.8 18.93c0,0.18 -0.05,0.33 -0.15,0.44 -0.1,0.12 -0.24,0.19 -0.43,0.23l0 0.02c0.23,0.03 0.4,0.1 0.51,0.22 0.11,0.12 0.16,0.27 0.16,0.46 0,0.27 -0.09,0.48 -0.28,0.62 -0.19,0.15 -0.45,0.22 -0.8,0.22 -0.15,0 -0.29,-0.01 -0.41,-0.03 -0.12,-0.02 -0.25,-0.06 -0.36,-0.12l0 -0.31c0.12,0.06 0.25,0.11 0.39,0.14 0.14,0.03 0.27,0.05 0.4,0.05 0.49,0 0.73,-0.19 0.73,-0.58 0,-0.34 -0.27,-0.52 -0.81,-0.52l-0.28 0 0 -0.28 0.28 0c0.22,0 0.4,-0.05 0.53,-0.15 0.13,-0.1 0.19,-0.23 0.19,-0.41 0,-0.14 -0.05,-0.25 -0.14,-0.33 -0.1,-0.08 -0.22,-0.12 -0.39,-0.12 -0.12,0 -0.24,0.02 -0.35,0.05 -0.11,0.03 -0.24,0.1 -0.38,0.19l-0.16 -0.22c0.12,-0.09 0.25,-0.16 0.4,-0.22 0.15,-0.05 0.31,-0.08 0.48,-0.08 0.28,0 0.49,0.06 0.64,0.19 0.15,0.13 0.23,0.3 0.23,0.52z"/>
  <path class="fil3" d="M32.16 26.98l-0.42 0 0 0.65 -0.31 0 0 -0.65 -1.38 0 0 -0.28 1.35 -1.92 0.34 0 0 1.91 0.42 0 0 0.29zm-0.73 -0.29l0 -0.94c0,-0.18 0.01,-0.39 0.02,-0.63l-0.02 0c-0.06,0.12 -0.12,0.23 -0.17,0.31l-0.89 1.26 1.06 0z"/>
  <path class="fil3" d="M26.25 30.58c0.3,0 0.53,0.07 0.71,0.22 0.17,0.15 0.26,0.35 0.26,0.61 0,0.29 -0.09,0.52 -0.28,0.69 -0.19,0.17 -0.45,0.25 -0.77,0.25 -0.32,0 -0.56,-0.05 -0.73,-0.15l0 -0.31c0.09,0.06 0.2,0.1 0.34,0.14 0.13,0.03 0.27,0.05 0.4,0.05 0.23,0 0.4,-0.05 0.53,-0.16 0.13,-0.11 0.19,-0.26 0.19,-0.47 0,-0.4 -0.24,-0.59 -0.73,-0.59 -0.12,0 -0.29,0.02 -0.49,0.06l-0.17 -0.11 0.11 -1.33 1.41 0 0 0.3 -1.14 0 -0.07 0.85c0.15,-0.03 0.3,-0.04 0.44,-0.04z"/>
  <path class="fil3" d="M18.72 32.89c0,-0.56 0.11,-0.97 0.33,-1.25 0.22,-0.28 0.54,-0.41 0.96,-0.41 0.15,0 0.26,0.01 0.35,0.04l0 0.28c-0.1,-0.03 -0.21,-0.05 -0.34,-0.05 -0.3,0 -0.54,0.09 -0.7,0.28 -0.16,0.19 -0.25,0.49 -0.26,0.89l0.02 0c0.14,-0.22 0.37,-0.33 0.68,-0.33 0.26,0 0.46,0.08 0.6,0.23 0.15,0.15 0.22,0.36 0.22,0.63 0,0.3 -0.08,0.53 -0.24,0.7 -0.16,0.17 -0.38,0.25 -0.65,0.25 -0.29,0 -0.53,-0.11 -0.7,-0.33 -0.17,-0.22 -0.26,-0.53 -0.26,-0.92zm0.95 0.98c0.18,0 0.33,-0.06 0.43,-0.17 0.1,-0.12 0.15,-0.28 0.15,-0.5 0,-0.19 -0.05,-0.33 -0.14,-0.44 -0.09,-0.11 -0.24,-0.16 -0.42,-0.16 -0.12,0 -0.22,0.02 -0.32,0.07 -0.1,0.05 -0.18,0.11 -0.23,0.2 -0.06,0.08 -0.09,0.17 -0.09,0.26 0,0.13 0.03,0.26 0.08,0.37 0.05,0.12 0.13,0.21 0.22,0.27 0.1,0.07 0.2,0.1 0.33,0.1z"/>
  <polygon class="fil3" points="12.41,32.32 13.58,29.78 12.04,29.78 12.04,29.48 13.92,29.48 13.92,29.74 12.76,32.32 "/>
  <path class="fil3" d="M8.09 24.56c0.26,0 0.46,0.06 0.62,0.18 0.15,0.12 0.23,0.29 0.23,0.5 0,0.14 -0.04,0.27 -0.13,0.38 -0.09,0.12 -0.23,0.22 -0.41,0.31 0.23,0.11 0.39,0.23 0.49,0.35 0.1,0.12 0.15,0.26 0.15,0.42 0,0.24 -0.08,0.42 -0.25,0.56 -0.16,0.14 -0.39,0.21 -0.68,0.21 -0.3,0 -0.54,-0.07 -0.7,-0.2 -0.16,-0.13 -0.24,-0.32 -0.24,-0.56 0,-0.33 0.2,-0.58 0.59,-0.76 -0.18,-0.1 -0.31,-0.21 -0.38,-0.33 -0.08,-0.12 -0.12,-0.25 -0.12,-0.39 0,-0.21 0.08,-0.37 0.23,-0.49 0.15,-0.12 0.36,-0.18 0.61,-0.18zm-0.61 2.16c0,0.16 0.05,0.28 0.16,0.36 0.11,0.09 0.26,0.13 0.45,0.13 0.19,0 0.34,-0.04 0.45,-0.14 0.11,-0.09 0.16,-0.22 0.16,-0.37 0,-0.13 -0.05,-0.24 -0.15,-0.34 -0.1,-0.1 -0.28,-0.19 -0.53,-0.28 -0.19,0.08 -0.33,0.17 -0.42,0.27 -0.09,0.1 -0.13,0.22 -0.13,0.36zm0.61 -1.9c-0.16,0 -0.29,0.04 -0.38,0.12 -0.09,0.08 -0.14,0.18 -0.14,0.31 0,0.12 0.04,0.22 0.11,0.31 0.08,0.09 0.22,0.17 0.42,0.26 0.19,-0.08 0.32,-0.16 0.39,-0.25 0.08,-0.09 0.12,-0.19 0.12,-0.31 0,-0.13 -0.05,-0.23 -0.14,-0.31 -0.09,-0.08 -0.22,-0.12 -0.39,-0.12z"/>
  <path class="fil3" d="M7.27 19.46c0,1.11 -0.43,1.66 -1.29,1.66 -0.15,0 -0.27,-0.01 -0.36,-0.04l0 -0.28c0.1,0.03 0.22,0.05 0.35,0.05 0.31,0 0.55,-0.1 0.7,-0.29 0.16,-0.19 0.24,-0.49 0.26,-0.88l-0.02 0c-0.07,0.11 -0.17,0.19 -0.28,0.25 -0.12,0.06 -0.25,0.08 -0.4,0.08 -0.25,0 -0.45,-0.08 -0.6,-0.23 -0.15,-0.15 -0.22,-0.36 -0.22,-0.63 0,-0.29 0.08,-0.53 0.25,-0.7 0.17,-0.17 0.38,-0.26 0.65,-0.26 0.19,0 0.36,0.05 0.51,0.15 0.14,0.1 0.26,0.24 0.33,0.43 0.08,0.19 0.12,0.41 0.12,0.67zm-0.95 -0.98c-0.19,0 -0.33,0.06 -0.43,0.18 -0.1,0.12 -0.15,0.28 -0.15,0.5 0,0.19 0.05,0.33 0.14,0.44 0.09,0.11 0.23,0.16 0.43,0.16 0.12,0 0.23,-0.02 0.33,-0.07 0.1,-0.05 0.18,-0.11 0.23,-0.2 0.06,-0.08 0.09,-0.17 0.09,-0.26 0,-0.14 -0.03,-0.26 -0.08,-0.38 -0.05,-0.11 -0.13,-0.21 -0.22,-0.27 -0.1,-0.07 -0.2,-0.1 -0.33,-0.1z"/>
  <path class="fil3" d="M6.81 14.04l-0.31 0 0 -2.02c0,-0.17 0.01,-0.33 0.02,-0.48 -0.03,0.03 -0.06,0.06 -0.09,0.09 -0.03,0.03 -0.19,0.16 -0.46,0.38l-0.17 -0.22 0.75 -0.58 0.27 0 0 2.84zm2.96 -1.42c0,0.49 -0.08,0.86 -0.23,1.1 -0.16,0.24 -0.39,0.36 -0.71,0.36 -0.31,0 -0.54,-0.12 -0.7,-0.37 -0.16,-0.25 -0.24,-0.61 -0.24,-1.09 0,-0.49 0.08,-0.86 0.23,-1.1 0.15,-0.24 0.39,-0.36 0.7,-0.36 0.31,0 0.54,0.13 0.7,0.37 0.16,0.25 0.24,0.61 0.24,1.08zm-1.55 -0c0,0.41 0.05,0.71 0.15,0.9 0.1,0.19 0.25,0.28 0.46,0.28 0.21,0 0.37,-0.1 0.47,-0.29 0.1,-0.19 0.14,-0.49 0.14,-0.9 0,-0.41 -0.05,-0.71 -0.14,-0.9 -0.1,-0.19 -0.25,-0.28 -0.47,-0.28 -0.21,0 -0.37,0.09 -0.46,0.28 -0.1,0.19 -0.15,0.49 -0.15,0.9z"/>
  <path class="fil3" d="M12.4 9.27l-0.31 0 0 -2.02c0,-0.17 0.01,-0.33 0.02,-0.48 -0.03,0.03 -0.06,0.06 -0.09,0.09 -0.03,0.03 -0.19,0.16 -0.46,0.38l-0.17 -0.22 0.75 -0.58 0.27 0 0 2.84zm2.27 0l-0.31 0 0 -2.02c0,-0.17 0.01,-0.33 0.02,-0.48 -0.03,0.03 -0.06,0.06 -0.09,0.09 -0.03,0.03 -0.19,0.16 -0.46,0.38l-0.17 -0.22 0.75 -0.58 0.27 0 0 2.84z"/>
  <path class="fil3" d="M19.3 8.12l-0.31 0 0 -2.02c0,-0.17 0.01,-0.33 0.02,-0.48 -0.03,0.03 -0.06,0.06 -0.09,0.09 -0.03,0.03 -0.19,0.16 -0.46,0.38l-0.17 -0.22 0.75 -0.58 0.27 0 0 2.84z"/>
  <path class="fil3" d="M21.94 8.12l-1.87 0 0 -0.28 0.75 -0.75c0.23,-0.23 0.38,-0.39 0.45,-0.49 0.07,-0.1 0.13,-0.19 0.16,-0.29 0.04,-0.09 0.05,-0.19 0.05,-0.3 0,-0.15 -0.05,-0.27 -0.14,-0.36 -0.09,-0.09 -0.22,-0.13 -0.38,-0.13 -0.12,0 -0.23,0.02 -0.33,0.06 -0.11,0.04 -0.22,0.11 -0.35,0.21l-0.17 -0.22c0.26,-0.22 0.55,-0.32 0.85,-0.32 0.27,0 0.48,0.07 0.63,0.2 0.15,0.14 0.23,0.32 0.23,0.55 0,0.18 -0.05,0.36 -0.15,0.53 -0.1,0.18 -0.29,0.4 -0.57,0.67l-0.62 0.61 0 0.02 1.46 0 0 0.3z"/>
  <rect class="fil4" transform="matrix(1.33278E-15 0.0503233 -0.109152 2.89086E-15 28.4528 19.4209)" width="10.63" height="83.38"/>
  <rect class="fil4" x="19.52" y="8.67" width="0.34" height="10.75"/>
  <rect class="fil5" transform="matrix(-0.0180141 -0.0180143 -0.077182 0.0771826 19.7321 19.7325)" width="10.63" height="83.38"/>
  <circle class="fil6" cx="19.65" cy="19.64" r="0.47"/>
 </g>
</svg>
