<?xml version="1.0" encoding="UTF-8"?>
<!DOCTYPE svg PUBLIC "-//W3C//DTD SVG 1.1//EN" "http://www.w3.org/Graphics/SVG/1.1/DTD/svg11.dtd">
<!-- Creator: CorelDRAW 2018 (64-Bit Evaluation Version) -->
<svg xmlns="http://www.w3.org/2000/svg" xml:space="preserve" width="210mm" height="297mm" version="1.1" style="shape-rendering:geometricPrecision; text-rendering:geometricPrecision; image-rendering:optimizeQuality; fill-rule:evenodd; clip-rule:evenodd"
viewBox="0 0 21000 29700"
 xmlns:xlink="http://www.w3.org/1999/xlink">
 <defs>
  <style type="text/css">
   <![CDATA[
    .str0 {stroke:white;stroke-width:20;stroke-miterlimit:22.9256}
    .fil5 {fill:none}
    .fil4 {fill:#FEFEFE}
    .fil24 {fill:#009688}
    .fil15 {fill:#0AA79C}
    .fil8 {fill:#212121}
    .fil6 {fill:#27AE61}
    .fil1 {fill:#2980B9}
    .fil25 {fill:#2F9058}
    .fil20 {fill:#3498DB}
    .fil14 {fill:#3F51B5}
    .fil3 {fill:#4CAF50}
    .fil13 {fill:#8BC34A}
    .fil9 {fill:#9E9E9E}
    .fil11 {fill:#A42167}
    .fil16 {fill:#BA875C}
    .fil17 {fill:#C9925A}
    .fil0 {fill:#CCCCCC}
    .fil19 {fill:#D7A570}
    .fil23 {fill:#D8D8D8}
    .fil18 {fill:#E2B078}
    .fil10 {fill:#EB1F28}
    .fil7 {fill:#F1C40F}
    .fil12 {fill:#F47F20}
    .fil22 {fill:#F4F4F4}
    .fil2 {fill:white}
    .fil21 {fill:black;fill-opacity:0.250980}
   ]]>
  </style>
   <clipPath id="id0">
    <path d="M8247.86 15874.48l1947.34 0 0 1439.31 -1947.34 0 0 -1439.31z"/>
   </clipPath>
   <clipPath id="id1">
    <path d="M28263.07 16534.86l1083.73 0 0 -270.93 -1083.73 0 0 270.93z"/>
   </clipPath>
   <clipPath id="id2">
    <path d="M7037.13 17660.94l1016 0 0 1015.99 -1016 0 0 -1015.99z"/>
   </clipPath>
 </defs>
 <g id="Camada_x0020_1">
  <metadata id="CorelCorpID_0Corel-Layer"/>
  <rect class="fil0" x="3049.35" y="14866.95" width="1083.73" height="1083.73"/>
  <rect class="fil1" x="8213.99" y="14333.54" width="2015.08" height="1507.06"/>
  <rect class="fil2" x="8230.93" y="14350.47" width="1981.2" height="1473.2"/>
  <rect class="fil3" x="8213.99" y="15840.6" width="2015.08" height="1507.06"/>
  <rect class="fil4" x="8230.93" y="15857.53" width="1981.2" height="1473.2"/>
  <polygon class="fil3" points="8247.86,15874.48 10195.2,15874.48 10195.2,17313.79 8247.86,17313.79 "/>
  <g style="clip-path:url(#id0)">
   <g id="_2658535270592">
    <ellipse class="fil5 str0" cx="10203.67" cy="15865.99" rx="101.6" ry="101.58"/>
    <ellipse class="fil5 str0" cx="10203.67" cy="17322.28" rx="101.6" ry="101.58"/>
    <ellipse class="fil5 str0" cx="8239.39" cy="15865.99" rx="101.6" ry="101.58"/>
    <ellipse class="fil5 str0" cx="8239.39" cy="17322.28" rx="101.6" ry="101.58"/>
   </g>
  </g>
  <polygon class="fil5" points="8247.86,15874.48 10195.2,15874.48 10195.2,17313.79 8247.86,17313.79 "/>
  <ellipse class="fil5 str0" cx="9221.54" cy="16594.13" rx="211.66" ry="208.36"/>
  <ellipse class="fil5 str0" cx="8637.33" cy="16594.14" rx="128.19" ry="171.04"/>
  <rect class="fil2" x="8230.93" y="16153.86" width="423.33" height="880.55"/>
  <rect class="fil3" x="8247.86" y="16170.79" width="389.47" height="846.7"/>
  <rect class="fil2" x="8230.93" y="16407.89" width="203.2" height="372.5"/>
  <rect class="fil3" x="8247.86" y="16424.26" width="169.33" height="339.76"/>
  <ellipse class="fil5 str0" cx="9805.73" cy="16594.14" rx="128.19" ry="171.04"/>
  <rect class="fil2" x="9788.8" y="16153.86" width="423.33" height="880.55"/>
  <rect class="fil3" x="9805.73" y="16170.79" width="389.47" height="846.7"/>
  <rect class="fil2" x="10008.93" y="16407.89" width="203.2" height="372.5"/>
  <rect class="fil3" x="10025.86" y="16424.26" width="169.33" height="339.76"/>
  <rect class="fil2" x="9213.07" y="15857.53" width="16.93" height="1473.2"/>
  <ellipse class="fil2" cx="9221.54" cy="16594.13" rx="25.79" ry="25.39"/>
  <rect class="fil6" x="10694.74" y="14545.19" width="1083.73" height="745.07"/>
  <rect class="fil4" x="10711.69" y="14562.13" width="1049.84" height="711.2"/>
  <rect class="fil6" x="10728.61" y="14579.06" width="1015.99" height="677.33"/>
  <rect class="fil7" x="10229.07" y="15840.6" width="2015.08" height="1507.06"/>
  <rect class="fil4" x="10246.01" y="15857.53" width="1981.2" height="1473.2"/>
  <rect class="fil7" x="10262.94" y="15874.48" width="1947.34" height="1439.31"/>
  <rect class="fil8" x="12320.33" y="14223.47" width="1540.92" height="1540.94"/>
  <rect class="fil4" x="12337.27" y="14240.4" width="1507.04" height="1507.08"/>
  <rect class="fil8" x="12354.2" y="14257.35" width="1473.18" height="1473.19"/>
  <rect class="fil9" x="12371.12" y="14274.25" width="1439.34" height="1439.39"/>
  <polygon class="fil10" points="13810.47,14274.27 13090.84,14993.94 12371.2,14274.27 "/>
  <polygon class="fil11" points="13810.47,14992.86 13450.88,14633.83 13810.47,14274.8 "/>
  <polygon class="fil11" points="13810.47,14993.93 13450.88,14634.37 13810.47,14274.8 "/>
  <polygon class="fil12" points="12371.13,15713.61 13090.79,14993.94 12371.13,14274.27 "/>
  <polygon class="fil13" points="13810.46,14993.93 13810.46,15713.61 13094.62,15713.62 "/>
  <rect class="fil14" transform="matrix(1.00298 -0 -0.995012 0.986638 12729.3 15358.5)" width="717.03" height="359.98"/>
  <polygon class="fil1" points="13452.26,15358 13090.79,14993.94 12729.31,15358 "/>
  <rect class="fil15" transform="matrix(0.732663 -0.732755 0.732663 0.732755 13090.8 14993.9)" width="491.07" height="491.07"/>
  <g id="_2658037106672">
   <path class="fil16" d="M18242.93 18768.08c197.65,61.69 758.85,368.51 892.71,383.13 90.69,9.91 769.71,-318.44 911.97,-371.41 -66.8,-87.95 -68.13,-66.2 -222.68,-133.3l-1549.08 -708.28c286.36,-196.48 1639.16,-667.3 1753.63,-815.68 -134.52,-90.43 -468.06,-214.62 -639.65,-291.75 -350.66,-157.63 -375.29,-42.23 -708.39,98.56 -232.28,98.18 -454.38,199.86 -685.8,301.22 -147.24,64.48 -571.94,221.3 -682.48,334.57l889.96 376.7 -874.45 404.36 914.26 421.88z"/>
   <path class="fil16" d="M20113.05 17124.2l-8.99 41.75c235.14,64.56 680.1,269.21 898.73,377.24 283.29,139.97 638.17,253.89 904.37,406.96l-1823.91 801.11 2.93 17.44c146.78,74.33 825.3,398.46 932.07,386.02 51.49,-5.99 854.52,-363.29 926.19,-406.89 163.63,-50.63 744.68,-307.63 871.3,-392.27 -218.09,-161.15 -696.05,-256.12 -868.25,-418.03l849.47 -417.3c-5.51,-3.84 -16.46,-12.81 -23.29,-17.29 -26.42,-17.36 -67.32,-38.99 -95.64,-51.92l-1198.47 -525.63c-294.37,-132.51 -384.26,-254.04 -666.65,-120.19 -212.76,100.85 -515.43,201.02 -699.86,319z"/>
   <path class="fil17" d="M20086.18 18768.7l-18.23 1920.46 1875.61 -810.26 0.88 -1131.07c-71.67,43.6 -874.7,400.9 -926.19,406.89 -106.77,12.44 -785.29,-311.69 -932.07,-386.02z"/>
   <path class="fil18" d="M20067.95 20689.16l18.23 -1920.46 -38.57 11.1c-142.26,52.97 -821.28,381.32 -911.97,371.41 -133.86,-14.62 -695.06,-321.44 -892.71,-383.13l3.65 1105.57 1821.37 815.51z"/>
   <path class="fil19" d="M20083.25 18751.26l1823.91 -801.11c-266.2,-153.07 -621.08,-266.99 -904.37,-406.96 -218.63,-108.03 -663.59,-312.68 -898.73,-377.24 -89.54,155.78 -36.64,1315.31 -20.81,1585.31z"/>
   <path class="fil17" d="M20047.61 18779.8l38.57 -11.1 -2.93 -17.44c-15.83,-270 -68.73,-1429.53 20.81,-1585.31l8.99 -41.75 -83.57 -1.66c-114.47,148.38 -1467.27,619.2 -1753.63,815.68l1549.08 708.28c154.55,67.1 155.88,45.35 222.68,133.3z"/>
  </g>
  <line class="fil5" x1="25007.15" y1="17889.38" x2="24998.03" y2= "16314.06" />
  <rect class="fil1" x="27077.73" y="16263.93" width="948.27" height="948.27"/>
  <rect class="fil20" x="27010" y="16263.93" width="1083.73" height="270.93"/>
  <polygon class="fil21" points="27077.74,16534.86 28026.01,16534.86 28026.01,16577.2 27077.74,16577.2 "/>
  <rect class="fil22" x="27484.14" y="16263.93" width="135.46" height="948.27"/>
  <rect class="fil23" x="27416.4" y="16263.93" width="67.74" height="948.27"/>
  <rect class="fil23" x="27619.6" y="16263.93" width="67.73" height="948.27"/>
  <rect class="fil1" x="28330.79" y="16534.86" width="948.27" height="677.34"/>
  <polygon class="fil20" points="28263.07,16534.86 29346.8,16534.86 29346.8,16263.93 28263.07,16263.93 "/>
  <g style="clip-path:url(#id1)">
   <g id="_2658035289232">
    <rect class="fil22" x="28737.2" y="16263.93" width="135.46" height="948.27"/>
    <rect class="fil23" x="28669.46" y="16263.93" width="67.74" height="948.27"/>
    <rect class="fil23" x="28872.66" y="16263.93" width="67.73" height="948.27"/>
   </g>
  </g>
  <polygon class="fil5" points="28263.07,16534.86 29346.8,16534.86 29346.8,16263.93 28263.07,16263.93 "/>
  <polygon class="fil21" points="28330.8,16534.86 29279.07,16534.86 29279.07,16577.2 28330.8,16577.2 "/>
  <rect class="fil22" x="28737.2" y="16534.86" width="135.46" height="677.34"/>
  <rect class="fil23" x="28669.46" y="16534.86" width="67.74" height="677.34"/>
  <rect class="fil23" x="28872.66" y="16534.86" width="67.73" height="677.34"/>
  <polygon class="fil6" points="5366.07,14799.3 5637,15006.27 5907.93,15213.24 5804.45,15548.13 5700.96,15883.02 5366.07,15883.02 5031.18,15883.02 4927.69,15548.13 4824.2,15213.24 5095.14,15006.27 "/>
  <rect class="fil24" x="3083.21" y="14900.81" width="1016.01" height="1016.01"/>
  <polygon class="fil2" points="5366.07,14826.79 5624.48,15024.2 5882.89,15221.6 5784.18,15541.01 5685.48,15860.42 5366.07,15860.42 5046.66,15860.42 4947.96,15541.01 4849.25,15221.6 5107.66,15024.2 "/>
  <polygon class="fil6" points="5366.07,14853.95 5612.06,15041.87 5858.04,15229.78 5764.08,15533.84 5670.12,15837.89 5366.07,15837.89 5062.01,15837.89 4968.06,15533.84 4874.1,15229.78 5120.08,15041.87 "/>
  <path class="fil2" d="M6713.78 16661.87l-469.08 -257.57 -469.09 -257.57 -0.01 515.14 0.01 515.15 469.09 -257.58 469.08 -257.57zm-31.33 0l-444.96 -244.3 -444.95 -244.34 0 488.63 0 488.64 444.97 -244.3 444.94 -244.33z"/>
  <rect class="fil25" x="10864.07" y="13148.2" width="1083.73" height="84.68"/>
  <rect class="fil4" x="10881.01" y="13165.14" width="1049.85" height="50.8"/>
  <rect class="fil25" x="10897.94" y="13182.07" width="1015.99" height="16.94"/>
  <rect class="fil25" x="10864.07" y="13656.19" width="1083.73" height="84.68"/>
  <rect class="fil4" x="10881.01" y="13673.13" width="1049.85" height="50.8"/>
  <rect class="fil25" x="10897.94" y="13690.06" width="1015.99" height="16.94"/>
  <rect class="fil25" x="10864.07" y="13486.87" width="1083.73" height="84.68"/>
  <rect class="fil4" x="10881.01" y="13503.81" width="1049.85" height="50.8"/>
  <rect class="fil25" x="10897.94" y="13520.74" width="1015.99" height="16.94"/>
  <rect class="fil25" x="10864.07" y="12978.85" width="1083.73" height="84.68"/>
  <rect class="fil4" x="10881.01" y="12995.79" width="1049.85" height="50.8"/>
  <rect class="fil25" x="10897.94" y="13012.72" width="1015.99" height="16.94"/>
  <rect class="fil25" x="10864.07" y="12809.53" width="1083.73" height="84.68"/>
  <rect class="fil4" x="10881.01" y="12826.47" width="1049.85" height="50.8"/>
  <rect class="fil25" x="10897.94" y="12843.4" width="1015.99" height="16.94"/>
  <rect class="fil25" x="10864.07" y="13825.52" width="1083.73" height="84.68"/>
  <rect class="fil4" x="10881.01" y="13842.46" width="1049.85" height="50.8"/>
  <rect class="fil25" x="10897.94" y="13859.39" width="1015.99" height="16.94"/>
  <rect class="fil6" x="7003.27" y="17627.06" width="1083.73" height="1083.73"/>
  <rect class="fil4" x="7020.2" y="17644" width="1049.86" height="1049.87"/>
  <polygon class="fil6" points="7037.13,17660.94 8053.13,17660.94 8053.13,18676.93 7037.13,18676.93 "/>
  <g style="clip-path:url(#id2)">
   <g id="_2658033930000">
    <ellipse class="fil5 str0" cx="7032.71" cy="17654.94" rx="53.01" ry="71.7"/>
    <ellipse class="fil5 str0" cx="7032.71" cy="18682.92" rx="53.01" ry="71.7"/>
    <ellipse class="fil5 str0" cx="8057.55" cy="17654.94" rx="53.01" ry="71.7"/>
    <ellipse class="fil5 str0" cx="8057.55" cy="18682.92" rx="53.01" ry="71.7"/>
   </g>
  </g>
  <polygon class="fil5" points="7037.13,17660.94 8053.13,17660.94 8053.13,18676.93 7037.13,18676.93 "/>
  <rect class="fil6" x="7003.27" y="18626.12" width="1083.73" height="84.68"/>
  <rect class="fil4" x="7020.21" y="18643.06" width="1049.85" height="50.8"/>
  <rect class="fil6" x="7037.14" y="18659.99" width="1015.99" height="16.94"/>
  <rect class="fil6" x="7003.27" y="17627.07" width="1083.73" height="84.68"/>
  <rect class="fil4" x="7020.21" y="17644.01" width="1049.85" height="50.8"/>
  <rect class="fil6" x="7037.14" y="17660.94" width="1015.99" height="16.94"/>
  <rect class="fil6" transform="matrix(0.119625 -0.119626 -0.0176706 -0.0176707 6258.21 18634.6)" width="4529.67" height="2396.07"/>
  <rect class="fil4" transform="matrix(0.115884 -0.115885 -0.0106007 -0.0106008 6258.21 18617.7)" width="4529.67" height="2396.07"/>
  <rect class="fil6" transform="matrix(0.112148 -0.112148 0.00353499 0.00353501 6249.74 18592.3)" width="4529.67" height="2396.07"/>
  <rect class="fil6" transform="matrix(0.119625 -0.119626 -0.0176706 -0.0176707 5758.69 18135.1)" width="4529.67" height="2396.07"/>
  <rect class="fil4" transform="matrix(0.115884 -0.115885 -0.0106007 -0.0106008 5758.69 18118.1)" width="4529.67" height="2396.07"/>
  <rect class="fil6" transform="matrix(0.112148 -0.112148 0.00353499 0.00353501 5750.22 18092.7)" width="4529.67" height="2396.07"/>
  <rect class="fil6" transform="matrix(-0.119625 -0.119626 -0.0176706 0.0176707 6800.08 18092.7)" width="4529.67" height="2396.07"/>
  <rect class="fil4" transform="matrix(-0.115884 -0.115885 -0.0106007 0.0106008 6783.13 18092.7)" width="4529.67" height="2396.07"/>
  <rect class="fil6" transform="matrix(-0.112148 -0.112148 0.00353499 -0.00353501 6757.74 18101.2)" width="4529.67" height="2396.07"/>
  <rect class="fil6" transform="matrix(-0.119625 -0.119626 -0.0176706 0.0176707 6300.56 18592.3)" width="4529.67" height="2396.07"/>
  <rect class="fil4" transform="matrix(-0.115884 -0.115885 -0.0106007 0.0106008 6283.61 18592.3)" width="4529.67" height="2396.07"/>
  <rect class="fil6" transform="matrix(-0.112148 -0.112148 0.00353499 -0.00353501 6258.22 18600.7)" width="4529.67" height="2396.07"/>
  <rect class="fil1" x="8290.2" y="15459.6" width="423.33" height="296.33"/>
  <rect class="fil1" x="9738" y="15459.6" width="423.33" height="296.33"/>
  <rect class="fil1" x="8772.8" y="15459.6" width="423.33" height="296.33"/>
  <rect class="fil1" x="9255.4" y="15459.6" width="423.33" height="296.33"/>
  <rect class="fil1" x="8290.2" y="15112.47" width="423.33" height="296.33"/>
  <rect class="fil1" x="9738" y="15112.47" width="423.33" height="296.33"/>
  <rect class="fil1" x="8772.8" y="15112.47" width="423.33" height="296.33"/>
  <rect class="fil1" x="9255.4" y="15112.47" width="423.33" height="296.33"/>
  <rect class="fil1" x="8290.2" y="14765.34" width="423.33" height="296.33"/>
  <rect class="fil1" x="9738" y="14765.34" width="423.33" height="296.33"/>
  <rect class="fil1" x="8772.8" y="14765.34" width="423.33" height="296.33"/>
  <rect class="fil1" x="9255.4" y="14765.34" width="423.33" height="296.33"/>
  <rect class="fil1" x="8290.2" y="14418.21" width="423.33" height="296.33"/>
  <rect class="fil1" x="9738" y="14418.21" width="423.33" height="296.33"/>
  <rect class="fil1" x="8772.8" y="14418.21" width="423.33" height="296.33"/>
  <rect class="fil1" x="9255.4" y="14418.21" width="423.33" height="296.33"/>
 </g>
</svg>
