<?xml version="1.0" encoding="UTF-8"?>
<!DOCTYPE svg PUBLIC "-//W3C//DTD SVG 1.1//EN" "http://www.w3.org/Graphics/SVG/1.1/DTD/svg11.dtd">
<!-- Creator: CorelDRAW 2018 (64-Bit) -->
<svg xmlns="http://www.w3.org/2000/svg" xml:space="preserve" width="2.33334in" height="0.692622in" version="1.1" style="shape-rendering:geometricPrecision; text-rendering:geometricPrecision; image-rendering:optimizeQuality; fill-rule:evenodd; clip-rule:evenodd"
viewBox="0 0 105.95 31.45"
 xmlns:xlink="http://www.w3.org/1999/xlink">
 <defs>
  <style type="text/css">
   <![CDATA[
    .str0 {stroke:#666666;stroke-width:0.36;stroke-miterlimit:2.61313}
    .fil0 {fill:none}
    .fil4 {fill:#0AA79C}
    .fil5 {fill:#2F9058}
    .fil8 {fill:#3F51B5}
    .fil1 {fill:#607D8B}
    .fil3 {fill:#689F38}
    .fil7 {fill:#B71C1C}
    .fil6 {fill:#F1C40F}
    .fil2 {fill:#F47F20}
   ]]>
  </style>
 </defs>
 <g id="Layer_x0020_1">
  <metadata id="CorelCorpID_0Corel-Layer"/>
  <rect class="fil0" x="0" y="1.16" width="105.95" height="13.56"/>
  <rect class="fil0" x="0" y="17.72" width="105.95" height="13.56"/>
  <path class="fil1" d="M96.29 6l-0.48 0 -3.29 -4.12c-0.37,-0.46 -0.92,-0.73 -1.51,-0.73l-6.48 0c-0.79,0 -1.5,0.48 -1.8,1.22l-1.45 3.69c-0.83,0.22 -1.45,0.97 -1.45,1.87l0 3.39c0,0.27 0.22,0.48 0.48,0.48l1.45 0c0,1.6 1.3,2.91 2.91,2.91 1.6,0 2.91,-1.3 2.91,-2.91l3.87 0c0,1.6 1.3,2.91 2.91,2.91 1.6,0 2.91,-1.3 2.91,-2.91l1.45 0c0.27,0 0.48,-0.22 0.48,-0.48l0 -2.42c0,-1.6 -1.3,-2.91 -2.91,-2.91zm-11.62 7.27c-0.8,0 -1.45,-0.65 -1.45,-1.45 0,-0.8 0.65,-1.45 1.45,-1.45 0.8,0 1.45,0.65 1.45,1.45 0,0.8 -0.65,1.45 -1.45,1.45zm2.18 -7.27l-3.48 0 1.16 -2.91 2.32 0 0 2.91zm1.45 0l0 -2.91 2.7 0 2.32 2.91 -5.03 0zm6.05 7.27c-0.8,0 -1.45,-0.65 -1.45,-1.45 0,-0.8 0.65,-1.45 1.45,-1.45 0.8,0 1.45,0.65 1.45,1.45 0,0.8 -0.65,1.45 -1.45,1.45z"/>
  <path class="fil2" d="M23.22 6l-0.48 0 -3.29 -4.12c-0.37,-0.46 -0.92,-0.73 -1.51,-0.73l-6.48 0c-0.79,0 -1.5,0.48 -1.8,1.22l-1.45 3.69c-0.83,0.22 -1.45,0.97 -1.45,1.87l0 3.39c0,0.27 0.22,0.48 0.48,0.48l1.45 0c0,1.6 1.3,2.91 2.91,2.91 1.6,0 2.91,-1.3 2.91,-2.91l3.87 0c0,1.6 1.3,2.91 2.91,2.91 1.6,0 2.91,-1.3 2.91,-2.91l1.45 0c0.27,0 0.48,-0.22 0.48,-0.48l0 -2.42c0,-1.6 -1.3,-2.91 -2.91,-2.91zm-11.62 7.27c-0.8,0 -1.45,-0.65 -1.45,-1.45 0,-0.8 0.65,-1.45 1.45,-1.45 0.8,0 1.45,0.65 1.45,1.45 0,0.8 -0.65,1.45 -1.45,1.45zm2.18 -7.27l-3.48 0 1.16 -2.91 2.32 0 0 2.91zm1.45 0l0 -2.91 2.7 0 2.32 2.91 -5.03 0zm6.05 7.27c-0.8,0 -1.45,-0.65 -1.45,-1.45 0,-0.8 0.65,-1.45 1.45,-1.45 0.8,0 1.45,0.65 1.45,1.45 0,0.8 -0.65,1.45 -1.45,1.45z"/>
  <path class="fil3" d="M47.93 6.17l-0.48 0 -3.29 -4.12c-0.37,-0.46 -0.92,-0.73 -1.51,-0.73l-6.48 0c-0.79,0 -1.5,0.48 -1.8,1.22l-1.45 3.69c-0.83,0.22 -1.45,0.97 -1.45,1.87l0 3.39c0,0.27 0.22,0.48 0.48,0.48l1.45 0c0,1.6 1.3,2.91 2.91,2.91 1.6,0 2.91,-1.3 2.91,-2.91l3.87 0c0,1.6 1.3,2.91 2.91,2.91 1.6,0 2.91,-1.3 2.91,-2.91l1.45 0c0.27,0 0.48,-0.22 0.48,-0.48l0 -2.42c0,-1.6 -1.3,-2.91 -2.91,-2.91zm-11.62 7.27c-0.8,0 -1.45,-0.65 -1.45,-1.45 0,-0.8 0.65,-1.45 1.45,-1.45 0.8,0 1.45,0.65 1.45,1.45 0,0.8 -0.65,1.45 -1.45,1.45zm2.18 -7.27l-3.48 0 1.16 -2.91 2.32 0 0 2.91zm1.45 0l0 -2.91 2.7 0 2.32 2.91 -5.03 0zm6.05 7.27c-0.8,0 -1.45,-0.65 -1.45,-1.45 0,-0.8 0.65,-1.45 1.45,-1.45 0.8,0 1.45,0.65 1.45,1.45 0,0.8 -0.65,1.45 -1.45,1.45z"/>
  <path class="fil4" d="M72.11 6.17l-0.48 0 -3.29 -4.12c-0.37,-0.46 -0.92,-0.73 -1.51,-0.73l-6.48 0c-0.79,0 -1.5,0.48 -1.8,1.22l-1.45 3.69c-0.83,0.22 -1.45,0.97 -1.45,1.87l0 3.39c0,0.27 0.22,0.48 0.48,0.48l1.45 0c0,1.6 1.3,2.91 2.91,2.91 1.6,0 2.91,-1.3 2.91,-2.91l3.87 0c0,1.6 1.3,2.91 2.91,2.91 1.6,0 2.91,-1.3 2.91,-2.91l1.45 0c0.27,0 0.48,-0.22 0.48,-0.48l0 -2.42c0,-1.6 -1.3,-2.91 -2.91,-2.91zm-11.62 7.27c-0.8,0 -1.45,-0.65 -1.45,-1.45 0,-0.8 0.65,-1.45 1.45,-1.45 0.8,0 1.45,0.65 1.45,1.45 0,0.8 -0.65,1.45 -1.45,1.45zm2.18 -7.27l-3.48 0 1.16 -2.91 2.32 0 0 2.91zm1.45 0l0 -2.91 2.7 0 2.32 2.91 -5.03 0zm6.05 7.27c-0.8,0 -1.45,-0.65 -1.45,-1.45 0,-0.8 0.65,-1.45 1.45,-1.45 0.8,0 1.45,0.65 1.45,1.45 0,0.8 -0.65,1.45 -1.45,1.45z"/>
  <path class="fil5" d="M47.4 22.56l-0.48 0 -3.29 -4.12c-0.37,-0.46 -0.92,-0.73 -1.51,-0.73l-6.48 0c-0.79,0 -1.5,0.48 -1.8,1.22l-1.45 3.69c-0.83,0.22 -1.45,0.97 -1.45,1.87l0 3.39c0,0.27 0.22,0.48 0.48,0.48l1.45 0c0,1.6 1.3,2.91 2.91,2.91 1.6,0 2.91,-1.3 2.91,-2.91l3.87 0c0,1.6 1.3,2.91 2.91,2.91 1.6,0 2.91,-1.3 2.91,-2.91l1.45 0c0.27,0 0.48,-0.22 0.48,-0.48l0 -2.42c0,-1.6 -1.3,-2.91 -2.91,-2.91zm-11.62 7.27c-0.8,0 -1.45,-0.65 -1.45,-1.45 0,-0.8 0.65,-1.45 1.45,-1.45 0.8,0 1.45,0.65 1.45,1.45 0,0.8 -0.65,1.45 -1.45,1.45zm2.18 -7.27l-3.48 0 1.16 -2.91 2.32 0 0 2.91zm1.45 0l0 -2.91 2.7 0 2.32 2.91 -5.03 0zm6.05 7.27c-0.8,0 -1.45,-0.65 -1.45,-1.45 0,-0.8 0.65,-1.45 1.45,-1.45 0.8,0 1.45,0.65 1.45,1.45 0,0.8 -0.65,1.45 -1.45,1.45z"/>
  <path class="fil6" d="M71.58 22.56l-0.48 0 -3.29 -4.12c-0.37,-0.46 -0.92,-0.73 -1.51,-0.73l-6.48 0c-0.79,0 -1.5,0.48 -1.8,1.22l-1.45 3.69c-0.83,0.22 -1.45,0.97 -1.45,1.87l0 3.39c0,0.27 0.22,0.48 0.48,0.48l1.45 0c0,1.6 1.3,2.91 2.91,2.91 1.6,0 2.91,-1.3 2.91,-2.91l3.87 0c0,1.6 1.3,2.91 2.91,2.91 1.6,0 2.91,-1.3 2.91,-2.91l1.45 0c0.27,0 0.48,-0.22 0.48,-0.48l0 -2.42c0,-1.6 -1.3,-2.91 -2.91,-2.91zm-11.62 7.27c-0.8,0 -1.45,-0.65 -1.45,-1.45 0,-0.8 0.65,-1.45 1.45,-1.45 0.8,0 1.45,0.65 1.45,1.45 0,0.8 -0.65,1.45 -1.45,1.45zm2.18 -7.27l-3.48 0 1.16 -2.91 2.32 0 0 2.91zm1.45 0l0 -2.91 2.7 0 2.32 2.91 -5.03 0zm6.05 7.27c-0.8,0 -1.45,-0.65 -1.45,-1.45 0,-0.8 0.65,-1.45 1.45,-1.45 0.8,0 1.45,0.65 1.45,1.45 0,0.8 -0.65,1.45 -1.45,1.45z"/>
  <path class="fil7" d="M96.29 22.73l-0.48 0 -3.29 -4.12c-0.37,-0.46 -0.92,-0.73 -1.51,-0.73l-6.48 0c-0.79,0 -1.5,0.48 -1.8,1.22l-1.45 3.69c-0.83,0.22 -1.45,0.97 -1.45,1.87l0 3.39c0,0.27 0.22,0.48 0.48,0.48l1.45 0c0,1.6 1.3,2.91 2.91,2.91 1.6,0 2.91,-1.3 2.91,-2.91l3.87 0c0,1.6 1.3,2.91 2.91,2.91 1.6,0 2.91,-1.3 2.91,-2.91l1.45 0c0.27,0 0.48,-0.22 0.48,-0.48l0 -2.42c0,-1.6 -1.3,-2.91 -2.91,-2.91zm-11.62 7.27c-0.8,0 -1.45,-0.65 -1.45,-1.45 0,-0.8 0.65,-1.45 1.45,-1.45 0.8,0 1.45,0.65 1.45,1.45 0,0.8 -0.65,1.45 -1.45,1.45zm2.18 -7.27l-3.48 0 1.16 -2.91 2.32 0 0 2.91zm1.45 0l0 -2.91 2.7 0 2.32 2.91 -5.03 0zm6.05 7.27c-0.8,0 -1.45,-0.65 -1.45,-1.45 0,-0.8 0.65,-1.45 1.45,-1.45 0.8,0 1.45,0.65 1.45,1.45 0,0.8 -0.65,1.45 -1.45,1.45z"/>
  <path class="fil8" d="M23.22 22.73l-0.48 0 -3.29 -4.12c-0.37,-0.46 -0.92,-0.73 -1.51,-0.73l-6.48 0c-0.79,0 -1.5,0.48 -1.8,1.22l-1.45 3.69c-0.83,0.22 -1.45,0.97 -1.45,1.87l0 3.39c0,0.27 0.22,0.48 0.48,0.48l1.45 0c0,1.6 1.3,2.91 2.91,2.91 1.6,0 2.91,-1.3 2.91,-2.91l3.87 0c0,1.6 1.3,2.91 2.91,2.91 1.6,0 2.91,-1.3 2.91,-2.91l1.45 0c0.27,0 0.48,-0.22 0.48,-0.48l0 -2.42c0,-1.6 -1.3,-2.91 -2.91,-2.91zm-11.62 7.27c-0.8,0 -1.45,-0.65 -1.45,-1.45 0,-0.8 0.65,-1.45 1.45,-1.45 0.8,0 1.45,0.65 1.45,1.45 0,0.8 -0.65,1.45 -1.45,1.45zm2.18 -7.27l-3.48 0 1.16 -2.91 2.32 0 0 2.91zm1.45 0l0 -2.91 2.7 0 2.32 2.91 -5.03 0zm6.05 7.27c-0.8,0 -1.45,-0.65 -1.45,-1.45 0,-0.8 0.65,-1.45 1.45,-1.45 0.8,0 1.45,0.65 1.45,1.45 0,0.8 -0.65,1.45 -1.45,1.45z"/>
  <rect class="fil0 str0" x="28.06" y="0.18" width="74.53" height="15.86" rx="2.48" ry="2.13"/>
 </g>
</svg>
