<?xml version="1.0" encoding="UTF-8"?>
<!DOCTYPE svg PUBLIC "-//W3C//DTD SVG 1.1//EN" "http://www.w3.org/Graphics/SVG/1.1/DTD/svg11.dtd">
<!-- Creator: CorelDRAW 2018 (64-Bit) -->
<svg xmlns="http://www.w3.org/2000/svg" xml:space="preserve" width="3.33176in" height="1.4927in" version="1.1" style="shape-rendering:geometricPrecision; text-rendering:geometricPrecision; image-rendering:optimizeQuality; fill-rule:evenodd; clip-rule:evenodd"
viewBox="0 0 277.74 124.43"
 xmlns:xlink="http://www.w3.org/1999/xlink">
 <defs>
  <style type="text/css">
   <![CDATA[
    .fil7 {fill:none}
    .fil5 {fill:#009688;fill-rule:nonzero}
    .fil2 {fill:#0AA79C;fill-rule:nonzero}
    .fil6 {fill:#2980B9;fill-rule:nonzero}
    .fil1 {fill:#3F51B5;fill-rule:nonzero}
    .fil3 {fill:#689F38;fill-rule:nonzero}
    .fil4 {fill:#C0392B;fill-rule:nonzero}
    .fil0 {fill:#F47F20;fill-rule:nonzero}
   ]]>
  </style>
 </defs>
 <g id="Layer_x0020_1">
  <metadata id="CorelCorpID_0Corel-Layer"/>
  <g id="_2395080385968">
   <path class="fil0" d="M41.44 38.01c1.11,-0.8 2.12,-1.38 3.02,-1.74 0.9,-0.36 1.91,-0.54 3.04,-0.54 1.13,0 2.11,0.38 2.95,1.14 0.83,0.76 1.25,1.82 1.25,3.18 0,1.36 -1.07,2.79 -3.22,4.29 1.85,0.96 2.78,2.26 2.78,3.9 0,1.64 -0.61,2.99 -1.83,4.04 -1.22,1.06 -2.45,1.58 -3.67,1.58 -1.22,0 -2.34,-0.19 -3.36,-0.58l-0.5 -3.06c0.65,0.2 1.45,0.31 2.39,0.31 0.94,0 1.79,-0.21 2.53,-0.63 0.74,-0.42 1.11,-0.91 1.11,-1.47 0,-0.56 -0.23,-1.04 -0.69,-1.42 -0.46,-0.38 -1.06,-0.57 -1.78,-0.57 -0.72,0 -1.5,0.13 -2.33,0.39l-0.94 -2.86c1.94,-0.65 3.44,-1.34 4.49,-2.07 1.05,-0.73 1.57,-1.39 1.57,-1.99 0,-0.67 -0.36,-1 -1.08,-1 -0.96,0 -2.27,0.57 -3.92,1.72l-1.78 -2.64zm9.84 33.04c1.11,-0.8 2.12,-1.38 3.02,-1.74 0.9,-0.36 1.91,-0.54 3.04,-0.54 1.13,0 2.11,0.38 2.95,1.14 0.83,0.76 1.25,1.82 1.25,3.18 0,1.36 -1.07,2.79 -3.22,4.29 1.85,0.96 2.78,2.26 2.78,3.9 0,1.64 -0.61,2.99 -1.83,4.04 -1.22,1.06 -2.45,1.58 -3.67,1.58 -1.22,0 -2.34,-0.19 -3.36,-0.58l-0.5 -3.06c0.65,0.2 1.45,0.31 2.39,0.31 0.94,0 1.79,-0.21 2.53,-0.63 0.74,-0.42 1.11,-0.91 1.11,-1.47 0,-0.56 -0.23,-1.04 -0.69,-1.42 -0.46,-0.38 -1.06,-0.57 -1.78,-0.57 -0.72,0 -1.5,0.13 -2.33,0.39l-0.94 -2.86c1.94,-0.65 3.44,-1.34 4.49,-2.07 1.05,-0.73 1.57,-1.39 1.57,-1.99 0,-0.67 -0.36,-1 -1.08,-1 -0.96,0 -2.27,0.57 -3.92,1.72l-1.78 -2.64z"/>
   <path class="fil1" d="M96.3 47.84c0,4 0.85,7.77 2.56,11.31l-3.61 1.28c-1.8,-3.3 -2.7,-7.31 -2.7,-12.03 0,-2.78 0.32,-5.55 0.97,-8.31 0.65,-2.76 1.46,-5.06 2.45,-6.89l2.67 1.5c-0.67,1.56 -1.22,3.53 -1.67,5.93 -0.44,2.4 -0.67,4.8 -0.67,7.21zm70.27 -2.11c0,-4 -0.85,-7.77 -2.56,-11.31l3.61 -1.28c1.8,3.3 2.7,7.31 2.7,12.03 0,2.78 -0.32,5.55 -0.97,8.31 -0.65,2.76 -1.46,5.06 -2.45,6.89l-2.67 -1.5c0.67,-1.56 1.22,-3.53 1.67,-5.93 0.44,-2.4 0.67,-4.8 0.67,-7.21zm-120.32 35.15c0,4 0.85,7.77 2.56,11.31l-3.61 1.28c-1.8,-3.3 -2.7,-7.31 -2.7,-12.03 0,-2.78 0.32,-5.55 0.97,-8.31 0.65,-2.76 1.46,-5.06 2.45,-6.89l2.67 1.5c-0.67,1.56 -1.22,3.53 -1.67,5.93 -0.44,2.4 -0.67,4.8 -0.67,7.21zm70.27 -2.11c0,-4 -0.85,-7.77 -2.56,-11.31l3.61 -1.28c1.8,3.3 2.7,7.31 2.7,12.03 0,2.78 -0.32,5.55 -0.97,8.31 -0.65,2.76 -1.46,5.06 -2.45,6.89l-2.67 -1.5c0.67,-1.56 1.22,-3.53 1.67,-5.93 0.44,-2.4 0.67,-4.8 0.67,-7.21z"/>
   <path class="fil2" d="M63.84 50.93c2.74,-2.91 4.54,-4.81 5.39,-5.7 -2.52,-2.52 -4.44,-4.57 -5.75,-6.14l2.67 -1.72c1.45,1.67 3.22,3.54 5.34,5.61 2.39,-2.37 4.51,-4.26 6.36,-5.67l2 2.7c-1.83,1.37 -3.83,3.13 -5.97,5.28 2.67,2.56 4.61,4.46 5.84,5.72l-2.36 2.36c-1.28,-1.39 -3.19,-3.33 -5.72,-5.81 -2.87,2.96 -4.77,4.87 -5.7,5.72l-2.08 -2.36zm59.88 0c2.74,-2.91 4.54,-4.81 5.39,-5.7 -2.52,-2.52 -4.44,-4.57 -5.75,-6.14l2.67 -1.72c1.45,1.67 3.22,3.54 5.34,5.61 2.39,-2.37 4.51,-4.26 6.36,-5.67l2 2.7c-1.83,1.37 -3.83,3.13 -5.97,5.28 2.67,2.56 4.61,4.46 5.84,5.72l-2.36 2.36c-1.28,-1.39 -3.19,-3.33 -5.72,-5.81 -2.87,2.96 -4.77,4.87 -5.7,5.72l-2.08 -2.36zm-50.04 33.04c2.74,-2.91 4.54,-4.81 5.39,-5.7 -2.52,-2.52 -4.44,-4.57 -5.75,-6.14l2.67 -1.72c1.45,1.67 3.22,3.54 5.34,5.61 2.39,-2.37 4.51,-4.26 6.36,-5.67l2 2.7c-1.83,1.37 -3.83,3.13 -5.97,5.28 2.67,2.56 4.61,4.46 5.84,5.72l-2.36 2.36c-1.28,-1.39 -3.19,-3.33 -5.72,-5.81 -2.87,2.96 -4.77,4.87 -5.7,5.72l-2.08 -2.36zm59.88 0c2.74,-2.91 4.54,-4.81 5.39,-5.7 -2.52,-2.52 -4.44,-4.57 -5.75,-6.14l2.67 -1.72c1.45,1.67 3.22,3.54 5.34,5.61 2.39,-2.37 4.51,-4.26 6.36,-5.67l2 2.7c-1.83,1.37 -3.83,3.13 -5.97,5.28 2.67,2.56 4.61,4.46 5.84,5.72l-2.36 2.36c-1.28,-1.39 -3.19,-3.33 -5.72,-5.81 -2.87,2.96 -4.77,4.87 -5.7,5.72l-2.08 -2.36z"/>
   <path class="fil3" d="M111.38 35.64l0 3.06c-1.48,0 -3.1,0.14 -4.86,0.42 -0.02,0.19 -0.21,1.46 -0.58,3.83 1.89,0 3.39,0.39 4.5,1.18 1.11,0.79 1.67,1.9 1.67,3.35 0,3.3 -3.05,5.59 -9.14,6.89l-0.78 -3c4.21,-0.93 6.31,-2.13 6.31,-3.61 0,-0.52 -0.27,-0.94 -0.82,-1.28 -0.55,-0.33 -1.21,-0.5 -1.99,-0.5 -0.24,0 -0.94,0.12 -2.08,0.36l-1.61 -1.28 1.56 -8.42c3.09,-0.67 5.71,-1 7.84,-1zm0 33.04l0 3.06c-1.48,0 -3.1,0.14 -4.86,0.42 -0.02,0.19 -0.21,1.46 -0.58,3.83 1.89,0 3.39,0.39 4.5,1.18 1.11,0.79 1.67,1.9 1.67,3.35 0,3.3 -3.05,5.59 -9.14,6.89l-0.78 -3c4.21,-0.93 6.31,-2.13 6.31,-3.61 0,-0.52 -0.27,-0.94 -0.82,-1.28 -0.55,-0.33 -1.21,-0.5 -1.99,-0.5 -0.24,0 -0.94,0.12 -2.08,0.36l-1.61 -1.28 1.56 -8.42c3.09,-0.67 5.71,-1 7.84,-1z"/>
   <path class="fil4" d="M157.68 35.62c1.46,0 2.59,0.46 3.38,1.39 0.79,0.93 1.18,2.09 1.18,3.5 0,0.94 -0.52,2.31 -1.56,4.1 -1.04,1.79 -2.35,3.59 -3.95,5.4 0.41,-0.15 1.25,-0.22 2.51,-0.22 1.27,0 2.25,0.06 2.93,0.19l-0.33 3.14c-1.15,-0.09 -2.11,-0.14 -2.89,-0.14 -2.13,0 -4.5,0.44 -7.11,1.33l-1.19 -2.42c2.02,-1.69 3.9,-3.75 5.64,-6.2 1.74,-2.45 2.61,-4.18 2.61,-5.21 0,-1.03 -0.41,-1.54 -1.22,-1.54 -0.67,0 -1.36,0.38 -2.07,1.15 -0.71,0.77 -1.48,1.84 -2.29,3.21l-2.78 -1.94c2.41,-3.83 4.79,-5.75 7.14,-5.75zm9.84 33.04c1.46,0 2.59,0.46 3.38,1.39 0.79,0.93 1.18,2.09 1.18,3.5 0,0.94 -0.52,2.31 -1.56,4.1 -1.04,1.79 -2.35,3.59 -3.95,5.4 0.41,-0.15 1.25,-0.22 2.51,-0.22 1.27,0 2.25,0.06 2.93,0.19l-0.33 3.14c-1.15,-0.09 -2.11,-0.14 -2.89,-0.14 -2.13,0 -4.5,0.44 -7.11,1.33l-1.19 -2.42c2.02,-1.69 3.9,-3.75 5.64,-6.2 1.74,-2.45 2.61,-4.18 2.61,-5.21 0,-1.03 -0.41,-1.54 -1.22,-1.54 -0.67,0 -1.36,0.38 -2.07,1.15 -0.71,0.77 -1.48,1.84 -2.29,3.21l-2.78 -1.94c2.41,-3.83 4.79,-5.75 7.14,-5.75z"/>
   <path class="fil5" d="M183.07 40.7l9.89 -0.22c2.76,0 4.99,0.1 6.7,0.31l-0.5 3.33c-1.5,-0.2 -3.47,-0.31 -5.92,-0.31l-10.17 0.22 0 -3.33zm0 6.09l9.89 -0.22c2.76,0 4.99,0.1 6.7,0.31l-0.5 3.33c-1.5,-0.2 -3.47,-0.31 -5.92,-0.31l-10.17 0.22 0 -3.33zm0 26.95l9.89 -0.22c2.76,0 4.99,0.1 6.7,0.31l-0.5 3.33c-1.5,-0.2 -3.47,-0.31 -5.92,-0.31l-10.17 0.22 0 -3.33zm0 6.09l9.89 -0.22c2.76,0 4.99,0.1 6.7,0.31l-0.5 3.33c-1.5,-0.2 -3.47,-0.31 -5.92,-0.31l-10.17 0.22 0 -3.33z"/>
   <path class="fil6" d="M211.25 38.01c1.11,-0.8 2.12,-1.38 3.02,-1.74 0.9,-0.36 1.91,-0.54 3.04,-0.54 1.13,0 2.11,0.38 2.95,1.14 0.83,0.76 1.25,1.82 1.25,3.18 0,1.36 -1.07,2.79 -3.22,4.29 1.85,0.96 2.78,2.26 2.78,3.9 0,1.64 -0.61,2.99 -1.83,4.04 -1.22,1.06 -2.45,1.58 -3.67,1.58 -1.22,0 -2.34,-0.19 -3.36,-0.58l-0.5 -3.06c0.65,0.2 1.45,0.31 2.39,0.31 0.94,0 1.79,-0.21 2.53,-0.63 0.74,-0.42 1.11,-0.91 1.11,-1.47 0,-0.56 -0.23,-1.04 -0.69,-1.42 -0.46,-0.38 -1.06,-0.57 -1.78,-0.57 -0.72,0 -1.5,0.13 -2.33,0.39l-0.94 -2.86c1.94,-0.65 3.44,-1.34 4.49,-2.07 1.05,-0.73 1.57,-1.39 1.57,-1.99 0,-0.67 -0.36,-1 -1.08,-1 -0.96,0 -2.27,0.57 -3.92,1.72l-1.78 -2.64zm18.87 0.78c-0.65,0 -1.18,0.81 -1.58,2.42 -0.41,1.61 -0.61,3.25 -0.61,4.9 0,1.66 0.19,2.89 0.57,3.71 0.38,0.82 0.89,1.22 1.54,1.22 0.5,0 0.97,-0.64 1.4,-1.93 0.44,-1.29 0.65,-2.74 0.65,-4.35 0,-3.98 -0.66,-5.97 -1.97,-5.97zm-5.81 7.81c0,-1.76 0.22,-3.45 0.65,-5.07 0.44,-1.62 1.11,-2.99 2.01,-4.11 0.91,-1.12 1.98,-1.68 3.22,-1.68 1.24,0 2.29,0.42 3.14,1.25 1.57,1.57 2.36,4.17 2.36,7.78 0,1.57 -0.28,3.09 -0.83,4.54 -0.56,1.45 -1.27,2.62 -2.14,3.49 -0.87,0.87 -1.77,1.31 -2.7,1.31 -1.78,0 -3.18,-0.69 -4.2,-2.06 -1.02,-1.37 -1.53,-3.19 -1.53,-5.45zm-13.06 24.45c1.11,-0.8 2.12,-1.38 3.02,-1.74 0.9,-0.36 1.91,-0.54 3.04,-0.54 1.13,0 2.11,0.38 2.95,1.14 0.83,0.76 1.25,1.82 1.25,3.18 0,1.36 -1.07,2.79 -3.22,4.29 1.85,0.96 2.78,2.26 2.78,3.9 0,1.64 -0.61,2.99 -1.83,4.04 -1.22,1.06 -2.45,1.58 -3.67,1.58 -1.22,0 -2.34,-0.19 -3.36,-0.58l-0.5 -3.06c0.65,0.2 1.45,0.31 2.39,0.31 0.94,0 1.79,-0.21 2.53,-0.63 0.74,-0.42 1.11,-0.91 1.11,-1.47 0,-0.56 -0.23,-1.04 -0.69,-1.42 -0.46,-0.38 -1.06,-0.57 -1.78,-0.57 -0.72,0 -1.5,0.13 -2.33,0.39l-0.94 -2.86c1.94,-0.65 3.44,-1.34 4.49,-2.07 1.05,-0.73 1.57,-1.39 1.57,-1.99 0,-0.67 -0.36,-1 -1.08,-1 -0.96,0 -2.27,0.57 -3.92,1.72l-1.78 -2.64zm18.87 0.78c-0.65,0 -1.18,0.81 -1.58,2.42 -0.41,1.61 -0.61,3.25 -0.61,4.9 0,1.66 0.19,2.89 0.57,3.71 0.38,0.82 0.89,1.22 1.54,1.22 0.5,0 0.97,-0.64 1.4,-1.93 0.44,-1.29 0.65,-2.74 0.65,-4.35 0,-3.98 -0.66,-5.97 -1.97,-5.97zm-5.81 7.81c0,-1.76 0.22,-3.45 0.65,-5.07 0.44,-1.62 1.11,-2.99 2.01,-4.11 0.91,-1.12 1.98,-1.68 3.22,-1.68 1.24,0 2.29,0.42 3.14,1.25 1.57,1.57 2.36,4.17 2.36,7.78 0,1.57 -0.28,3.09 -0.83,4.54 -0.56,1.45 -1.27,2.62 -2.14,3.49 -0.87,0.87 -1.77,1.31 -2.7,1.31 -1.78,0 -3.18,-0.69 -4.2,-2.06 -1.02,-1.37 -1.53,-3.19 -1.53,-5.45z"/>
  </g>
  <rect class="fil7" x="-0" y="-0" width="277.74" height="124.43"/>
 </g>
</svg>
