<?xml version="1.0" encoding="UTF-8"?>
<!DOCTYPE svg PUBLIC "-//W3C//DTD SVG 1.1//EN" "http://www.w3.org/Graphics/SVG/1.1/DTD/svg11.dtd">
<!-- Creator: CorelDRAW 2018 (64 Bit) -->
<svg xmlns="http://www.w3.org/2000/svg" xml:space="preserve" width="8.4666mm" height="4.2333mm" version="1.1" style="shape-rendering:geometricPrecision; text-rendering:geometricPrecision; image-rendering:optimizeQuality; fill-rule:evenodd; clip-rule:evenodd"
viewBox="0 0 2.486 1.243"
 xmlns:xlink="http://www.w3.org/1999/xlink">
 <defs>
  <style type="text/css">
   <![CDATA[
    .fil4 {fill:none}
    .fil0 {fill:#00A859}
    .fil2 {fill:#3E4095}
    .fil1 {fill:#FFCC29}
    .fil3 {fill:white}
   ]]>
  </style>
   <clipPath id="id0">
    <path d="M1.243 0.249c-0.206,0 -0.373,0.167 -0.373,0.373 0,0.206 0.167,0.373 0.373,0.373 0.206,0 0.373,-0.167 0.373,-0.373 0,-0.206 -0.167,-0.373 -0.373,-0.373z"/>
   </clipPath>
 </defs>
 <g id="Layer_x0020_1">
  <metadata id="CorelCorpID_0Corel-Layer"/>
  <rect class="fil0" width="2.486" height="1.243"/>
  <rect class="fil1" transform="matrix(1.06963 -0.707107 1.06963 0.707107 0.41859 0.621448)" width="0.771" height="0.771"/>
  <path class="fil2" d="M1.243 0.249c-0.206,0 -0.373,0.167 -0.373,0.373 0,0.206 0.167,0.373 0.373,0.373 0.206,0 0.373,-0.167 0.373,-0.373 0,-0.206 -0.167,-0.373 -0.373,-0.373z"/>
  <g style="clip-path:url(#id0)">
   <g id="_1793404831712">
    <path id="1" class="fil3" d="M0.893 0.511c0.023,-0.001 0.069,-0.004 0.122,-0.004 0.053,0 0.113,0.003 0.177,0.016 0.064,0.013 0.132,0.037 0.189,0.062 0.057,0.025 0.103,0.051 0.141,0.076 0.038,0.025 0.068,0.05 0.082,0.061 0.015,0.011 0.014,0.008 0.015,-0.003 0.002,-0.011 0.005,-0.031 0.007,-0.041 0.002,-0.01 0.002,-0.01 -0.014,-0.021 -0.016,-0.011 -0.049,-0.033 -0.088,-0.056 -0.039,-0.023 -0.084,-0.048 -0.132,-0.068 -0.048,-0.02 -0.098,-0.037 -0.145,-0.049 -0.048,-0.012 -0.093,-0.02 -0.143,-0.024 -0.05,-0.004 -0.104,-0.006 -0.141,-0.006 -0.036,0 -0.055,0.002 -0.064,0.002 -0.009,0.001 -0.009,0.001 -0.011,0.005 -0.002,0.005 -0.006,0.014 -0.01,0.023 -0.004,0.009 -0.006,0.019 -0.008,0.023 -0.001,0.005 -0.001,0.005 0.022,0.003z"/>
   </g>
  </g>
  <path class="fil4" d="M1.243 0.249c-0.206,0 -0.373,0.167 -0.373,0.373 0,0.206 0.167,0.373 0.373,0.373 0.206,0 0.373,-0.167 0.373,-0.373 0,-0.206 -0.167,-0.373 -0.373,-0.373z"/>
 </g>
</svg>
