<?xml version="1.0" encoding="UTF-8"?>
<!DOCTYPE svg PUBLIC "-//W3C//DTD SVG 1.1//EN" "http://www.w3.org/Graphics/SVG/1.1/DTD/svg11.dtd">
<!-- Creator: CorelDRAW 2018 (64 Bit) -->
<svg xmlns="http://www.w3.org/2000/svg" xml:space="preserve" width="270px" height="256px" version="1.1" style="shape-rendering:geometricPrecision; text-rendering:geometricPrecision; image-rendering:optimizeQuality; fill-rule:evenodd; clip-rule:evenodd"
viewBox="0 0 39.91 37.91"
 xmlns:xlink="http://www.w3.org/1999/xlink">
 <defs>
  <style type="text/css">
   <![CDATA[
    .str5 {stroke:#27AE60;stroke-width:0.59;stroke-miterlimit:22.9256}
    .str6 {stroke:#2980B9;stroke-width:0.59;stroke-miterlimit:22.9256}
    .str1 {stroke:#2980B9;stroke-width:0.59;stroke-miterlimit:22.9256}
    .str0 {stroke:#C0392B;stroke-width:0.59;stroke-miterlimit:22.9256}
    .str7 {stroke:#F1C40F;stroke-width:0.59;stroke-miterlimit:22.9256}
    .str3 {stroke:#27AE60;stroke-width:0.35;stroke-miterlimit:22.9256}
    .str4 {stroke:#C0392B;stroke-width:0.35;stroke-miterlimit:22.9256}
    .str2 {stroke:#F1C40F;stroke-width:0.35;stroke-miterlimit:22.9256}
    .fil0 {fill:none}
    .fil1 {fill:#2980B9}
   ]]>
  </style>
 </defs>
 <g id="Layer_x0020_1">
  <metadata id="CorelCorpID_0Corel-Layer"/>
  <rect class="fil0 str0" x="1.44" y="0.47" width="14.8" height="14.8"/>
  <rect class="fil0 str1" x="1.44" y="0.47" width="2.07" height="2.07"/>
  <rect class="fil0 str1" x="1.44" y="13.2" width="2.07" height="2.07"/>
  <rect class="fil0 str1" x="14.16" y="0.47" width="2.07" height="2.07"/>
  <rect class="fil0 str1" x="14.16" y="13.2" width="2.07" height="2.07"/>
  <circle class="fil1" cx="2.47" cy="14.23" r="0.18"/>
  <circle class="fil1" cx="2.47" cy="1.51" r="0.18"/>
  <circle class="fil1" cx="15.2" cy="14.23" r="0.18"/>
  <circle class="fil1" cx="15.2" cy="1.51" r="0.18"/>
  <path class="fil0 str2" d="M1.36 25.71c0.1,0.18 0.16,0.39 0.16,0.6 0,0.56 -0.39,1.04 -0.94,1.15"/>
  <path class="fil0 str2" d="M2.42 36.13l-0.24 -1.16c0.28,-0.06 0.58,-0.01 0.83,0.14 0.41,0.23 0.64,0.68 0.59,1.14l-1.18 -0.12z"/>
  <path class="fil0 str2" d="M15.62 27.21c-0.2,0.22 -0.31,0.5 -0.31,0.8 0,0.46 0.28,0.89 0.7,1.08"/>
  <path class="fil0 str2" d="M12.89 36.1c-0.34,-0.15 -0.74,-0.13 -1.07,0.06 -0.33,0.19 -0.55,0.52 -0.59,0.9"/>
  <path class="fil0 str2" d="M9.91 22.08c-0.37,0.41 -0.99,0.51 -1.47,0.23 -0.18,-0.1 -0.33,-0.25 -0.43,-0.43"/>
  <path class="fil0 str3" d="M22.25 7.07c0.32,0.47 0.34,1.09 0.06,1.58"/>
  <path class="fil0 str3" d="M33.84 15.31l0 -1.48c-0.26,0 -0.51,0.07 -0.74,0.2 -0.22,0.13 -0.41,0.32 -0.54,0.54l1.28 0.74z"/>
  <path class="fil0 str4" d="M22.57 30.22l0.53 -1.07c0.4,0.2 0.66,0.62 0.66,1.07 0,0.45 -0.26,0.86 -0.66,1.06l-0.53 -1.06z"/>
  <path class="fil0 str4" d="M26.8 37.54l-0.66 -0.99c0.38,-0.25 0.86,-0.26 1.25,-0.04 0.39,0.23 0.62,0.66 0.59,1.1l-1.18 -0.07z"/>
  <path class="fil0 str4" d="M26.8 22.89l-0.71 0.95c0.38,0.28 0.89,0.31 1.3,0.08 0.39,-0.23 0.62,-0.65 0.59,-1.1l-1.18 0.07z"/>
  <polygon class="fil0 str5" points="12.41,37.18 14.45,32.59 16.5,28.01 12.76,24.64 9.03,21.28 4.68,23.8 0.33,26.31 1.38,31.22 2.42,36.13 7.42,36.66 "/>
  <path class="fil0 str4" d="M39.49 30.22l-0.53 -1.07c-0.4,0.2 -0.66,0.62 -0.66,1.07 0,0.45 0.26,0.86 0.66,1.06l0.53 -1.06z"/>
  <path class="fil0 str4" d="M35.26 37.54l0.65 -0.99c-0.37,-0.25 -0.85,-0.26 -1.24,-0.04 -0.39,0.23 -0.62,0.66 -0.59,1.1l1.18 -0.07z"/>
  <path class="fil0 str4" d="M35.26 22.89l0.71 0.95c-0.38,0.28 -0.89,0.31 -1.3,0.08 -0.39,-0.23 -0.62,-0.65 -0.59,-1.1l1.18 0.07z"/>
  <polygon class="fil0 str6" points="26.76,37.61 24.62,33.92 22.49,30.22 24.62,26.52 26.76,22.82 31.03,22.82 35.3,22.82 37.44,26.52 39.57,30.22 37.44,33.92 35.3,37.61 31.03,37.61 "/>
  <path class="fil0 str3" d="M33.84 0.51l0 1.48c-0.26,0 -0.51,-0.07 -0.74,-0.2 -0.22,-0.13 -0.41,-0.31 -0.54,-0.54l1.28 -0.74z"/>
  <polygon class="fil0 str7" points="33.84,15.31 33.84,7.91 33.84,0.51 27.44,4.21 21.03,7.91 27.44,11.61 "/>
 </g>
</svg>
