<?xml version="1.0" encoding="UTF-8"?>
<!DOCTYPE svg PUBLIC "-//W3C//DTD SVG 1.1//EN" "http://www.w3.org/Graphics/SVG/1.1/DTD/svg11.dtd">
<!-- Creator: CorelDRAW 2018 (64-Bit) -->
<svg xmlns="http://www.w3.org/2000/svg" xml:space="preserve" width="1.6087in" height="0.937193in" version="1.1" style="shape-rendering:geometricPrecision; text-rendering:geometricPrecision; image-rendering:optimizeQuality; fill-rule:evenodd; clip-rule:evenodd"
viewBox="0 0 851.32 495.96"
 xmlns:xlink="http://www.w3.org/1999/xlink">
 <defs>
  <style type="text/css">
   <![CDATA[
    .str1 {stroke:#00BCD4;stroke-width:14.11;stroke-miterlimit:22.9256}
    .str0 {stroke:#E91E63;stroke-width:14.11;stroke-miterlimit:22.9256}
    .fil0 {fill:none}
    .fil2 {fill:#00BCD4;fill-rule:nonzero}
    .fil1 {fill:#E91E63;fill-rule:nonzero}
   ]]>
  </style>
 </defs>
 <g id="Layer_x0020_1">
  <metadata id="CorelCorpID_0Corel-Layer"/>
  <g id="_2990042224240">
   <line class="fil0 str0" x1="70.42" y1="384.53" x2="142.04" y2= "11.13" />
  </g>
  <path class="fil0 str1" d="M671.95 394.87c-44.67,-77.4 -89.33,-154.79 -64.95,-219.58 24.38,-64.78 117.8,-116.95 211.22,-169.11"/>
  <path class="fil1" d="M-0 495.96l0 -36.46 4.24 0 0 32.63 16.08 0 0 3.83 -20.31 0zm26.5 0l0 -36.46 4.24 0 0 36.46 -4.24 0zm42.71 0l-4.83 0 -19.92 -30.6 -0.2 0c0.26,3.59 0.4,6.88 0.4,9.87l0 20.72 -3.91 0 0 -36.46 4.78 0 19.88 30.47 0.2 0c-0.04,-0.45 -0.1,-1.89 -0.22,-4.33 -0.12,-2.43 -0.16,-4.17 -0.13,-5.23l0 -20.92 3.97 0 0 36.46zm37.7 0l-4.24 0 0 -17.16 -19.21 0 0 17.16 -4.24 0 0 -36.46 4.24 0 0 15.52 19.21 0 0 -15.52 4.24 0 0 36.46zm32.91 0l-4.54 -11.59 -14.62 0 -4.48 11.59 -4.29 0 14.42 -36.61 3.56 0 14.34 36.61 -4.39 0zm-5.85 -15.42l-4.25 -11.29c-0.55,-1.43 -1.11,-3.18 -1.69,-5.26 -0.37,1.59 -0.89,3.35 -1.58,5.26l-4.29 11.29 11.8 0zm32.76 0.26l0 15.17 -4.24 0 0 -36.46 9.99 0c4.48,0 7.78,0.86 9.9,2.57 2.14,1.71 3.21,4.29 3.21,7.73 0,4.83 -2.44,8.09 -7.33,9.78l9.9 16.38 -5.01 0 -8.83 -15.17 -7.6 0zm0 -3.63l5.8 0c3,0 5.18,-0.6 6.58,-1.79 1.4,-1.18 2.09,-2.97 2.09,-5.34 0,-2.41 -0.71,-4.15 -2.13,-5.21 -1.42,-1.06 -3.7,-1.6 -6.84,-1.6l-5.51 0 0 13.94zm47.64 18.79l-20.31 0 0 -36.46 20.31 0 0 3.78 -16.08 0 0 11.74 15.11 0 0 3.73 -15.11 0 0 13.43 16.08 0 0 3.78zm19.3 0l-4.24 0 0 -32.68 -11.54 0 0 -3.78 27.31 0 0 3.78 -11.53 0 0 32.68zm36.38 0l-4.54 -11.59 -14.62 0 -4.48 11.59 -4.29 0 14.42 -36.61 3.56 0 14.34 36.61 -4.39 0zm-5.85 -15.42l-4.25 -11.29c-0.55,-1.43 -1.11,-3.18 -1.69,-5.26 -0.37,1.59 -0.89,3.35 -1.58,5.26l-4.29 11.29 11.8 0z"/>
  <path class="fil2" d="M532.21 494.27l0 -36.46 4.24 0 0 32.63 16.08 0 0 3.83 -20.31 0zm26.5 0l0 -36.46 4.24 0 0 36.46 -4.24 0zm42.71 0l-4.83 0 -19.92 -30.6 -0.2 0c0.26,3.59 0.4,6.88 0.4,9.87l0 20.72 -3.91 0 0 -36.46 4.78 0 19.88 30.47 0.2 0c-0.04,-0.45 -0.1,-1.89 -0.22,-4.33 -0.12,-2.43 -0.16,-4.17 -0.13,-5.23l0 -20.92 3.97 0 0 36.46zm37.7 0l-4.24 0 0 -17.16 -19.21 0 0 17.16 -4.24 0 0 -36.46 4.24 0 0 15.52 19.21 0 0 -15.52 4.24 0 0 36.46zm32.91 0l-4.54 -11.59 -14.62 0 -4.48 11.59 -4.29 0 14.42 -36.61 3.56 0 14.34 36.61 -4.39 0zm-5.85 -15.42l-4.25 -11.29c-0.55,-1.43 -1.11,-3.18 -1.69,-5.26 -0.37,1.59 -0.89,3.35 -1.58,5.26l-4.29 11.29 11.8 0zm44.13 -17.77c-4,0 -7.17,1.34 -9.49,4 -2.31,2.67 -3.47,6.32 -3.47,10.96 0,4.78 1.11,8.46 3.35,11.05 2.23,2.6 5.42,3.91 9.57,3.91 2.54,0 5.44,-0.46 8.7,-1.37l0 3.72c-2.53,0.95 -5.64,1.43 -9.35,1.43 -5.37,0 -9.52,-1.63 -12.43,-4.89 -2.92,-3.26 -4.38,-7.89 -4.38,-13.89 0,-3.76 0.71,-7.05 2.11,-9.88 1.4,-2.83 3.43,-5 6.09,-6.53 2.65,-1.53 5.77,-2.3 9.36,-2.3 3.83,0 7.16,0.7 10.03,2.09l-1.8 3.64c-2.76,-1.3 -5.51,-1.95 -8.28,-1.95zm44.13 -3.27l0 23.6c0,4.15 -1.25,7.42 -3.76,9.8 -2.51,2.37 -5.96,3.56 -10.35,3.56 -4.39,0 -7.79,-1.2 -10.19,-3.59 -2.4,-2.4 -3.6,-5.68 -3.6,-9.88l0 -23.5 4.24 0 0 23.79c0,3.05 0.84,5.38 2.49,7.01 1.66,1.63 4.1,2.44 7.33,2.44 3.08,0 5.45,-0.82 7.11,-2.46 1.66,-1.63 2.49,-3.98 2.49,-7.04l0 -23.74 4.24 0zm13.89 21.29l0 15.17 -4.24 0 0 -36.46 9.99 0c4.48,0 7.78,0.86 9.9,2.57 2.14,1.71 3.21,4.29 3.21,7.73 0,4.83 -2.44,8.09 -7.33,9.78l9.9 16.38 -5.01 0 -8.83 -15.17 -7.6 0zm0 -3.63l5.8 0c3,0 5.18,-0.6 6.58,-1.79 1.4,-1.18 2.09,-2.97 2.09,-5.34 0,-2.41 -0.71,-4.15 -2.13,-5.21 -1.42,-1.06 -3.7,-1.6 -6.84,-1.6l-5.51 0 0 13.94zm48.14 -17.67l4.56 0 -13.13 36.46 -4.19 0 -13.06 -36.46 4.49 0 8.37 23.59c0.96,2.71 1.73,5.34 2.3,7.91 0.6,-2.7 1.38,-5.38 2.34,-8.06l8.32 -23.44zm30.46 36.46l-4.54 -11.59 -14.62 0 -4.48 11.59 -4.29 0 14.42 -36.61 3.56 0 14.34 36.61 -4.39 0zm-5.85 -15.42l-4.25 -11.29c-0.55,-1.43 -1.11,-3.18 -1.69,-5.26 -0.37,1.59 -0.89,3.35 -1.58,5.26l-4.29 11.29 11.8 0z"/>
 </g>
</svg>
