<?xml version="1.0" encoding="UTF-8"?>
<!DOCTYPE svg PUBLIC "-//W3C//DTD SVG 1.1//EN" "http://www.w3.org/Graphics/SVG/1.1/DTD/svg11.dtd">
<!-- Creator: CorelDRAW 2018 (64-Bit) -->
<svg xmlns="http://www.w3.org/2000/svg" xml:space="preserve" width="25.8267in" height="8.8in" version="1.1" style="shape-rendering:geometricPrecision; text-rendering:geometricPrecision; image-rendering:optimizeQuality; fill-rule:evenodd; clip-rule:evenodd"
viewBox="0 0 4626.49 1576.4"
 xmlns:xlink="http://www.w3.org/1999/xlink">
 <defs>
  <style type="text/css">
   <![CDATA[
    .fil0 {fill:none}
    .fil2 {fill:#2A9137}
    .fil1 {fill:#B71C1C}
    .fil3 {fill:white;fill-rule:nonzero}
   ]]>
  </style>
 </defs>
 <g id="Layer_x0020_1">
  <metadata id="CorelCorpID_0Corel-Layer"/>
  <polygon class="fil0" points="-0,0 4626.49,0 4626.49,1576.4 -0,1576.4 "/>
  <path class="fil1" d="M358.27 229.89l0 0c72.25,0 131.37,59.11 131.37,131.37l0 0c0,72.25 -59.11,131.37 -131.37,131.37l-0 0c-72.25,0 -131.37,-59.11 -131.37,-131.37l0 -0c0,-72.25 59.11,-131.37 131.37,-131.37z"/>
  <path class="fil2" d="M549.35 238.97l191.08 0c13.14,0 23.88,10.75 23.88,23.88l0 191.08c0,13.14 -10.75,23.88 -23.88,23.88l-191.08 0c-13.14,0 -23.88,-10.75 -23.88,-23.88l0 -191.08c0,-13.14 10.75,-23.88 23.88,-23.88z"/>
  <path class="fil2" d="M835.97 238.85l191.08 0c13.14,0 23.88,10.75 23.88,23.88l0 191.08c0,13.14 -10.75,23.88 -23.88,23.88l-191.08 0c-13.14,0 -23.88,-10.75 -23.88,-23.88l0 -191.08c0,-13.14 10.75,-23.88 23.88,-23.88z"/>
  <path class="fil2" d="M262.73 525.47l191.08 0c13.14,0 23.88,10.75 23.88,23.88l0 191.08c0,13.14 -10.75,23.88 -23.88,23.88l-191.08 0c-13.14,0 -23.88,-10.75 -23.88,-23.88l0 -191.08c0,-13.14 10.75,-23.88 23.88,-23.88z"/>
  <path class="fil2" d="M549.35 525.47l191.08 0c13.14,0 23.88,10.75 23.88,23.88l0 191.08c0,13.14 -10.75,23.88 -23.88,23.88l-191.08 0c-13.14,0 -23.88,-10.75 -23.88,-23.88l0 -191.08c0,-13.14 10.75,-23.88 23.88,-23.88z"/>
  <path class="fil2" d="M262.73 812.08l191.08 0c13.14,0 23.88,10.75 23.88,23.88l0 191.08c0,13.14 -10.75,23.88 -23.88,23.88l-191.08 0c-13.14,0 -23.88,-10.75 -23.88,-23.88l0 -191.08c0,-13.14 10.75,-23.88 23.88,-23.88z"/>
  <path class="fil2" d="M549.35 812.08l191.08 0c13.14,0 23.88,10.75 23.88,23.88l0 191.08c0,13.14 -10.75,23.88 -23.88,23.88l-191.08 0c-13.14,0 -23.88,-10.75 -23.88,-23.88l0 -191.08c0,-13.14 10.75,-23.88 23.88,-23.88z"/>
  <path class="fil2" d="M262.73 1098.7l191.08 0c13.14,0 23.88,10.75 23.88,23.88l0 191.08c0,13.14 -10.75,23.88 -23.88,23.88l-191.08 0c-13.14,0 -23.88,-10.75 -23.88,-23.88l0 -191.08c0,-13.14 10.75,-23.88 23.88,-23.88z"/>
  <path class="fil2" d="M549.35 1098.7l191.08 0c13.14,0 23.88,10.75 23.88,23.88l0 191.08c0,13.14 -10.75,23.88 -23.88,23.88l-191.08 0c-13.14,0 -23.88,-10.75 -23.88,-23.88l0 -191.08c0,-13.14 10.75,-23.88 23.88,-23.88z"/>
  <path class="fil2" d="M835.97 812.08l191.08 0c13.14,0 23.88,10.75 23.88,23.88l0 191.08c0,13.14 -10.75,23.88 -23.88,23.88l-191.08 0c-13.14,0 -23.88,-10.75 -23.88,-23.88l0 -191.08c0,-13.14 10.75,-23.88 23.88,-23.88z"/>
  <path class="fil3" d="M1218.53 761.07l0 -232.02 49.18 0 0 232.02 -49.18 0zm313.37 0l-62.5 0 -100.96 -175.53 -1.41 0c2,31.03 3.03,53.13 3.03,66.35l0 109.19 -43.98 0 0 -232.02 62.07 0 100.74 173.8 1.14 0c-1.62,-30.17 -2.38,-51.51 -2.38,-63.96l0 -109.84 44.25 0 0 232.02zm195.41 -64.34c0,20.96 -7.58,37.42 -22.64,49.5 -15.06,12.08 -36.07,18.09 -62.93,18.09 -24.75,0 -46.69,-4.66 -65.7,-13.97l0 -45.71c15.65,6.99 28.92,11.92 39.75,14.79 10.83,2.87 20.74,4.28 29.73,4.28 10.83,0 19.12,-2.06 24.86,-6.17 5.8,-4.12 8.67,-10.29 8.67,-18.41 0,-4.55 -1.25,-8.61 -3.79,-12.13 -2.55,-3.57 -6.28,-6.99 -11.21,-10.24 -4.93,-3.3 -14.95,-8.56 -30.06,-15.71 -14.19,-6.72 -24.86,-13.11 -31.95,-19.23 -7.09,-6.12 -12.73,-13.27 -16.95,-21.45 -4.28,-8.12 -6.39,-17.66 -6.39,-28.54 0,-20.53 6.99,-36.67 20.91,-48.42 13.92,-11.75 33.15,-17.6 57.68,-17.6 12.08,0 23.56,1.41 34.55,4.28 10.94,2.87 22.37,6.88 34.34,12.08l-15.87 38.24c-12.4,-5.09 -22.64,-8.61 -30.71,-10.61 -8.12,-2 -16.09,-3.03 -23.88,-3.03 -9.32,0 -16.47,2.17 -21.45,6.5 -4.98,4.33 -7.47,10.02 -7.47,17.01 0,4.33 1.03,8.12 3.03,11.32 2,3.25 5.2,6.34 9.59,9.37 4.39,3.03 14.79,8.45 31.2,16.25 21.72,10.4 36.56,20.8 44.63,31.2 8.02,10.45 12.08,23.18 12.08,38.35zm131.45 64.34l-49.18 0 0 -191.08 -62.99 0 0 -40.95 175.16 0 0 40.95 -62.99 0 0 191.08zm98.73 0l0 -232.02 49.18 0 0 232.02 -49.18 0zm197.04 0l-49.18 0 0 -191.08 -62.99 0 0 -40.95 175.16 0 0 40.95 -62.99 0 0 191.08zm287.59 -232.02l0 150.19c0,17.11 -3.85,32.17 -11.48,45.06 -7.69,12.94 -18.74,22.8 -33.25,29.68 -14.51,6.88 -31.63,10.34 -51.45,10.34 -29.79,0 -52.97,-7.64 -69.49,-22.96 -16.52,-15.27 -24.75,-36.18 -24.75,-62.77l0 -149.54 49.02 0 0 142.06c0,17.93 3.63,31.03 10.78,39.37 7.2,8.39 19.12,12.56 35.75,12.56 16.09,0 27.73,-4.22 34.99,-12.62 7.26,-8.39 10.89,-21.61 10.89,-39.59l0 -141.79 49.01 0zm146.23 232.02l-49.18 0 0 -191.08 -62.99 0 0 -40.95 175.16 0 0 40.95 -62.99 0 0 191.08zm302.81 -116.28c0,38.45 -9.48,67.97 -28.54,88.61 -19.06,20.64 -46.36,30.93 -81.89,30.93 -35.53,0 -62.83,-10.29 -81.89,-30.93 -19.06,-20.64 -28.54,-50.26 -28.54,-88.88 0,-38.62 9.53,-68.13 28.65,-88.5 19.06,-20.36 46.47,-30.55 82.11,-30.55 35.64,0 62.93,10.24 81.78,30.76 18.9,20.53 28.33,50.04 28.33,88.55zm-169.31 0c0,25.94 4.93,45.44 14.73,58.6 9.86,13.11 24.59,19.66 44.14,19.66 39.27,0 58.87,-26.11 58.87,-78.26 0,-52.26 -19.5,-78.37 -58.55,-78.37 -19.61,0 -34.34,6.61 -44.3,19.77 -9.91,13.16 -14.89,32.71 -14.89,58.6zm350.2 116.28l-48.42 0 0 -232.02 133.02 0 0 40.3 -84.6 0 0 59.79 78.75 0 0 40.3 -78.75 0 0 91.64zm263.54 0l-133.61 0 0 -232.02 133.61 0 0 40.3 -84.44 0 0 51.02 78.53 0 0 40.3 -78.53 0 0 59.79 84.44 0 0 40.62zm240.74 -118.23c0,38.18 -10.83,67.43 -32.55,87.74 -21.77,20.31 -53.13,30.49 -94.18,30.49l-65.64 0 0 -232.02 72.79 0c37.86,0 67.27,10.02 88.23,30 20.91,19.99 31.36,47.93 31.36,83.79zm-51.07 1.25c0,-49.83 -21.99,-74.74 -65.97,-74.74l-26.16 0 0 151.11 21.12 0c47.34,0 71,-25.46 71,-76.37zm232.84 116.99l-133.61 0 0 -232.02 133.61 0 0 40.3 -84.44 0 0 51.02 78.53 0 0 40.3 -78.53 0 0 59.79 84.44 0 0 40.62zm97.54 -129.01l15.87 0c15.54,0 27.03,-2.6 34.39,-7.8 7.42,-5.14 11.1,-13.32 11.1,-24.43 0,-11 -3.79,-18.85 -11.32,-23.51 -7.58,-4.66 -19.28,-6.99 -35.15,-6.99l-14.89 0 0 62.72zm0 39.97l0 89.04 -49.18 0 0 -232.02 67.59 0c31.52,0 54.81,5.74 69.92,17.22 15.17,11.48 22.69,28.92 22.69,52.26 0,13.65 -3.74,25.78 -11.27,36.45 -7.47,10.61 -18.09,18.96 -31.85,24.97 34.88,52.16 57.63,85.9 68.19,101.12l-54.59 0 -55.35 -89.04 -26.16 0zm307.41 89.04l-16.84 -55.24 -84.6 0 -16.79 55.24 -53.02 0 81.89 -233 60.12 0 82.22 233 -52.97 0zm-28.6 -96.51c-15.54,-50.04 -24.32,-78.37 -26.27,-84.92 -1.95,-6.55 -3.36,-11.75 -4.17,-15.54 -3.52,13.54 -13.54,47.01 -30,100.47l60.44 0zm110.76 96.51l0 -232.02 49.18 0 0 191.4 94.13 0 0 40.62 -143.31 0z"/>
  <path class="fil3" d="M1218.31 852.64l46.92 0c22.02,0 38,3.3 47.81,9.89 9.85,6.59 14.77,17.02 14.77,31.25 0,9.85 -2.71,17.99 -8.22,24.39 -5.51,6.4 -13.49,10.55 -24.04,12.45l0 1.12c25.24,4.3 37.84,17.56 37.84,39.74 0,14.85 -5.04,26.44 -15.04,34.78 -10.04,8.34 -24.08,12.49 -42.11,12.49l-57.93 0 0 -166.11zm19.31 71.19l31.79 0c13.65,0 23.46,-2.13 29.43,-6.44 6.01,-4.27 9,-11.48 9,-21.64 0,-9.31 -3.33,-16.05 -10,-20.16 -6.67,-4.15 -17.25,-6.2 -31.79,-6.2l-28.42 0 0 54.44zm0 16.29l0 62.12 34.66 0c13.38,0 23.5,-2.6 30.24,-7.79 6.79,-5.16 10.2,-13.3 10.2,-24.35 0,-10.28 -3.49,-17.87 -10.39,-22.72 -6.94,-4.85 -17.49,-7.25 -31.64,-7.25l-33.07 0zm205.15 78.63l-3.76 -17.72 -0.93 0c-6.2,7.79 -12.37,13.11 -18.53,15.9 -6.2,2.75 -13.88,4.15 -23.11,4.15 -12.37,0 -22.02,-3.18 -29.04,-9.54 -6.98,-6.4 -10.51,-15.43 -10.51,-27.22 0,-25.16 20.12,-38.35 60.29,-39.55l21.13 -0.7 0 -7.72c0,-9.73 -2.09,-16.94 -6.28,-21.6 -4.23,-4.65 -10.93,-6.98 -20.16,-6.98 -10.39,0 -22.1,3.18 -35.21,9.54l-5.78 -14.42c6.13,-3.33 12.83,-5.97 20.12,-7.87 7.33,-1.9 14.66,-2.83 21.98,-2.83 14.85,0 25.82,3.3 33,9.89 7.17,6.59 10.74,17.14 10.74,31.68l0 84.99 -13.96 0zm-42.61 -13.26c11.75,0 20.98,-3.22 27.65,-9.66 6.71,-6.44 10.08,-15.43 10.08,-27.03l0 -11.24 -18.88 0.81c-14.97,0.5 -25.79,2.83 -32.42,6.98 -6.63,4.11 -9.93,10.55 -9.93,19.23 0,6.82 2.06,12.02 6.2,15.55 4.11,3.57 9.89,5.35 17.29,5.35zm180.69 13.26l0 -80.53c0,-10.16 -2.29,-17.72 -6.94,-22.72 -4.61,-5 -11.86,-7.48 -21.71,-7.48 -13.11,0 -22.64,3.57 -28.69,10.66 -6.01,7.13 -9.03,18.81 -9.03,35.01l0 65.06 -18.84 0 0 -176.81 18.84 0 0 53.55c0,6.44 -0.31,11.79 -0.89,16.01l1.12 0c3.72,-5.97 9,-10.7 15.86,-14.15 6.86,-3.45 14.69,-5.16 23.46,-5.16 15.24,0 26.68,3.61 34.28,10.86 7.6,7.21 11.4,18.73 11.4,34.47l0 81.23 -18.84 0zm76.42 0l-18.84 0 0 -124.46 18.84 0 0 124.46zm-20.43 -158.27c0,-4.3 1.05,-7.44 3.18,-9.46 2.13,-2.02 4.77,-3.02 7.95,-3.02 3.02,0 5.66,1.01 7.83,3.06 2.21,2.06 3.3,5.2 3.3,9.42 0,4.26 -1.09,7.44 -3.3,9.5 -2.17,2.09 -4.81,3.14 -7.83,3.14 -3.18,0 -5.82,-1.05 -7.95,-3.14 -2.13,-2.05 -3.18,-5.23 -3.18,-9.5zm136.99 158.27l-3.76 -17.72 -0.93 0c-6.2,7.79 -12.37,13.11 -18.53,15.9 -6.2,2.75 -13.88,4.15 -23.11,4.15 -12.37,0 -22.02,-3.18 -29.04,-9.54 -6.98,-6.4 -10.51,-15.43 -10.51,-27.22 0,-25.16 20.12,-38.35 60.29,-39.55l21.13 -0.7 0 -7.72c0,-9.73 -2.09,-16.94 -6.28,-21.6 -4.23,-4.65 -10.93,-6.98 -20.16,-6.98 -10.39,0 -22.1,3.18 -35.21,9.54l-5.78 -14.42c6.13,-3.33 12.83,-5.97 20.12,-7.87 7.33,-1.9 14.66,-2.83 21.98,-2.83 14.85,0 25.82,3.3 33,9.89 7.17,6.59 10.74,17.14 10.74,31.68l0 84.99 -13.96 0zm-42.61 -13.26c11.75,0 20.98,-3.22 27.65,-9.66 6.71,-6.44 10.08,-15.43 10.08,-27.03l0 -11.24 -18.88 0.81c-14.97,0.5 -25.79,2.83 -32.42,6.98 -6.63,4.11 -9.93,10.55 -9.93,19.23 0,6.82 2.06,12.02 6.2,15.55 4.11,3.57 9.89,5.35 17.29,5.35z"/>
  <path class="fil2" d="M549.35 525.47l191.08 0c13.14,0 23.88,10.75 23.88,23.88l0 191.08c0,13.14 -10.75,23.88 -23.88,23.88l-191.08 0c-13.14,0 -23.88,-10.75 -23.88,-23.88l0 -191.08c0,-13.14 10.75,-23.88 23.88,-23.88z"/>
  <path class="fil3" d="M1289.42 1154.15c-18.22,0 -32.65,6.09 -43.23,18.22 -10.55,12.18 -15.82,28.81 -15.82,49.94 0,21.75 5.08,38.54 15.28,50.37 10.16,11.86 24.7,17.8 43.58,17.8 11.55,0 24.78,-2.09 39.63,-6.24l0 16.94c-11.52,4.34 -25.71,6.51 -42.61,6.51 -24.47,0 -43.35,-7.41 -56.61,-22.26 -13.3,-14.85 -19.97,-35.94 -19.97,-63.28 0,-17.14 3.22,-32.14 9.62,-45.02 6.4,-12.87 15.63,-22.8 27.72,-29.74 12.06,-6.98 26.29,-10.47 42.65,-10.47 17.45,0 32.65,3.18 45.68,9.5l-8.18 16.6c-12.56,-5.93 -25.12,-8.88 -37.73,-8.88zm149.36 151.22l-3.76 -17.72 -0.93 0c-6.2,7.79 -12.37,13.11 -18.53,15.9 -6.2,2.75 -13.88,4.15 -23.11,4.15 -12.37,0 -22.02,-3.18 -29.04,-9.54 -6.98,-6.4 -10.51,-15.43 -10.51,-27.22 0,-25.16 20.12,-38.35 60.29,-39.55l21.13 -0.7 0 -7.72c0,-9.73 -2.09,-16.94 -6.28,-21.6 -4.23,-4.65 -10.93,-6.98 -20.16,-6.98 -10.39,0 -22.1,3.18 -35.21,9.54l-5.78 -14.42c6.13,-3.33 12.83,-5.97 20.12,-7.87 7.33,-1.9 14.66,-2.83 21.98,-2.83 14.85,0 25.82,3.3 33,9.89 7.17,6.59 10.74,17.14 10.74,31.68l0 84.99 -13.96 0zm-42.61 -13.26c11.75,0 20.98,-3.22 27.65,-9.66 6.71,-6.44 10.08,-15.43 10.08,-27.03l0 -11.24 -18.88 0.81c-14.97,0.5 -25.79,2.83 -32.42,6.98 -6.63,4.11 -9.93,10.55 -9.93,19.23 0,6.82 2.06,12.02 6.2,15.55 4.11,3.57 9.89,5.35 17.29,5.35zm254.09 13.26l0 -81c0,-9.89 -2.09,-17.33 -6.36,-22.29 -4.23,-4.96 -10.82,-7.44 -19.74,-7.44 -11.75,0 -20.39,3.37 -26.02,10.12 -5.58,6.75 -8.41,17.1 -8.41,31.1l0 69.52 -18.84 0 0 -81c0,-9.89 -2.13,-17.33 -6.36,-22.29 -4.23,-4.96 -10.86,-7.44 -19.89,-7.44 -11.79,0 -20.43,3.53 -25.94,10.62 -5.47,7.06 -8.22,18.69 -8.22,34.82l0 65.3 -18.84 0 0 -124.46 15.32 0 3.06 16.98 0.93 0c3.53,-6.05 8.57,-10.78 15.04,-14.19 6.47,-3.41 13.73,-5.12 21.75,-5.12 19.43,0 32.18,7.06 38.15,21.13l0.89 0c3.72,-6.51 9.11,-11.67 16.13,-15.47 7.06,-3.76 15.08,-5.66 24.08,-5.66 14.07,0 24.62,3.61 31.64,10.86 6.98,7.21 10.51,18.81 10.51,34.7l0 81.23 -18.88 0zm115.7 2.33c-8.1,0 -15.51,-1.51 -22.22,-4.5 -6.67,-2.99 -12.33,-7.6 -16.87,-13.8l-1.36 0c0.89,7.25 1.36,14.15 1.36,20.67l0 51.14 -18.84 0 0 -180.3 15.32 0 2.64 16.98 0.89 0c4.85,-6.82 10.51,-11.75 16.94,-14.77 6.44,-3.02 13.8,-4.54 22.14,-4.54 16.52,0 29.27,5.66 38.27,16.94 8.96,11.28 13.45,27.1 13.45,47.5 0,20.47 -4.58,36.37 -13.69,47.69 -9.15,11.32 -21.79,16.98 -38.04,16.98zm-2.71 -113.06c-12.72,0 -21.95,3.53 -27.61,10.55 -5.7,7.06 -8.61,18.26 -8.76,33.66l0 4.19c0,17.49 2.91,30.01 8.76,37.53 5.82,7.56 15.2,11.32 28.07,11.32 10.74,0 19.19,-4.34 25.28,-13.07 6.09,-8.72 9.15,-20.71 9.15,-36.02 0,-15.51 -3.06,-27.41 -9.15,-35.71 -6.09,-8.3 -14.7,-12.45 -25.75,-12.45zm105.08 -13.73l0 80.77c0,10.12 2.29,17.72 6.94,22.72 4.61,5 11.86,7.48 21.71,7.48 13.03,0 22.53,-3.57 28.58,-10.66 6.01,-7.13 9.03,-18.77 9.03,-34.9l0 -65.41 18.84 0 0 124.46 -15.55 0 -2.71 -16.63 -1.05 0c-3.84,6.13 -9.23,10.82 -16.09,14.07 -6.82,3.26 -14.66,4.89 -23.46,4.89 -15.16,0 -26.48,-3.61 -34.04,-10.78 -7.52,-7.21 -11.28,-18.73 -11.28,-34.55l0 -81.46 19.08 0zm205.38 90.54c0,11.59 -4.34,20.55 -12.95,26.83 -8.65,6.28 -20.74,9.42 -36.37,9.42 -16.48,0 -29.35,-2.6 -38.62,-7.83l0 -17.53c6.01,3.02 12.41,5.43 19.27,7.17 6.86,1.74 13.45,2.6 19.81,2.6 9.85,0 17.41,-1.59 22.72,-4.73 5.31,-3.14 7.95,-7.91 7.95,-14.35 0,-4.85 -2.09,-9 -6.32,-12.45 -4.19,-3.45 -12.37,-7.52 -24.58,-12.21 -11.59,-4.34 -19.81,-8.1 -24.7,-11.32 -4.89,-3.22 -8.53,-6.86 -10.9,-10.97 -2.4,-4.07 -3.57,-8.96 -3.57,-14.66 0,-10.16 4.11,-18.15 12.37,-24.04 8.26,-5.86 19.58,-8.8 33.97,-8.8 13.38,0 26.48,2.71 39.28,8.18l-6.71 15.35c-12.49,-5.16 -23.81,-7.72 -33.93,-7.72 -8.96,0 -15.7,1.4 -20.24,4.19 -4.54,2.83 -6.82,6.67 -6.82,11.59 0,3.33 0.85,6.17 2.56,8.53 1.71,2.33 4.46,4.58 8.26,6.71 3.76,2.09 11.05,5.2 21.79,9.19 14.77,5.39 24.74,10.82 29.93,16.25 5.2,5.47 7.79,12.33 7.79,20.59zm69.75 77.66c-7.13,0 -12.72,-1.01 -16.83,-3.06l0 -16.44c5.39,1.51 10.97,2.29 16.83,2.29 7.48,0 13.18,-2.29 17.1,-6.82 3.88,-4.54 5.86,-11.09 5.86,-19.66l0 -166.15 19.31 0 0 164.52c0,14.39 -3.64,25.55 -10.93,33.46 -7.25,7.91 -17.72,11.86 -31.33,11.86zm160.06 -43.74l-3.76 -17.72 -0.93 0c-6.2,7.79 -12.37,13.11 -18.53,15.9 -6.2,2.75 -13.88,4.15 -23.11,4.15 -12.37,0 -22.02,-3.18 -29.04,-9.54 -6.98,-6.4 -10.51,-15.43 -10.51,-27.22 0,-25.16 20.12,-38.35 60.29,-39.55l21.13 -0.7 0 -7.72c0,-9.73 -2.09,-16.94 -6.28,-21.6 -4.23,-4.65 -10.93,-6.98 -20.16,-6.98 -10.39,0 -22.1,3.18 -35.21,9.54l-5.78 -14.42c6.13,-3.33 12.83,-5.97 20.12,-7.87 7.33,-1.9 14.66,-2.83 21.98,-2.83 14.85,0 25.82,3.3 33,9.89 7.17,6.59 10.74,17.14 10.74,31.68l0 84.99 -13.96 0zm-42.61 -13.26c11.75,0 20.98,-3.22 27.65,-9.66 6.71,-6.44 10.08,-15.43 10.08,-27.03l0 -11.24 -18.88 0.81c-14.97,0.5 -25.78,2.83 -32.41,6.98 -6.63,4.11 -9.93,10.55 -9.93,19.23 0,6.82 2.06,12.02 6.2,15.55 4.11,3.57 9.89,5.35 17.29,5.35zm145.21 15.59c-18.03,0 -31.99,-5.54 -41.88,-16.63 -9.89,-11.13 -14.81,-26.83 -14.81,-47.11 0,-20.86 5,-36.95 15.04,-48.31 10.04,-11.36 24.31,-17.06 42.88,-17.06 5.97,0 11.94,0.66 17.95,1.94 5.97,1.28 10.66,2.79 14.07,4.58l-5.82 16.01c-4.15,-1.67 -8.69,-3.02 -13.61,-4.15 -4.92,-1.09 -9.27,-1.63 -13.07,-1.63 -25.28,0 -37.92,16.13 -37.92,48.39 0,15.28 3.06,27.03 9.23,35.21 6.2,8.18 15.32,12.25 27.45,12.25 10.35,0 21.02,-2.25 31.91,-6.71l0 16.75c-8.34,4.3 -18.81,6.48 -31.45,6.48zm168.43 -64.68c0,20.32 -5.12,36.18 -15.32,47.58 -10.24,11.4 -24.35,17.1 -42.38,17.1 -11.13,0 -21.02,-2.6 -29.66,-7.83 -8.61,-5.23 -15.28,-12.76 -19.97,-22.53 -4.73,-9.77 -7.06,-21.21 -7.06,-34.32 0,-20.32 5.08,-36.14 15.24,-47.46 10.12,-11.32 24.23,-16.98 42.22,-16.98 17.45,0 31.25,5.78 41.53,17.37 10.28,11.59 15.39,27.3 15.39,47.07zm-94.84 0c0,15.9 3.18,28.03 9.54,36.37 6.36,8.34 15.7,12.49 28.07,12.49 12.33,0 21.71,-4.15 28.11,-12.45 6.4,-8.3 9.58,-20.43 9.58,-36.41 0,-15.82 -3.18,-27.84 -9.58,-36.06 -6.4,-8.22 -15.86,-12.33 -28.34,-12.33 -12.37,0 -21.67,4.03 -27.96,12.14 -6.28,8.1 -9.42,20.2 -9.42,36.25zm185.84 -64.21c16.36,0 29.08,5.58 38.15,16.75 9.03,11.21 13.57,27.03 13.57,47.46 0,20.47 -4.58,36.37 -13.69,47.69 -9.15,11.32 -21.79,16.98 -38.04,16.98 -8.1,0 -15.51,-1.51 -22.22,-4.5 -6.67,-2.99 -12.33,-7.6 -16.87,-13.8l-1.36 0 -3.99 15.97 -13.49 0 0 -176.81 18.84 0 0 42.96c0,9.62 -0.31,18.26 -0.89,25.94l0.89 0c8.8,-12.45 21.83,-18.65 39.08,-18.65zm-2.71 15.82c-12.87,0 -22.14,3.68 -27.84,11.09 -5.7,7.37 -8.53,19.81 -8.53,37.3 0,17.49 2.91,30.01 8.76,37.53 5.82,7.56 15.2,11.32 28.07,11.32 11.59,0 20.24,-4.23 25.9,-12.68 5.7,-8.41 8.53,-20.55 8.53,-36.41 0,-16.21 -2.83,-28.27 -8.53,-36.22 -5.66,-7.95 -14.46,-11.94 -26.37,-11.94zm106.2 110.74l-18.84 0 0 -124.46 18.84 0 0 124.46zm-20.43 -158.27c0,-4.3 1.05,-7.44 3.18,-9.46 2.13,-2.02 4.77,-3.02 7.95,-3.02 3.02,0 5.66,1.01 7.83,3.06 2.21,2.06 3.3,5.2 3.3,9.42 0,4.26 -1.09,7.44 -3.3,9.5 -2.17,2.09 -4.81,3.14 -7.83,3.14 -3.18,0 -5.82,-1.05 -7.95,-3.14 -2.13,-2.05 -3.18,-5.23 -3.18,-9.5zm145.67 158.27l0 -80.53c0,-10.16 -2.29,-17.72 -6.94,-22.72 -4.61,-5 -11.86,-7.48 -21.71,-7.48 -13.03,0 -22.57,3.53 -28.62,10.55 -6.09,7.06 -9.11,18.69 -9.11,34.9l0 65.3 -18.84 0 0 -124.46 15.32 0 3.06 16.98 0.93 0c3.88,-6.13 9.27,-10.9 16.25,-14.27 6.98,-3.37 14.73,-5.04 23.3,-5.04 15.01,0 26.29,3.61 33.85,10.86 7.6,7.21 11.36,18.81 11.36,34.7l0 81.23 -18.84 0zm134.12 0l-3.76 -17.72 -0.93 0c-6.2,7.79 -12.37,13.11 -18.53,15.9 -6.2,2.75 -13.88,4.15 -23.11,4.15 -12.37,0 -22.02,-3.18 -29.04,-9.54 -6.98,-6.4 -10.51,-15.43 -10.51,-27.22 0,-25.16 20.12,-38.35 60.29,-39.55l21.13 -0.7 0 -7.72c0,-9.73 -2.09,-16.94 -6.28,-21.6 -4.23,-4.65 -10.93,-6.98 -20.16,-6.98 -10.39,0 -22.1,3.18 -35.21,9.54l-5.78 -14.42c6.13,-3.33 12.83,-5.97 20.12,-7.87 7.33,-1.9 14.66,-2.83 21.98,-2.83 14.85,0 25.82,3.3 33,9.89 7.17,6.59 10.74,17.14 10.74,31.68l0 84.99 -13.96 0zm-42.61 -13.26c11.75,0 20.98,-3.22 27.65,-9.66 6.71,-6.44 10.08,-15.43 10.08,-27.03l0 -11.24 -18.88 0.81c-14.97,0.5 -25.78,2.83 -32.41,6.98 -6.63,4.11 -9.93,10.55 -9.93,19.23 0,6.82 2.06,12.02 6.2,15.55 4.11,3.57 9.89,5.35 17.29,5.35z"/>
 </g>
</svg>
