<?xml version="1.0" encoding="UTF-8"?>
<!DOCTYPE svg PUBLIC "-//W3C//DTD SVG 1.1//EN" "http://www.w3.org/Graphics/SVG/1.1/DTD/svg11.dtd">
<!-- Creator: CorelDRAW 2018 (64-Bit) -->
<svg xmlns="http://www.w3.org/2000/svg" xml:space="preserve" width="12.9183in" height="4.40001in" version="1.1" style="shape-rendering:geometricPrecision; text-rendering:geometricPrecision; image-rendering:optimizeQuality; fill-rule:evenodd; clip-rule:evenodd"
viewBox="0 0 9230.28 3143.85"
 xmlns:xlink="http://www.w3.org/1999/xlink">
 <defs>
  <style type="text/css">
   <![CDATA[
    .fil0 {fill:none}
    .fil2 {fill:#2A9137}
    .fil1 {fill:#B71C1C}
    .fil3 {fill:white;fill-rule:nonzero}
   ]]>
  </style>
 </defs>
 <g id="Layer_x0020_1">
  <metadata id="CorelCorpID_0Corel-Layer"/>
  <rect class="fil0" x="-0" y="0" width="9230.28" height="3143.85"/>
  <rect class="fil1" x="452.53" y="458.48" width="523.97" height="523.97" rx="261.99" ry="261.99"/>
  <rect class="fil2" x="1047.95" y="476.58" width="476.34" height="476.34" rx="47.63" ry="47.63"/>
  <rect class="fil2" x="1619.56" y="476.34" width="476.34" height="476.34" rx="47.63" ry="47.63"/>
  <rect class="fil2" x="476.34" y="1047.95" width="476.34" height="476.34" rx="47.63" ry="47.63"/>
  <rect class="fil2" x="1047.95" y="1047.95" width="476.34" height="476.34" rx="47.63" ry="47.63"/>
  <rect class="fil2" x="476.34" y="1619.56" width="476.34" height="476.34" rx="47.63" ry="47.63"/>
  <rect class="fil2" x="1047.95" y="1619.56" width="476.34" height="476.34" rx="47.63" ry="47.63"/>
  <rect class="fil2" x="476.34" y="2191.17" width="476.34" height="476.34" rx="47.63" ry="47.63"/>
  <rect class="fil2" x="1047.95" y="2191.17" width="476.34" height="476.34" rx="47.63" ry="47.63"/>
  <rect class="fil2" x="1047.95" y="1047.95" width="476.34" height="476.34" rx="47.63" ry="47.63"/>
  <path class="fil3" d="M2432.02 1524.75l0 -462.75 98.08 0 0 462.75 -98.08 0zm625 0l-124.65 0 -201.35 -350.09 -2.81 0c3.99,61.9 6.05,105.97 6.05,132.32l0 217.77 -87.71 0 0 -462.75 123.79 0 200.92 346.63 2.27 0c-3.24,-60.17 -4.75,-102.73 -4.75,-127.57l0 -219.06 88.25 0 0 462.75zm389.74 -128.33c0,41.8 -15.12,74.64 -45.15,98.73 -30.03,24.09 -71.94,36.08 -125.52,36.08 -49.37,0 -93.11,-9.29 -131.03,-27.87l0 -91.17c31.22,13.93 57.68,23.76 79.29,29.49 21.6,5.72 41.37,8.53 59.3,8.53 21.6,0 38.13,-4.1 49.58,-12.31 11.56,-8.21 17.28,-20.52 17.28,-36.73 0,-9.07 -2.48,-17.18 -7.56,-24.2 -5.07,-7.13 -12.53,-13.93 -22.36,-20.41 -9.83,-6.59 -29.82,-17.07 -59.95,-31.33 -28.3,-13.4 -49.58,-26.14 -63.73,-38.35 -14.15,-12.21 -25.38,-26.46 -33.81,-42.77 -8.53,-16.2 -12.75,-35.22 -12.75,-56.93 0,-40.94 13.93,-73.13 41.69,-96.57 27.76,-23.44 66.11,-35.11 115.04,-35.11 24.09,0 46.99,2.81 68.92,8.53 21.82,5.73 44.61,13.72 68.48,24.09l-31.65 76.26c-24.73,-10.16 -45.15,-17.18 -61.25,-21.17 -16.2,-3.99 -32.08,-6.05 -47.64,-6.05 -18.58,0 -32.84,4.32 -42.77,12.96 -9.94,8.64 -14.91,19.98 -14.91,33.92 0,8.64 2.05,16.2 6.05,22.58 4,6.48 10.37,12.64 19.12,18.69 8.75,6.05 29.49,16.85 62.22,32.41 43.32,20.74 72.91,41.48 89.01,62.22 15.99,20.85 24.09,46.23 24.09,76.48zm262.16 128.33l-98.08 0 0 -381.09 -125.63 0 0 -81.66 349.33 0 0 81.66 -125.62 0 0 381.09zm196.92 0l0 -462.75 98.08 0 0 462.75 -98.08 0zm392.98 0l-98.08 0 0 -381.09 -125.63 0 0 -81.66 349.33 0 0 81.66 -125.62 0 0 381.09zm573.58 -462.75l0 299.54c0,34.13 -7.67,64.17 -22.9,89.87 -15.34,25.82 -37.37,45.48 -66.32,59.19 -28.95,13.72 -63.08,20.63 -102.62,20.63 -59.41,0 -105.64,-15.23 -138.59,-45.8 -32.94,-30.46 -49.36,-72.16 -49.36,-125.2l0 -298.24 97.76 0 0 283.33c0,35.75 7.24,61.9 21.49,78.53 14.37,16.74 38.13,25.06 71.29,25.06 32.08,0 55.3,-8.43 69.78,-25.17 14.48,-16.74 21.71,-43.1 21.71,-78.96l0 -282.79 97.76 0zm291.65 462.75l-98.08 0 0 -381.09 -125.63 0 0 -81.66 349.33 0 0 81.66 -125.62 0 0 381.09zm603.94 -231.92c0,76.69 -18.9,135.56 -56.92,176.72 -38.02,41.15 -92.46,61.68 -163.33,61.68 -70.86,0 -125.3,-20.52 -163.32,-61.68 -38.02,-41.16 -56.93,-100.24 -56.93,-177.26 0,-77.02 19.01,-135.89 57.14,-176.5 38.02,-40.61 92.68,-60.92 163.76,-60.92 71.08,0 125.52,20.42 163.11,61.36 37.7,40.94 56.49,99.81 56.49,176.61zm-337.67 0c0,51.74 9.83,90.63 29.38,116.88 19.66,26.14 49.04,39.21 88.03,39.21 78.31,0 117.42,-52.06 117.42,-156.09 0,-104.24 -38.89,-156.3 -116.77,-156.3 -39.1,0 -68.49,13.18 -88.36,39.42 -19.77,26.25 -29.71,65.25 -29.71,116.88zm698.45 231.92l-96.57 0 0 -462.75 265.3 0 0 80.37 -168.73 0 0 119.25 157.06 0 0 80.37 -157.06 0 0 182.77zm525.62 0l-266.48 0 0 -462.75 266.48 0 0 80.37 -168.4 0 0 101.76 156.63 0 0 80.37 -156.63 0 0 119.25 168.4 0 0 81.02zm480.15 -235.81c0,76.15 -21.6,134.48 -64.92,174.99 -43.42,40.51 -105.97,60.81 -187.85,60.81l-130.92 0 0 -462.75 145.18 0c75.5,0 134.16,19.98 175.96,59.84 41.69,39.86 62.54,95.6 62.54,167.11zm-101.86 2.48c0,-99.38 -43.86,-149.07 -131.57,-149.07l-52.17 0 0 301.37 42.13 0c94.41,0 141.61,-50.77 141.61,-152.31zm464.38 233.32l-266.48 0 0 -462.75 266.48 0 0 80.37 -168.4 0 0 101.76 156.63 0 0 80.37 -156.63 0 0 119.25 168.4 0 0 81.02zm194.54 -257.3l31.65 0c31,0 53.9,-5.18 68.59,-15.56 14.8,-10.26 22.14,-26.57 22.14,-48.72 0,-21.93 -7.56,-37.59 -22.57,-46.88 -15.12,-9.29 -38.46,-13.94 -70.11,-13.94l-29.71 0 0 125.09zm0 79.72l0 177.58 -98.08 0 0 -462.75 134.81 0c62.87,0 109.32,11.45 139.45,34.35 30.25,22.9 45.26,57.68 45.26,104.24 0,27.22 -7.45,51.42 -22.47,72.7 -14.91,21.17 -36.08,37.8 -63.52,49.8 69.57,104.02 114.93,171.32 136,201.67l-108.88 0 -110.4 -177.58 -52.17 0zm613.12 177.58l-33.6 -110.18 -168.73 0 -33.49 110.18 -105.75 0 163.32 -464.7 119.9 0 163.97 464.7 -105.64 0zm-57.03 -192.49c-31,-99.81 -48.5,-156.31 -52.39,-169.38 -3.89,-13.07 -6.7,-23.44 -8.32,-31 -7.02,27.01 -27.01,93.76 -59.84,200.38l120.55 0zm220.9 192.49l0 -462.75 98.08 0 0 381.74 187.74 0 0 81.02 -285.82 0z"/>
  <path class="fil3" d="M2590.06 2359.94c-36.34,0 -65.11,12.14 -86.22,36.35 -21.04,24.28 -31.55,57.46 -31.55,99.6 0,43.39 10.13,76.87 30.47,100.46 20.26,23.66 49.26,35.49 86.92,35.49 23.04,0 49.41,-4.18 79.03,-12.45l0 33.79c-22.97,8.66 -51.27,12.99 -84.99,12.99 -48.79,0 -86.46,-14.77 -112.9,-44.39 -26.52,-29.62 -39.82,-71.69 -39.82,-126.21 0,-34.18 6.42,-64.11 19.18,-89.78 12.76,-25.67 31.17,-45.47 55.29,-59.31 24.05,-13.92 52.43,-20.88 85.06,-20.88 34.8,0 65.11,6.34 91.1,18.95l-16.32 33.1c-25.06,-11.83 -50.11,-17.71 -75.25,-17.71zm297.88 301.59l-7.5 -35.34 -1.86 0c-12.37,15.54 -24.67,26.14 -36.96,31.71 -12.37,5.49 -27.69,8.27 -46.09,8.27 -24.67,0 -43.92,-6.34 -57.92,-19.02 -13.92,-12.76 -20.96,-30.78 -20.96,-54.29 0,-50.19 40.13,-76.48 120.25,-78.88l42.14 -1.39 0 -15.39c0,-19.41 -4.18,-33.8 -12.53,-43.08 -8.43,-9.28 -21.81,-13.92 -40.21,-13.92 -20.72,0 -44.08,6.34 -70.22,19.02l-11.52 -28.77c12.22,-6.65 25.6,-11.91 40.14,-15.7 14.61,-3.79 29.23,-5.65 43.85,-5.65 29.62,0 51.5,6.57 65.81,19.72 14.31,13.15 21.42,34.18 21.42,63.18l0 169.51 -27.84 0zm-84.99 -26.45c23.43,0 41.84,-6.42 55.14,-19.26 13.38,-12.84 20.11,-30.78 20.11,-53.9l0 -22.43 -37.66 1.62c-29.85,1.01 -51.43,5.65 -64.65,13.92 -13.22,8.2 -19.8,21.03 -19.8,38.36 0,13.61 4.1,23.97 12.37,31.01 8.2,7.11 19.72,10.67 34.49,10.67zm506.76 26.45l0 -161.55c0,-19.72 -4.18,-34.57 -12.68,-44.47 -8.43,-9.9 -21.58,-14.85 -39.36,-14.85 -23.43,0 -40.68,6.73 -51.89,20.18 -11.13,13.46 -16.78,34.1 -16.78,62.02l0 138.65 -37.58 0 0 -161.55c0,-19.72 -4.25,-34.57 -12.68,-44.47 -8.43,-9.9 -21.65,-14.85 -39.67,-14.85 -23.51,0 -40.76,7.04 -51.74,21.19 -10.9,14.07 -16.39,37.27 -16.39,69.44l0 130.23 -37.58 0 0 -248.24 30.55 0 6.11 33.87 1.85 0c7.04,-12.06 17.09,-21.5 30.01,-28.3 12.91,-6.8 27.37,-10.21 43.38,-10.21 38.74,0 64.18,14.07 76.09,42.14l1.78 0c7.42,-12.99 18.17,-23.28 32.17,-30.85 14.07,-7.5 30.08,-11.29 48.02,-11.29 28.07,0 49.11,7.19 63.1,21.65 13.92,14.39 20.96,37.51 20.96,69.21l0 162.01 -37.66 0zm230.76 4.64c-16.16,0 -30.93,-3.02 -44.31,-8.97 -13.3,-5.96 -24.59,-15.16 -33.64,-27.53l-2.71 0c1.78,14.46 2.71,28.23 2.71,41.22l0 102 -37.58 0 0 -359.59 30.55 0 5.26 33.87 1.78 0c9.67,-13.61 20.96,-23.43 33.8,-29.46 12.84,-6.03 27.53,-9.05 44.16,-9.05 32.94,0 58.38,11.29 76.33,33.79 17.86,22.5 26.83,54.06 26.83,94.73 0,40.83 -9.13,72.54 -27.3,95.12 -18.25,22.58 -43.46,33.87 -75.86,33.87zm-5.41 -225.5c-25.37,0 -43.77,7.04 -55.06,21.04 -11.37,14.07 -17.17,36.42 -17.48,67.12l0 8.35c0,34.88 5.8,59.86 17.48,74.86 11.6,15.08 30.32,22.58 55.99,22.58 21.42,0 38.28,-8.66 50.42,-26.06 12.14,-17.4 18.25,-41.3 18.25,-71.84 0,-30.93 -6.11,-54.67 -18.25,-71.22 -12.14,-16.55 -29.31,-24.83 -51.35,-24.83zm209.57 -27.38l0 161.08c0,20.18 4.56,35.34 13.84,45.32 9.2,9.98 23.66,14.92 43.31,14.92 25.98,0 44.93,-7.11 56.99,-21.27 11.99,-14.23 18.02,-37.43 18.02,-69.6l0 -130.46 37.58 0 0 248.24 -31.01 0 -5.41 -33.17 -2.09 0c-7.66,12.22 -18.41,21.57 -32.09,28.07 -13.61,6.5 -29.23,9.74 -46.79,9.74 -30.23,0 -52.82,-7.19 -67.9,-21.5 -15,-14.38 -22.5,-37.35 -22.5,-68.9l0 -162.48 38.05 0zm409.63 180.57c0,23.12 -8.66,40.99 -25.83,53.51 -17.24,12.53 -41.37,18.79 -72.54,18.79 -32.86,0 -58.54,-5.18 -77.02,-15.62l0 -34.95c11.99,6.03 24.75,10.82 38.43,14.3 13.69,3.48 26.83,5.18 39.52,5.18 19.64,0 34.72,-3.17 45.32,-9.43 10.6,-6.26 15.85,-15.78 15.85,-28.61 0,-9.67 -4.18,-17.94 -12.61,-24.83 -8.35,-6.88 -24.67,-15 -49.03,-24.36 -23.12,-8.66 -39.52,-16.16 -49.26,-22.58 -9.74,-6.42 -17.01,-13.69 -21.73,-21.89 -4.8,-8.12 -7.11,-17.86 -7.11,-29.23 0,-20.26 8.2,-36.19 24.67,-47.95 16.47,-11.68 39.05,-17.55 67.74,-17.55 26.68,0 52.82,5.41 78.34,16.32l-13.38 30.62c-24.9,-10.28 -47.48,-15.39 -67.66,-15.39 -17.87,0 -31.32,2.78 -40.37,8.35 -9.05,5.65 -13.61,13.3 -13.61,23.12 0,6.65 1.7,12.3 5.11,17.01 3.4,4.64 8.89,9.13 16.47,13.38 7.5,4.17 22.04,10.36 43.46,18.33 29.46,10.75 49.34,21.58 59.7,32.4 10.36,10.91 15.54,24.59 15.54,41.06zm139.12 154.89c-14.23,0 -25.37,-2.01 -33.56,-6.11l0 -32.79c10.75,3.02 21.89,4.56 33.56,4.56 14.92,0 26.29,-4.56 34.1,-13.61 7.73,-9.05 11.68,-22.12 11.68,-39.21l0 -331.36 38.51 0 0 328.12c0,28.69 -7.27,50.96 -21.81,66.74 -14.46,15.78 -35.34,23.66 -62.48,23.66zm319.22 -87.23l-7.5 -35.34 -1.86 0c-12.37,15.54 -24.67,26.14 -36.96,31.71 -12.37,5.49 -27.69,8.27 -46.09,8.27 -24.67,0 -43.92,-6.34 -57.92,-19.02 -13.92,-12.76 -20.96,-30.78 -20.96,-54.29 0,-50.19 40.13,-76.48 120.25,-78.88l42.14 -1.39 0 -15.39c0,-19.41 -4.18,-33.8 -12.53,-43.08 -8.43,-9.28 -21.81,-13.92 -40.21,-13.92 -20.72,0 -44.08,6.34 -70.22,19.02l-11.52 -28.77c12.22,-6.65 25.6,-11.91 40.14,-15.7 14.61,-3.79 29.23,-5.65 43.85,-5.65 29.62,0 51.5,6.57 65.81,19.72 14.31,13.15 21.42,34.18 21.42,63.18l0 169.51 -27.84 0zm-84.99 -26.45c23.43,0 41.84,-6.42 55.14,-19.26 13.38,-12.84 20.11,-30.78 20.11,-53.9l0 -22.43 -37.66 1.62c-29.85,1.01 -51.43,5.65 -64.65,13.92 -13.22,8.2 -19.8,21.03 -19.8,38.36 0,13.61 4.1,23.97 12.37,31.01 8.2,7.11 19.72,10.67 34.49,10.67zm289.61 31.09c-35.96,0 -63.8,-11.06 -83.52,-33.17 -19.72,-22.19 -29.54,-53.51 -29.54,-93.96 0,-41.6 9.98,-73.7 30.01,-96.35 20.03,-22.66 48.49,-34.03 85.53,-34.03 11.91,0 23.82,1.31 35.8,3.87 11.91,2.55 21.27,5.57 28.07,9.12l-11.6 31.94c-8.28,-3.33 -17.32,-6.03 -27.14,-8.27 -9.82,-2.17 -18.48,-3.25 -26.06,-3.25 -50.42,0 -75.63,32.17 -75.63,96.51 0,30.47 6.11,53.9 18.4,70.22 12.37,16.32 30.55,24.44 54.75,24.44 20.64,0 41.91,-4.48 63.64,-13.38l0 33.41c-16.63,8.58 -37.51,12.91 -62.72,12.91zm335.93 -128.99c0,40.52 -10.21,72.15 -30.54,94.89 -20.42,22.73 -48.57,34.1 -84.53,34.1 -22.19,0 -41.91,-5.18 -59.16,-15.62 -17.17,-10.44 -30.47,-25.44 -39.82,-44.93 -9.43,-19.49 -14.08,-42.3 -14.08,-68.44 0,-40.52 10.13,-72.07 30.39,-94.65 20.18,-22.58 48.33,-33.87 84.21,-33.87 34.8,0 62.33,11.52 82.82,34.65 20.49,23.12 30.7,54.44 30.7,93.88zm-189.15 0c0,31.71 6.34,55.91 19.02,72.54 12.68,16.63 31.32,24.9 55.99,24.9 24.59,0 43.31,-8.27 56.07,-24.82 12.76,-16.55 19.1,-40.76 19.1,-72.62 0,-31.55 -6.34,-55.52 -19.1,-71.92 -12.76,-16.39 -31.63,-24.59 -56.53,-24.59 -24.67,0 -43.23,8.04 -55.75,24.21 -12.53,16.16 -18.79,40.29 -18.79,72.3zm370.65 -128.06c32.63,0 58,11.14 76.1,33.41 18.02,22.35 27.06,53.9 27.06,94.65 0,40.83 -9.13,72.54 -27.3,95.12 -18.25,22.58 -43.46,33.87 -75.86,33.87 -16.16,0 -30.93,-3.02 -44.31,-8.97 -13.3,-5.96 -24.59,-15.16 -33.64,-27.53l-2.71 0 -7.96 31.86 -26.91 0 0 -352.63 37.58 0 0 85.68c0,19.18 -0.62,36.42 -1.78,51.73l1.78 0c17.56,-24.83 43.54,-37.2 77.95,-37.2zm-5.41 31.55c-25.67,0 -44.16,7.35 -55.53,22.12 -11.37,14.7 -17.01,39.52 -17.01,74.39 0,34.88 5.8,59.86 17.48,74.86 11.6,15.08 30.32,22.58 55.99,22.58 23.12,0 40.37,-8.43 51.66,-25.29 11.37,-16.78 17.01,-40.99 17.01,-72.62 0,-32.32 -5.65,-56.37 -17.01,-72.23 -11.29,-15.85 -28.84,-23.82 -52.58,-23.82zm211.81 220.86l-37.58 0 0 -248.24 37.58 0 0 248.24zm-40.75 -315.67c0,-8.59 2.09,-14.85 6.34,-18.87 4.25,-4.02 9.51,-6.03 15.85,-6.03 6.03,0 11.29,2.01 15.62,6.11 4.41,4.1 6.57,10.36 6.57,18.79 0,8.51 -2.17,14.85 -6.57,18.95 -4.33,4.17 -9.59,6.26 -15.62,6.26 -6.34,0 -11.6,-2.09 -15.85,-6.26 -4.25,-4.1 -6.34,-10.44 -6.34,-18.95zm290.54 315.67l0 -160.62c0,-20.26 -4.56,-35.34 -13.84,-45.32 -9.2,-9.98 -23.66,-14.93 -43.3,-14.93 -25.98,0 -45.01,7.04 -57.07,21.04 -12.14,14.07 -18.17,37.27 -18.17,69.6l0 130.23 -37.58 0 0 -248.24 30.55 0 6.11 33.87 1.85 0c7.73,-12.22 18.48,-21.73 32.4,-28.46 13.92,-6.73 29.38,-10.05 46.48,-10.05 29.93,0 52.43,7.19 67.51,21.65 15.16,14.39 22.66,37.51 22.66,69.21l0 162.01 -37.58 0zm267.49 0l-7.5 -35.34 -1.86 0c-12.37,15.54 -24.67,26.14 -36.96,31.71 -12.37,5.49 -27.69,8.27 -46.09,8.27 -24.67,0 -43.92,-6.34 -57.92,-19.02 -13.92,-12.76 -20.96,-30.78 -20.96,-54.29 0,-50.19 40.13,-76.48 120.25,-78.88l42.14 -1.39 0 -15.39c0,-19.41 -4.18,-33.8 -12.53,-43.08 -8.43,-9.28 -21.81,-13.92 -40.21,-13.92 -20.72,0 -44.08,6.34 -70.22,19.02l-11.52 -28.77c12.22,-6.65 25.6,-11.91 40.14,-15.7 14.61,-3.79 29.23,-5.65 43.85,-5.65 29.62,0 51.5,6.57 65.81,19.72 14.31,13.15 21.42,34.18 21.42,63.18l0 169.51 -27.84 0zm-84.99 -26.45c23.43,0 41.84,-6.42 55.14,-19.26 13.38,-12.84 20.11,-30.78 20.11,-53.9l0 -22.43 -37.66 1.62c-29.85,1.01 -51.43,5.65 -64.65,13.92 -13.22,8.2 -19.8,21.03 -19.8,38.36 0,13.61 4.1,23.97 12.37,31.01 8.2,7.11 19.72,10.67 34.49,10.67z"/>
  <path class="fil3" d="M2430.99 1758.8l93.57 0c43.93,0 75.79,6.57 95.35,19.72 19.64,13.15 29.46,33.95 29.46,62.33 0,19.64 -5.41,35.88 -16.39,48.64 -10.98,12.76 -26.91,21.03 -47.95,24.82l0 2.24c50.34,8.59 75.48,35.03 75.48,79.27 0,29.62 -10.05,52.74 -30.01,69.37 -20.03,16.63 -48.02,24.9 -83.98,24.9l-115.53 0 0 -331.29zm38.51 141.98l63.41 0c27.22,0 46.79,-4.25 58.7,-12.84 11.99,-8.51 17.94,-22.89 17.94,-43.15 0,-18.56 -6.65,-32.02 -19.95,-40.21 -13.3,-8.27 -34.41,-12.37 -63.41,-12.37l-56.69 0 0 108.57zm0 32.48l0 123.89 69.14 0c26.68,0 46.86,-5.18 60.32,-15.54 13.53,-10.28 20.34,-26.52 20.34,-48.56 0,-20.49 -6.96,-35.65 -20.72,-45.32 -13.84,-9.67 -34.88,-14.46 -63.1,-14.46l-65.97 0zm409.16 156.83l-7.5 -35.34 -1.86 0c-12.37,15.54 -24.67,26.14 -36.96,31.71 -12.37,5.49 -27.69,8.27 -46.09,8.27 -24.67,0 -43.92,-6.34 -57.92,-19.02 -13.92,-12.76 -20.96,-30.78 -20.96,-54.29 0,-50.19 40.13,-76.48 120.25,-78.88l42.14 -1.39 0 -15.39c0,-19.41 -4.18,-33.8 -12.53,-43.08 -8.43,-9.28 -21.81,-13.92 -40.21,-13.92 -20.72,0 -44.08,6.34 -70.22,19.02l-11.52 -28.77c12.22,-6.65 25.6,-11.91 40.14,-15.7 14.61,-3.79 29.23,-5.65 43.85,-5.65 29.62,0 51.5,6.57 65.81,19.72 14.31,13.15 21.42,34.18 21.42,63.18l0 169.51 -27.84 0zm-84.99 -26.45c23.43,0 41.84,-6.42 55.14,-19.26 13.38,-12.84 20.11,-30.78 20.11,-53.9l0 -22.43 -37.66 1.62c-29.85,1.01 -51.43,5.65 -64.65,13.92 -13.22,8.2 -19.8,21.03 -19.8,38.36 0,13.61 4.1,23.97 12.37,31.01 8.2,7.11 19.72,10.67 34.49,10.67zm360.37 26.45l0 -160.62c0,-20.26 -4.56,-35.34 -13.84,-45.32 -9.2,-9.98 -23.66,-14.93 -43.3,-14.93 -26.14,0 -45.16,7.11 -57.23,21.27 -11.99,14.23 -18.02,37.51 -18.02,69.83l0 129.76 -37.58 0 0 -352.63 37.58 0 0 106.8c0,12.84 -0.62,23.51 -1.78,31.94l2.24 0c7.43,-11.91 17.94,-21.34 31.63,-28.23 13.69,-6.88 29.31,-10.28 46.79,-10.28 30.39,0 53.2,7.19 68.36,21.65 15.16,14.39 22.74,37.35 22.74,68.75l0 162.01 -37.58 0zm152.42 0l-37.58 0 0 -248.24 37.58 0 0 248.24zm-40.75 -315.67c0,-8.59 2.09,-14.85 6.34,-18.87 4.25,-4.02 9.51,-6.03 15.85,-6.03 6.03,0 11.29,2.01 15.62,6.11 4.41,4.1 6.57,10.36 6.57,18.79 0,8.51 -2.17,14.85 -6.57,18.95 -4.33,4.17 -9.59,6.26 -15.62,6.26 -6.34,0 -11.6,-2.09 -15.85,-6.26 -4.25,-4.1 -6.34,-10.44 -6.34,-18.95zm273.21 315.67l-7.5 -35.34 -1.86 0c-12.37,15.54 -24.67,26.14 -36.96,31.71 -12.37,5.49 -27.69,8.27 -46.09,8.27 -24.67,0 -43.92,-6.34 -57.92,-19.02 -13.92,-12.76 -20.96,-30.78 -20.96,-54.29 0,-50.19 40.13,-76.48 120.25,-78.88l42.14 -1.39 0 -15.39c0,-19.41 -4.18,-33.8 -12.53,-43.08 -8.43,-9.28 -21.81,-13.92 -40.21,-13.92 -20.72,0 -44.08,6.34 -70.22,19.02l-11.52 -28.77c12.22,-6.65 25.6,-11.91 40.14,-15.7 14.61,-3.79 29.23,-5.65 43.85,-5.65 29.62,0 51.5,6.57 65.81,19.72 14.31,13.15 21.42,34.18 21.42,63.18l0 169.51 -27.84 0zm-84.99 -26.45c23.43,0 41.84,-6.42 55.14,-19.26 13.38,-12.84 20.11,-30.78 20.11,-53.9l0 -22.43 -37.66 1.62c-29.85,1.01 -51.43,5.65 -64.65,13.92 -13.22,8.2 -19.8,21.03 -19.8,38.36 0,13.61 4.1,23.97 12.37,31.01 8.2,7.11 19.72,10.67 34.49,10.67z"/>
  <rect class="fil2" x="1619.56" y="1619.56" width="476.34" height="476.34" rx="47.63" ry="47.63"/>
 </g>
</svg>
