<?xml version="1.0" encoding="UTF-8"?>
<!DOCTYPE svg PUBLIC "-//W3C//DTD SVG 1.1//EN" "http://www.w3.org/Graphics/SVG/1.1/DTD/svg11.dtd">
<!-- Creator: CorelDRAW 2018 (64-Bit) -->
<svg xmlns="http://www.w3.org/2000/svg" xml:space="preserve" width="25.8267in" height="8.8in" version="1.1" style="shape-rendering:geometricPrecision; text-rendering:geometricPrecision; image-rendering:optimizeQuality; fill-rule:evenodd; clip-rule:evenodd"
viewBox="0 0 4668.81 1590.82"
 xmlns:xlink="http://www.w3.org/1999/xlink">
 <defs>
  <style type="text/css">
   <![CDATA[
    .fil0 {fill:none}
    .fil2 {fill:#2A9137}
    .fil1 {fill:#B71C1C}
    .fil3 {fill:black;fill-rule:nonzero}
   ]]>
  </style>
 </defs>
 <g id="Layer_x0020_1">
  <metadata id="CorelCorpID_0Corel-Layer"/>
  <polygon class="fil0" points="-0,0 4668.81,0 4668.81,1590.82 -0,1590.82 "/>
  <path class="fil1" d="M361.55 232l0 0c72.91,0 132.57,59.65 132.57,132.57l0 0c0,72.91 -59.65,132.57 -132.57,132.57l-0 0c-72.91,0 -132.57,-59.65 -132.57,-132.57l0 -0c0,-72.91 59.65,-132.57 132.57,-132.57z"/>
  <path class="fil2" d="M554.38 241.16l192.83 0c13.26,0 24.1,10.85 24.1,24.1l0 192.83c0,13.26 -10.85,24.1 -24.1,24.1l-192.83 0c-13.26,0 -24.1,-10.85 -24.1,-24.1l0 -192.83c0,-13.26 10.85,-24.1 24.1,-24.1z"/>
  <path class="fil2" d="M843.61 241.03l192.83 0c13.26,0 24.1,10.85 24.1,24.1l0 192.83c0,13.26 -10.85,24.1 -24.1,24.1l-192.83 0c-13.26,0 -24.1,-10.85 -24.1,-24.1l0 -192.83c0,-13.26 10.85,-24.1 24.1,-24.1z"/>
  <path class="fil2" d="M265.14 530.27l192.83 0c13.26,0 24.1,10.85 24.1,24.1l0 192.83c0,13.26 -10.85,24.1 -24.1,24.1l-192.83 0c-13.26,0 -24.1,-10.85 -24.1,-24.1l0 -192.83c0,-13.26 10.85,-24.1 24.1,-24.1z"/>
  <path class="fil2" d="M554.38 530.27l192.83 0c13.26,0 24.1,10.85 24.1,24.1l0 192.83c0,13.26 -10.85,24.1 -24.1,24.1l-192.83 0c-13.26,0 -24.1,-10.85 -24.1,-24.1l0 -192.83c0,-13.26 10.85,-24.1 24.1,-24.1z"/>
  <path class="fil2" d="M265.14 819.51l192.83 0c13.26,0 24.1,10.85 24.1,24.1l0 192.83c0,13.26 -10.85,24.1 -24.1,24.1l-192.83 0c-13.26,0 -24.1,-10.85 -24.1,-24.1l0 -192.83c0,-13.26 10.85,-24.1 24.1,-24.1z"/>
  <path class="fil2" d="M554.38 819.51l192.83 0c13.26,0 24.1,10.85 24.1,24.1l0 192.83c0,13.26 -10.85,24.1 -24.1,24.1l-192.83 0c-13.26,0 -24.1,-10.85 -24.1,-24.1l0 -192.83c0,-13.26 10.85,-24.1 24.1,-24.1z"/>
  <path class="fil2" d="M265.14 1108.75l192.83 0c13.26,0 24.1,10.85 24.1,24.1l0 192.83c0,13.26 -10.85,24.1 -24.1,24.1l-192.83 0c-13.26,0 -24.1,-10.85 -24.1,-24.1l0 -192.83c0,-13.26 10.85,-24.1 24.1,-24.1z"/>
  <path class="fil2" d="M554.38 1108.75l192.83 0c13.26,0 24.1,10.85 24.1,24.1l0 192.83c0,13.26 -10.85,24.1 -24.1,24.1l-192.83 0c-13.26,0 -24.1,-10.85 -24.1,-24.1l0 -192.83c0,-13.26 10.85,-24.1 24.1,-24.1z"/>
  <path class="fil2" d="M843.61 819.51l192.83 0c13.26,0 24.1,10.85 24.1,24.1l0 192.83c0,13.26 -10.85,24.1 -24.1,24.1l-192.83 0c-13.26,0 -24.1,-10.85 -24.1,-24.1l0 -192.83c0,-13.26 10.85,-24.1 24.1,-24.1z"/>
  <path class="fil3" d="M1229.68 768.03l0 -234.15 49.63 0 0 234.15 -49.63 0zm316.24 0l-63.07 0 -101.88 -177.14 -1.42 0c2.02,31.32 3.06,53.62 3.06,66.95l0 110.19 -44.38 0 0 -234.15 62.64 0 101.66 175.39 1.15 0c-1.64,-30.44 -2.4,-51.98 -2.4,-64.55l0 -110.84 44.65 0 0 234.15zm197.2 -64.93c0,21.15 -7.65,37.77 -22.85,49.96 -15.19,12.19 -36.4,18.26 -63.51,18.26 -24.98,0 -47.11,-4.7 -66.3,-14.1l0 -46.13c15.8,7.05 29.19,12.02 40.12,14.92 10.93,2.9 20.93,4.32 30.01,4.32 10.93,0 19.29,-2.08 25.09,-6.23 5.85,-4.15 8.74,-10.38 8.74,-18.58 0,-4.59 -1.26,-8.69 -3.83,-12.24 -2.57,-3.61 -6.34,-7.05 -11.31,-10.33 -4.97,-3.33 -15.08,-8.64 -30.33,-15.85 -14.32,-6.78 -25.09,-13.23 -32.25,-19.4 -7.16,-6.18 -12.84,-13.39 -17.11,-21.64 -4.32,-8.2 -6.45,-17.82 -6.45,-28.8 0,-20.71 7.05,-37 21.1,-48.86 14.05,-11.86 33.45,-17.76 58.21,-17.76 12.19,0 23.77,1.42 34.87,4.32 11.04,2.9 22.57,6.94 34.65,12.19l-16.01 38.59c-12.52,-5.14 -22.85,-8.69 -30.99,-10.71 -8.2,-2.02 -16.23,-3.06 -24.1,-3.06 -9.4,0 -16.62,2.19 -21.64,6.56 -5.03,4.37 -7.54,10.11 -7.54,17.16 0,4.37 1.04,8.2 3.06,11.42 2.02,3.28 5.25,6.39 9.67,9.46 4.43,3.06 14.92,8.53 31.48,16.4 21.92,10.49 36.89,20.99 45.04,31.48 8.09,10.55 12.19,23.39 12.19,38.7zm132.65 64.93l-49.63 0 0 -192.83 -63.57 0 0 -41.32 176.76 0 0 41.32 -63.57 0 0 192.83zm99.64 0l0 -234.15 49.63 0 0 234.15 -49.63 0zm198.84 0l-49.63 0 0 -192.83 -63.57 0 0 -41.32 176.76 0 0 41.32 -63.57 0 0 192.83zm290.22 -234.15l0 151.56c0,17.27 -3.88,32.47 -11.59,45.47 -7.76,13.06 -18.91,23.01 -33.56,29.95 -14.65,6.94 -31.92,10.44 -51.92,10.44 -30.06,0 -53.45,-7.71 -70.12,-23.17 -16.67,-15.41 -24.98,-36.51 -24.98,-63.35l0 -150.9 49.46 0 0 143.36c0,18.09 3.66,31.32 10.88,39.73 7.27,8.47 19.29,12.68 36.07,12.68 16.23,0 27.98,-4.26 35.31,-12.73 7.32,-8.47 10.99,-21.81 10.99,-39.95l0 -143.09 49.46 0zm147.57 234.15l-49.63 0 0 -192.83 -63.57 0 0 -41.32 176.76 0 0 41.32 -63.57 0 0 192.83zm305.58 -117.35c0,38.81 -9.56,68.59 -28.8,89.42 -19.24,20.82 -46.79,31.21 -82.64,31.21 -35.85,0 -63.4,-10.38 -82.64,-31.21 -19.24,-20.82 -28.8,-50.72 -28.8,-89.69 0,-38.97 9.62,-68.76 28.91,-89.31 19.24,-20.55 46.89,-30.83 82.86,-30.83 35.96,0 63.51,10.33 82.53,31.04 19.07,20.71 28.59,50.5 28.59,89.36zm-170.85 0c0,26.18 4.97,45.86 14.87,59.14 9.95,13.23 24.81,19.84 44.54,19.84 39.63,0 59.41,-26.34 59.41,-78.98 0,-52.74 -19.68,-79.09 -59.08,-79.09 -19.79,0 -34.65,6.67 -44.71,19.95 -10,13.28 -15.03,33.01 -15.03,59.14zm353.4 117.35l-48.86 0 0 -234.15 134.24 0 0 40.66 -85.37 0 0 60.34 79.47 0 0 40.66 -79.47 0 0 92.48zm265.95 0l-134.84 0 0 -234.15 134.84 0 0 40.66 -85.21 0 0 51.49 79.25 0 0 40.66 -79.25 0 0 60.34 85.21 0 0 40.99zm242.95 -119.31c0,38.53 -10.93,68.05 -32.85,88.54 -21.97,20.5 -53.62,30.77 -95.05,30.77l-66.24 0 0 -234.15 73.46 0c38.2,0 67.88,10.11 89.03,30.28 21.1,20.17 31.65,48.37 31.65,84.55zm-51.54 1.26c0,-50.28 -22.19,-75.43 -66.57,-75.43l-26.4 0 0 152.49 21.32 0c47.77,0 71.65,-25.69 71.65,-77.06zm234.97 118.06l-134.84 0 0 -234.15 134.84 0 0 40.66 -85.21 0 0 51.49 79.25 0 0 40.66 -79.25 0 0 60.34 85.21 0 0 40.99zm98.44 -130.19l16.01 0c15.69,0 27.27,-2.62 34.71,-7.87 7.49,-5.19 11.2,-13.44 11.2,-24.65 0,-11.1 -3.83,-19.02 -11.42,-23.72 -7.65,-4.7 -19.46,-7.05 -35.47,-7.05l-15.03 0 0 63.29zm0 40.34l0 89.85 -49.63 0 0 -234.15 68.21 0c31.81,0 55.31,5.79 70.56,17.38 15.3,11.59 22.9,29.19 22.9,52.74 0,13.77 -3.77,26.02 -11.37,36.78 -7.54,10.71 -18.25,19.13 -32.14,25.2 35.2,52.63 58.15,86.68 68.81,102.04l-55.09 0 -55.86 -89.85 -26.4 0zm310.23 89.85l-17 -55.75 -85.37 0 -16.94 55.75 -53.51 0 82.64 -235.13 60.67 0 82.97 235.13 -53.45 0zm-28.86 -97.4c-15.69,-50.5 -24.54,-79.09 -26.51,-85.7 -1.97,-6.61 -3.39,-11.86 -4.21,-15.69 -3.55,13.66 -13.66,47.44 -30.28,101.39l61 0zm111.77 97.4l0 -234.15 49.63 0 0 193.15 94.99 0 0 40.99 -144.62 0z"/>
  <path class="fil3" d="M1229.45 860.44l47.35 0c22.23,0 38.35,3.33 48.25,9.98 9.94,6.65 14.91,17.18 14.91,31.54 0,9.94 -2.74,18.16 -8.29,24.61 -5.56,6.46 -13.62,10.64 -24.26,12.56l0 1.13c25.47,4.34 38.19,17.73 38.19,40.11 0,14.99 -5.09,26.69 -15.18,35.1 -10.13,8.41 -24.3,12.6 -42.49,12.6l-58.46 0 0 -167.63zm19.49 71.84l32.09 0c13.77,0 23.67,-2.15 29.7,-6.5 6.07,-4.3 9.08,-11.58 9.08,-21.83 0,-9.39 -3.36,-16.2 -10.09,-20.35 -6.73,-4.19 -17.41,-6.26 -32.09,-6.26l-28.68 0 0 54.94zm0 16.43l0 62.68 34.98 0c13.5,0 23.71,-2.62 30.52,-7.86 6.85,-5.2 10.29,-13.42 10.29,-24.57 0,-10.37 -3.52,-18.04 -10.49,-22.93 -7,-4.89 -17.65,-7.32 -31.93,-7.32l-33.38 0zm207.03 79.35l-3.8 -17.88 -0.94 0c-6.26,7.87 -12.48,13.23 -18.7,16.04 -6.26,2.78 -14.01,4.19 -23.32,4.19 -12.48,0 -22.23,-3.21 -29.31,-9.63 -7.04,-6.46 -10.6,-15.57 -10.6,-27.47 0,-25.39 20.31,-38.7 60.84,-39.91l21.33 -0.7 0 -7.79c0,-9.82 -2.11,-17.1 -6.34,-21.79 -4.26,-4.7 -11.03,-7.04 -20.35,-7.04 -10.49,0 -22.3,3.21 -35.53,9.63l-5.83 -14.56c6.18,-3.36 12.95,-6.03 20.31,-7.94 7.39,-1.92 14.79,-2.86 22.19,-2.86 14.99,0 26.06,3.33 33.3,9.98 7.24,6.65 10.84,17.29 10.84,31.97l0 85.77 -14.09 0zm-43 -13.38c11.86,0 21.17,-3.25 27.9,-9.74 6.77,-6.5 10.17,-15.57 10.17,-27.27l0 -11.35 -19.06 0.82c-15.1,0.51 -26.02,2.86 -32.71,7.04 -6.69,4.15 -10.02,10.64 -10.02,19.41 0,6.89 2.07,12.13 6.26,15.69 4.15,3.6 9.98,5.4 17.45,5.4zm182.34 13.38l0 -81.27c0,-10.25 -2.31,-17.88 -7,-22.93 -4.66,-5.05 -11.97,-7.55 -21.91,-7.55 -13.23,0 -22.85,3.6 -28.96,10.76 -6.07,7.2 -9.12,18.98 -9.12,35.33l0 65.66 -19.02 0 0 -178.43 19.02 0 0 54.04c0,6.5 -0.31,11.89 -0.9,16.16l1.14 0c3.76,-6.03 9.08,-10.8 16,-14.28 6.93,-3.48 14.83,-5.2 23.67,-5.2 15.38,0 26.92,3.64 34.59,10.96 7.67,7.28 11.5,18.9 11.5,34.78l0 81.97 -19.02 0zm77.12 0l-19.02 0 0 -125.6 19.02 0 0 125.6zm-20.62 -159.72c0,-4.34 1.06,-7.51 3.21,-9.55 2.15,-2.03 4.81,-3.05 8.02,-3.05 3.05,0 5.71,1.02 7.9,3.09 2.23,2.07 3.33,5.24 3.33,9.51 0,4.3 -1.1,7.51 -3.33,9.59 -2.19,2.11 -4.85,3.17 -7.9,3.17 -3.21,0 -5.87,-1.06 -8.02,-3.17 -2.15,-2.07 -3.21,-5.28 -3.21,-9.59zm138.24 159.72l-3.8 -17.88 -0.94 0c-6.26,7.87 -12.48,13.23 -18.7,16.04 -6.26,2.78 -14.01,4.19 -23.32,4.19 -12.48,0 -22.23,-3.21 -29.31,-9.63 -7.04,-6.46 -10.6,-15.57 -10.6,-27.47 0,-25.39 20.31,-38.7 60.84,-39.91l21.33 -0.7 0 -7.79c0,-9.82 -2.11,-17.1 -6.34,-21.79 -4.26,-4.7 -11.03,-7.04 -20.35,-7.04 -10.49,0 -22.3,3.21 -35.53,9.63l-5.83 -14.56c6.18,-3.36 12.95,-6.03 20.31,-7.94 7.39,-1.92 14.79,-2.86 22.19,-2.86 14.99,0 26.06,3.33 33.3,9.98 7.24,6.65 10.84,17.29 10.84,31.97l0 85.77 -14.09 0zm-43 -13.38c11.86,0 21.17,-3.25 27.9,-9.74 6.77,-6.5 10.17,-15.57 10.17,-27.27l0 -11.35 -19.06 0.82c-15.1,0.51 -26.02,2.86 -32.71,7.04 -6.69,4.15 -10.02,10.64 -10.02,19.41 0,6.89 2.07,12.13 6.26,15.69 4.15,3.6 9.98,5.4 17.45,5.4z"/>
  <path class="fil2" d="M554.38 530.27l192.83 0c13.26,0 24.1,10.85 24.1,24.1l0 192.83c0,13.26 -10.85,24.1 -24.1,24.1l-192.83 0c-13.26,0 -24.1,-10.85 -24.1,-24.1l0 -192.83c0,-13.26 10.85,-24.1 24.1,-24.1z"/>
  <path class="fil3" d="M1301.21 1164.71c-18.39,0 -32.95,6.14 -43.63,18.39 -10.64,12.29 -15.96,29.07 -15.96,50.4 0,21.95 5.13,38.89 15.42,50.83 10.25,11.97 24.92,17.96 43.98,17.96 11.66,0 25,-2.11 39.99,-6.3l0 17.1c-11.62,4.38 -25.94,6.57 -43,6.57 -24.69,0 -43.75,-7.47 -57.13,-22.46 -13.42,-14.99 -20.15,-36.27 -20.15,-63.86 0,-17.29 3.25,-32.44 9.7,-45.43 6.46,-12.99 15.77,-23.01 27.98,-30.01 12.17,-7.04 26.53,-10.56 43.04,-10.56 17.61,0 32.95,3.21 46.09,9.59l-8.26 16.75c-12.68,-5.99 -25.35,-8.96 -38.07,-8.96zm150.72 152.6l-3.8 -17.88 -0.94 0c-6.26,7.87 -12.48,13.23 -18.7,16.04 -6.26,2.78 -14.01,4.19 -23.32,4.19 -12.48,0 -22.23,-3.21 -29.31,-9.63 -7.04,-6.46 -10.6,-15.57 -10.6,-27.47 0,-25.39 20.31,-38.7 60.84,-39.91l21.33 -0.7 0 -7.79c0,-9.82 -2.11,-17.1 -6.34,-21.79 -4.26,-4.7 -11.03,-7.04 -20.35,-7.04 -10.49,0 -22.3,3.21 -35.53,9.63l-5.83 -14.56c6.18,-3.36 12.95,-6.03 20.31,-7.94 7.39,-1.92 14.79,-2.86 22.19,-2.86 14.99,0 26.06,3.33 33.3,9.98 7.24,6.65 10.84,17.29 10.84,31.97l0 85.77 -14.09 0zm-43 -13.38c11.86,0 21.17,-3.25 27.9,-9.74 6.77,-6.5 10.17,-15.57 10.17,-27.27l0 -11.35 -19.06 0.82c-15.1,0.51 -26.02,2.86 -32.71,7.04 -6.69,4.15 -10.02,10.64 -10.02,19.41 0,6.89 2.07,12.13 6.26,15.69 4.15,3.6 9.98,5.4 17.45,5.4zm256.41 13.38l0 -81.74c0,-9.98 -2.11,-17.49 -6.42,-22.5 -4.26,-5.01 -10.92,-7.51 -19.92,-7.51 -11.86,0 -20.58,3.4 -26.26,10.21 -5.63,6.81 -8.49,17.26 -8.49,31.38l0 70.16 -19.02 0 0 -81.74c0,-9.98 -2.15,-17.49 -6.42,-22.5 -4.26,-5.01 -10.96,-7.51 -20.07,-7.51 -11.9,0 -20.62,3.56 -26.18,10.72 -5.52,7.12 -8.29,18.86 -8.29,35.14l0 65.89 -19.02 0 0 -125.6 15.46 0 3.09 17.14 0.94 0c3.56,-6.1 8.65,-10.88 15.18,-14.32 6.53,-3.44 13.85,-5.16 21.95,-5.16 19.6,0 32.48,7.12 38.5,21.33l0.9 0c3.76,-6.57 9.19,-11.78 16.28,-15.61 7.12,-3.8 15.22,-5.71 24.3,-5.71 14.2,0 24.85,3.64 31.93,10.96 7.04,7.28 10.6,18.98 10.6,35.02l0 81.97 -19.06 0zm116.76 2.35c-8.18,0 -15.65,-1.53 -22.42,-4.54 -6.73,-3.01 -12.44,-7.67 -17.02,-13.93l-1.37 0c0.9,7.32 1.37,14.28 1.37,20.86l0 51.61 -19.02 0 0 -181.95 15.46 0 2.66 17.14 0.9 0c4.89,-6.89 10.6,-11.86 17.1,-14.91 6.5,-3.05 13.93,-4.58 22.34,-4.58 16.67,0 29.54,5.71 38.62,17.1 9.04,11.39 13.58,27.35 13.58,47.93 0,20.66 -4.62,36.7 -13.81,48.13 -9.23,11.43 -21.99,17.14 -38.38,17.14zm-2.74 -114.1c-12.83,0 -22.15,3.56 -27.86,10.64 -5.75,7.12 -8.69,18.43 -8.84,33.96l0 4.23c0,17.65 2.93,30.29 8.84,37.88 5.87,7.63 15.34,11.43 28.33,11.43 10.84,0 19.37,-4.38 25.51,-13.19 6.14,-8.8 9.23,-20.89 9.23,-36.35 0,-15.65 -3.09,-27.66 -9.23,-36.04 -6.14,-8.37 -14.83,-12.56 -25.98,-12.56zm106.04 -13.85l0 81.5c0,10.21 2.31,17.88 7,22.93 4.66,5.05 11.97,7.55 21.91,7.55 13.15,0 22.73,-3.6 28.84,-10.76 6.07,-7.2 9.12,-18.94 9.12,-35.22l0 -66.01 19.02 0 0 125.6 -15.69 0 -2.74 -16.79 -1.06 0c-3.87,6.18 -9.31,10.92 -16.24,14.2 -6.89,3.29 -14.79,4.93 -23.67,4.93 -15.3,0 -26.72,-3.64 -34.35,-10.88 -7.59,-7.28 -11.39,-18.9 -11.39,-34.86l0 -82.21 19.25 0zm207.26 91.36c0,11.7 -4.38,20.74 -13.07,27.08 -8.73,6.34 -20.93,9.51 -36.7,9.51 -16.63,0 -29.62,-2.62 -38.97,-7.9l0 -17.69c6.07,3.05 12.52,5.48 19.45,7.24 6.93,1.76 13.58,2.62 19.99,2.62 9.94,0 17.57,-1.6 22.93,-4.77 5.36,-3.17 8.02,-7.98 8.02,-14.48 0,-4.89 -2.11,-9.08 -6.38,-12.56 -4.23,-3.48 -12.48,-7.59 -24.81,-12.33 -11.7,-4.38 -19.99,-8.18 -24.92,-11.43 -4.93,-3.25 -8.61,-6.93 -11,-11.07 -2.43,-4.11 -3.6,-9.04 -3.6,-14.79 0,-10.25 4.15,-18.31 12.48,-24.26 8.33,-5.91 19.76,-8.88 34.28,-8.88 13.5,0 26.72,2.74 39.64,8.26l-6.77 15.5c-12.6,-5.2 -24.02,-7.79 -34.24,-7.79 -9.04,0 -15.85,1.41 -20.43,4.23 -4.58,2.86 -6.89,6.73 -6.89,11.7 0,3.36 0.86,6.22 2.58,8.61 1.72,2.35 4.5,4.62 8.33,6.77 3.8,2.11 11.15,5.24 21.99,9.27 14.91,5.44 24.96,10.92 30.21,16.39 5.24,5.52 7.86,12.44 7.86,20.78zm70.39 78.37c-7.2,0 -12.83,-1.02 -16.98,-3.09l0 -16.59c5.44,1.53 11.07,2.31 16.98,2.31 7.55,0 13.3,-2.31 17.26,-6.89 3.91,-4.58 5.91,-11.19 5.91,-19.84l0 -167.67 19.49 0 0 166.02c0,14.52 -3.68,25.79 -11.03,33.77 -7.32,7.98 -17.88,11.97 -31.62,11.97zm161.52 -44.14l-3.8 -17.88 -0.94 0c-6.26,7.87 -12.48,13.23 -18.7,16.04 -6.26,2.78 -14.01,4.19 -23.32,4.19 -12.48,0 -22.23,-3.21 -29.31,-9.63 -7.04,-6.46 -10.6,-15.57 -10.6,-27.47 0,-25.39 20.31,-38.7 60.84,-39.91l21.33 -0.7 0 -7.79c0,-9.82 -2.11,-17.1 -6.34,-21.79 -4.26,-4.7 -11.03,-7.04 -20.35,-7.04 -10.49,0 -22.3,3.21 -35.53,9.63l-5.83 -14.56c6.18,-3.36 12.95,-6.03 20.31,-7.94 7.39,-1.92 14.79,-2.86 22.18,-2.86 14.99,0 26.06,3.33 33.3,9.98 7.24,6.65 10.84,17.29 10.84,31.97l0 85.77 -14.09 0zm-43 -13.38c11.86,0 21.17,-3.25 27.9,-9.74 6.77,-6.5 10.17,-15.57 10.17,-27.27l0 -11.35 -19.06 0.82c-15.1,0.51 -26.02,2.86 -32.71,7.04 -6.69,4.15 -10.02,10.64 -10.02,19.41 0,6.89 2.07,12.13 6.26,15.69 4.15,3.6 9.98,5.4 17.45,5.4zm146.54 15.73c-18.19,0 -32.28,-5.6 -42.26,-16.79 -9.98,-11.23 -14.95,-27.08 -14.95,-47.54 0,-21.05 5.05,-37.29 15.18,-48.75 10.13,-11.46 24.53,-17.22 43.28,-17.22 6.03,0 12.05,0.67 18.12,1.96 6.03,1.29 10.76,2.82 14.2,4.62l-5.87 16.16c-4.19,-1.68 -8.76,-3.05 -13.73,-4.19 -4.97,-1.1 -9.35,-1.64 -13.19,-1.64 -25.51,0 -38.27,16.28 -38.27,48.83 0,15.42 3.09,27.27 9.31,35.53 6.26,8.26 15.46,12.36 27.7,12.36 10.45,0 21.21,-2.27 32.2,-6.77l0 16.9c-8.41,4.34 -18.98,6.53 -31.73,6.53zm169.97 -65.27c0,20.5 -5.16,36.51 -15.46,48.01 -10.33,11.5 -24.57,17.26 -42.77,17.26 -11.23,0 -21.21,-2.62 -29.93,-7.9 -8.69,-5.28 -15.42,-12.87 -20.15,-22.73 -4.77,-9.86 -7.12,-21.4 -7.12,-34.63 0,-20.5 5.13,-36.47 15.38,-47.89 10.21,-11.43 24.46,-17.14 42.61,-17.14 17.61,0 31.54,5.83 41.91,17.53 10.37,11.7 15.53,27.55 15.53,47.5zm-95.71 0c0,16.04 3.21,28.29 9.63,36.7 6.42,8.41 15.85,12.6 28.33,12.6 12.44,0 21.91,-4.19 28.37,-12.56 6.46,-8.37 9.67,-20.62 9.67,-36.74 0,-15.96 -3.21,-28.09 -9.67,-36.39 -6.46,-8.3 -16,-12.44 -28.6,-12.44 -12.48,0 -21.87,4.07 -28.21,12.25 -6.34,8.18 -9.51,20.39 -9.51,36.58zm187.54 -64.8c16.51,0 29.35,5.63 38.5,16.9 9.12,11.31 13.69,27.27 13.69,47.89 0,20.66 -4.62,36.7 -13.81,48.13 -9.23,11.43 -21.99,17.14 -38.38,17.14 -8.18,0 -15.65,-1.53 -22.42,-4.54 -6.73,-3.01 -12.44,-7.67 -17.02,-13.93l-1.37 0 -4.03 16.12 -13.62 0 0 -178.43 19.02 0 0 43.35c0,9.7 -0.31,18.43 -0.9,26.18l0.9 0c8.88,-12.56 22.03,-18.82 39.44,-18.82zm-2.74 15.96c-12.99,0 -22.34,3.72 -28.09,11.19 -5.75,7.43 -8.61,19.99 -8.61,37.64 0,17.65 2.93,30.29 8.84,37.88 5.87,7.63 15.34,11.43 28.33,11.43 11.7,0 20.43,-4.27 26.14,-12.8 5.75,-8.49 8.61,-20.74 8.61,-36.74 0,-16.36 -2.86,-28.52 -8.61,-36.55 -5.71,-8.02 -14.59,-12.05 -26.61,-12.05zm107.17 111.75l-19.02 0 0 -125.6 19.02 0 0 125.6zm-20.62 -159.72c0,-4.34 1.06,-7.51 3.21,-9.55 2.15,-2.03 4.81,-3.05 8.02,-3.05 3.05,0 5.71,1.02 7.9,3.09 2.23,2.07 3.33,5.24 3.33,9.51 0,4.3 -1.1,7.51 -3.33,9.59 -2.19,2.11 -4.85,3.17 -7.9,3.17 -3.21,0 -5.87,-1.06 -8.02,-3.17 -2.15,-2.07 -3.21,-5.28 -3.21,-9.59zm147.01 159.72l0 -81.27c0,-10.25 -2.31,-17.88 -7,-22.93 -4.66,-5.05 -11.97,-7.55 -21.91,-7.55 -13.15,0 -22.77,3.56 -28.88,10.64 -6.14,7.12 -9.2,18.86 -9.2,35.22l0 65.89 -19.02 0 0 -125.6 15.46 0 3.09 17.14 0.94 0c3.91,-6.18 9.35,-11 16.39,-14.4 7.04,-3.4 14.87,-5.09 23.52,-5.09 15.14,0 26.53,3.64 34.16,10.96 7.67,7.28 11.46,18.98 11.46,35.02l0 81.97 -19.02 0zm135.34 0l-3.8 -17.88 -0.94 0c-6.26,7.87 -12.48,13.23 -18.7,16.04 -6.26,2.78 -14.01,4.19 -23.32,4.19 -12.48,0 -22.23,-3.21 -29.31,-9.63 -7.04,-6.46 -10.6,-15.57 -10.6,-27.47 0,-25.39 20.31,-38.7 60.84,-39.91l21.33 -0.7 0 -7.79c0,-9.82 -2.11,-17.1 -6.34,-21.79 -4.26,-4.7 -11.03,-7.04 -20.35,-7.04 -10.49,0 -22.3,3.21 -35.53,9.63l-5.83 -14.56c6.18,-3.36 12.95,-6.03 20.31,-7.94 7.39,-1.92 14.79,-2.86 22.19,-2.86 14.99,0 26.06,3.33 33.3,9.98 7.24,6.65 10.84,17.29 10.84,31.97l0 85.77 -14.09 0zm-43 -13.38c11.86,0 21.17,-3.25 27.9,-9.74 6.77,-6.5 10.17,-15.57 10.17,-27.27l0 -11.35 -19.06 0.82c-15.1,0.51 -26.02,2.86 -32.71,7.04 -6.69,4.15 -10.02,10.64 -10.02,19.41 0,6.89 2.07,12.13 6.26,15.69 4.15,3.6 9.98,5.4 17.45,5.4z"/>
 </g>
</svg>
