<?xml version="1.0" encoding="UTF-8"?>
<!DOCTYPE svg PUBLIC "-//W3C//DTD SVG 1.1//EN" "http://www.w3.org/Graphics/SVG/1.1/DTD/svg11.dtd">
<!-- Creator: CorelDRAW 2018 (64-Bit) -->
<svg xmlns="http://www.w3.org/2000/svg" xml:space="preserve" width="4.01846in" height="5.38571in" version="1.1" style="shape-rendering:geometricPrecision; text-rendering:geometricPrecision; image-rendering:optimizeQuality; fill-rule:evenodd; clip-rule:evenodd"
viewBox="0 0 732.34 981.51"
 xmlns:xlink="http://www.w3.org/1999/xlink"
 xmlns:dc="http://purl.org/dc/elements/1.1/"
 xmlns:cc="http://creativecommons.org/ns#"
 xmlns:rdf="http://www.w3.org/1999/02/22-rdf-syntax-ns#"
 xmlns:sodipodi="http://sodipodi.sourceforge.net/DTD/sodipodi-0.dtd"
 xmlns:inkscape="http://www.inkscape.org/namespaces/inkscape"
 inkscape:version="0.47 r22583"
 sodipodi:docname="Logotipo IFET.svg">
 <defs>
  <style type="text/css">
   <![CDATA[
    .fil0 {fill:black}
   ]]>
  </style>
 </defs>
 <g id="Layer_x0020_1">
  <metadata id="CorelCorpID_0Corel-Layer"/>
  <g id="_2229624088864">
   <sodipodi:namedview id="base" pagecolor="#ffffff" bordercolor="#666666" borderopacity="1.0" inkscape:pageopacity="0.0" inkscape:pageshadow="2" inkscape:zoom="0.56919567" inkscape:cx="310.55696" inkscape:cy="499.90858" inkscape:document-units="px" inkscape:current-layer="layer1" showgrid="false" inkscape:window-width="1440" inkscape:window-height="844" inkscape:window-x="-4" inkscape:window-y="-4" inkscape:window-maximized="1" inkscape:snap-page="true"/>
   <g id="layer1" inkscape:label="Layer 1" inkscape:groupmode="layer">
    <path class="fil0" d="M295.69 5.7l142.01 0c25.78,0 46.69,23.9 46.69,53.36l0 128.67c-0,29.47 -20.91,53.36 -46.69,53.36l-142.01 0c-25.78,0 -46.69,-23.9 -46.69,-53.36l-0 -128.67c0,-29.47 20.91,-53.36 46.69,-53.36z"/>
    <path class="fil0" d="M295.69 252.51l142.01 0c25.78,-0 46.69,23.9 46.69,53.36l0 128.67c-0,29.47 -20.91,53.36 -46.69,53.36l-142.01 0c-25.78,0 -46.69,-23.9 -46.69,-53.36l-0 -128.67c0,-29.47 20.91,-53.36 46.69,-53.36z"/>
    <path class="fil0" d="M295.69 499.31l142.01 0c25.78,-0 46.69,23.9 46.69,53.36l0 128.67c-0,29.47 -20.91,53.36 -46.69,53.36l-142.01 0c-25.78,-0 -46.69,-23.9 -46.69,-53.36l-0 -128.67c0,-29.47 20.91,-53.36 46.69,-53.36z"/>
    <path class="fil0" d="M295.69 746.11l142.01 0c25.78,-0 46.69,23.9 46.69,53.36l0 128.67c-0,29.47 -20.91,53.36 -46.69,53.36l-142.01 0c-25.78,-0 -46.69,-23.9 -46.69,-53.36l-0 -128.67c0,-29.47 20.91,-53.36 46.69,-53.36z"/>
    <path class="fil0" d="M543.63 5.7l142.01 0c25.78,0 46.69,23.9 46.69,53.36l0 128.67c-0,29.47 -20.91,53.36 -46.69,53.36l-142.01 0c-25.78,0 -46.69,-23.9 -46.69,-53.36l0 -128.67c-0,-29.47 20.91,-53.36 46.69,-53.36z"/>
    <path class="fil0" d="M46.69 252.51l142.01 0c25.78,-0 46.69,23.9 46.69,53.36l-0 128.67c0,29.47 -20.91,53.36 -46.69,53.36l-142.01 0c-25.78,0 -46.69,-23.9 -46.69,-53.36l-0 -128.67c0,-29.47 20.91,-53.36 46.69,-53.36z"/>
    <path class="fil0" d="M46.69 499.31l142.01 0c25.78,-0 46.69,23.9 46.69,53.36l-0 128.67c0,29.47 -20.91,53.36 -46.69,53.36l-142.01 0c-25.78,-0 -46.69,-23.9 -46.69,-53.36l-0 -128.67c0,-29.47 20.91,-53.36 46.69,-53.36z"/>
    <path class="fil0" d="M46.69 746.11l142.01 0c25.78,-0 46.69,23.9 46.69,53.36l-0 128.67c0,29.47 -20.91,53.36 -46.69,53.36l-142.01 0c-25.78,-0 -46.69,-23.9 -46.69,-53.36l-0 -128.67c0,-29.47 20.91,-53.36 46.69,-53.36z"/>
    <path class="fil0" d="M543.63 495.97l142.01 0c25.78,-0 46.69,23.9 46.69,53.36l0 128.67c-0,29.47 -20.91,53.36 -46.69,53.36l-142.01 0c-25.78,-0 -46.69,-23.9 -46.69,-53.36l0 -128.67c-0,-29.47 20.91,-53.36 46.69,-53.36z"/>
    <path id="path3184" class="fil0" d="M227.76 115.06c0,63.55 -50.77,115.06 -113.4,115.06 -62.63,0 -113.4,-51.52 -113.4,-115.06 0,-63.55 50.77,-115.06 113.4,-115.06 62.63,0 113.4,51.52 113.4,115.06z" sodipodi:type="arc" sodipodi:cx="151.09039" sodipodi:cy="246.83954" sodipodi:rx="59.733414" sodipodi:ry="60.611847"/>
   </g>
  </g>
 </g>
</svg>
