<?xml version="1.0" encoding="UTF-8"?>
<!DOCTYPE svg PUBLIC "-//W3C//DTD SVG 1.0//EN" "http://www.w3.org/TR/2001/REC-SVG-20010904/DTD/svg10.dtd">
<!-- Creator: CorelDRAW 2018 (64-Bit) -->
<svg xmlns="http://www.w3.org/2000/svg" xml:space="preserve" width="2.01334in" height="0.203965in" version="1.0" style="shape-rendering:geometricPrecision; text-rendering:geometricPrecision; image-rendering:optimizeQuality; fill-rule:evenodd; clip-rule:evenodd"
viewBox="0 0 1081.8 109.59"
 xmlns:xlink="http://www.w3.org/1999/xlink">
 <defs>
  <style type="text/css">
   <![CDATA[
    .fil1 {fill:none}
    .fil0 {fill:white}
   ]]>
  </style>
 </defs>
 <g id="Layer_x0020_1">
  <metadata id="CorelCorpID_0Corel-Layer"/>
  <rect class="fil0" transform="matrix(3.48968E-15 -0.131762 0.0188198 4.9843E-16 76.2554 109.592)" width="759.41" height="759.41"/>
  <rect class="fil0" transform="matrix(2.82513E-15 -0.10667 0.0188198 4.9843E-16 152.505 90.5334)" width="759.41" height="759.41"/>
  <rect class="fil0" transform="matrix(3.48968E-15 -0.131762 0.0188198 4.9843E-16 228.755 109.592)" width="759.41" height="759.41"/>
  <rect class="fil0" transform="matrix(2.82513E-15 -0.10667 0.0188198 4.9843E-16 305.005 90.5334)" width="759.41" height="759.41"/>
  <rect class="fil0" transform="matrix(3.48968E-15 -0.131762 0.0188198 4.9843E-16 381.255 109.592)" width="759.41" height="759.41"/>
  <rect class="fil0" transform="matrix(2.82513E-15 -0.10667 0.0188198 4.9843E-16 457.509 90.5334)" width="759.41" height="759.41"/>
  <rect class="fil1" transform="matrix(1.74502E-15 -0.0658885 0.00941087 2.49243E-16 213.238 84.5787)" width="759.41" height="759.41"/>
  <rect class="fil0" transform="matrix(2.82513E-15 -0.10667 0.0188198 4.9843E-16 0.0051131 90.5334)" width="759.41" height="759.41"/>
  <rect class="fil0" transform="matrix(2.82513E-15 -0.10667 0.0188198 4.9843E-16 457.509 90.5334)" width="759.41" height="759.41"/>
  <rect class="fil0" transform="matrix(3.48968E-15 -0.131762 0.0188198 4.9843E-16 533.758 109.592)" width="759.41" height="759.41"/>
  <rect class="fil0" transform="matrix(3.48968E-15 -0.131762 0.0188198 4.9843E-16 686.26 109.592)" width="759.41" height="759.41"/>
  <rect class="fil0" transform="matrix(2.82513E-15 -0.10667 0.0188198 4.9843E-16 762.51 90.5334)" width="759.41" height="759.41"/>
  <rect class="fil0" transform="matrix(3.48968E-15 -0.131762 0.0188198 4.9843E-16 838.76 109.592)" width="759.41" height="759.41"/>
  <rect class="fil0" transform="matrix(2.82513E-15 -0.10667 0.0188198 4.9843E-16 915.009 90.5334)" width="759.41" height="759.41"/>
  <rect class="fil0" transform="matrix(3.48968E-15 -0.131762 0.0188198 4.9843E-16 991.259 109.592)" width="759.41" height="759.41"/>
  <rect class="fil1" transform="matrix(1.41271E-15 -0.0533409 0.00941087 2.49243E-16 785.176 75.0484)" width="759.41" height="759.41"/>
  <rect class="fil0" transform="matrix(2.82513E-15 -0.10667 0.0188198 4.9843E-16 610.01 90.5334)" width="759.41" height="759.41"/>
  <rect class="fil1" transform="matrix(3.48968E-15 -0.131762 0.0188198 4.9843E-16 1067.51 100.062)" width="759.41" height="759.41"/>
 </g>
</svg>
