<?xml version="1.0" encoding="UTF-8"?>
<!DOCTYPE svg PUBLIC "-//W3C//DTD SVG 1.1//EN" "http://www.w3.org/Graphics/SVG/1.1/DTD/svg11.dtd">
<!-- Creator: CorelDRAW 2018 (64-Bit) -->
<svg xmlns="http://www.w3.org/2000/svg" xml:space="preserve" width="0.816669in" height="0.640016in" version="1.1" style="shape-rendering:geometricPrecision; text-rendering:geometricPrecision; image-rendering:optimizeQuality; fill-rule:evenodd; clip-rule:evenodd"
viewBox="0 0 9.38 7.35"
 xmlns:xlink="http://www.w3.org/1999/xlink">
 <defs>
  <style type="text/css">
   <![CDATA[
    .str0 {stroke:white;stroke-width:0.15;stroke-miterlimit:22.9256}
    .fil0 {fill:none}
   ]]>
  </style>
 </defs>
 <g id="Layer_x0020_1">
  <metadata id="CorelCorpID_0Corel-Layer"/>
  <rect class="fil0" width="9.38" height="7.35"/>
  <polygon class="fil0 str0" points="5.51,6.27 5.51,5.44 3.83,5.44 3.83,6.27 "/>
  <path class="fil0 str0" d="M3.1 2.43l0 0c0,0.46 -0.38,0.84 -0.84,0.84l-0 0c-0.46,0 -0.84,-0.38 -0.84,-0.84l0 -0c0,-0.46 0.38,-0.84 0.84,-0.84l0 0c0.46,0 0.84,0.38 0.84,0.84z"/>
  <path class="fil0 str0" d="M6.24 2.43l0 0c0,0.46 0.38,0.84 0.84,0.84l0 0c0.46,0 0.84,-0.38 0.84,-0.84l0 -0c0,-0.46 -0.38,-0.84 -0.84,-0.84l-0 0c-0.46,0 -0.84,0.38 -0.84,0.84z"/>
  <polygon class="fil0 str0" points="3.83,3.16 4.67,3.16 5.51,3.16 5.09,2.43 4.67,1.7 4.25,2.43 "/>
 </g>
</svg>
