<?xml version="1.0" encoding="UTF-8"?>
<!DOCTYPE svg PUBLIC "-//W3C//DTD SVG 1.0//EN" "http://www.w3.org/TR/2001/REC-SVG-20010904/DTD/svg10.dtd">
<!-- Creator: CorelDRAW 2018 (64-Bit) -->
<svg xmlns="http://www.w3.org/2000/svg" xml:space="preserve" width="0.853331in" height="0.853331in" version="1.0" style="shape-rendering:geometricPrecision; text-rendering:geometricPrecision; image-rendering:optimizeQuality; fill-rule:evenodd; clip-rule:evenodd"
viewBox="0 0 181.44 181.44"
 xmlns:xlink="http://www.w3.org/1999/xlink">
 <defs>
  <style type="text/css">
   <![CDATA[
    .str1 {stroke:white;stroke-width:3.54;stroke-miterlimit:2.61313}
    .str0 {stroke:white;stroke-width:4.25;stroke-miterlimit:2.61313}
    .fil0 {fill:none}
    .fil1 {fill:#FEFEFE}
   ]]>
  </style>
 </defs>
 <g id="Layer_x0020_1">
  <metadata id="CorelCorpID_0Corel-Layer"/>
  <rect class="fil0" x="-0" y="-0" width="181.44" height="181.44"/>
  <path class="fil1" d="M45.36 60.24l75.13 0 0 75.84 -75.13 -0 0 -75.84zm4.25 4.25l67.33 0 0 67.33 -67.33 0 0 -67.33z"/>
  <path class="fil1" d="M60.95 45.36l75.13 0 0 75.84 -75.13 -0 0 -75.84zm4.25 4.25l67.33 0 0 67.33 -67.33 0 0 -67.33z"/>
  <path class="fil0 str0" d="M46.07 61.31l15.95 -14.88"/>
  <path class="fil0 str0" d="M116.94 64.5l15.59 -14.88"/>
  <path class="fil0 str1" d="M119.78 134.66l15.24 -14.53"/>
  <path class="fil0 str0" d="M49.61 131.83l15.59 -14.88"/>
 </g>
</svg>
