<?xml version="1.0" encoding="UTF-8"?>
<!DOCTYPE svg PUBLIC "-//W3C//DTD SVG 1.1//EN" "http://www.w3.org/Graphics/SVG/1.1/DTD/svg11.dtd">
<!-- Creator: CorelDRAW 2018 (64-Bit) -->
<svg xmlns="http://www.w3.org/2000/svg" xml:space="preserve" width="0.853331in" height="0.853331in" version="1.1" style="shape-rendering:geometricPrecision; text-rendering:geometricPrecision; image-rendering:optimizeQuality; fill-rule:evenodd; clip-rule:evenodd"
viewBox="0 0 315.68 315.68"
 xmlns:xlink="http://www.w3.org/1999/xlink">
 <defs>
  <style type="text/css">
   <![CDATA[
    .fil0 {fill:none}
    .fil1 {fill:white}
   ]]>
  </style>
 </defs>
 <g id="Layer_x0020_1">
  <metadata id="CorelCorpID_0Corel-Layer"/>
  <rect class="fil0" x="-0" y="-0" width="315.68" height="315.68"/>
  <path class="fil1" d="M55.49 188.67l0 -61.65 203.47 0 0 61.65 -203.47 0zm2.47 -2.47l0 -56.72 198.53 0 0 56.72 -198.53 0z"/>
  <rect class="fil1" transform="matrix(1.31165E-15 -0.0495252 0.00707372 1.87344E-16 113.448 152.908)" width="522.85" height="522.85"/>
  <rect class="fil1" transform="matrix(1.06187E-15 -0.0400938 0.00707372 1.87344E-16 133.18 147.976)" width="522.85" height="522.85"/>
  <rect class="fil1" transform="matrix(1.31165E-15 -0.0495252 0.00707372 1.87344E-16 152.912 152.908)" width="522.85" height="522.85"/>
  <rect class="fil1" transform="matrix(1.06187E-15 -0.0400938 0.00707372 1.87344E-16 172.644 147.976)" width="522.85" height="522.85"/>
  <rect class="fil1" transform="matrix(1.31165E-15 -0.0495252 0.00707372 1.87344E-16 192.376 152.908)" width="522.85" height="522.85"/>
  <rect class="fil1" transform="matrix(1.06187E-15 -0.0400938 0.00707372 1.87344E-16 212.109 147.976)" width="522.85" height="522.85"/>
  <rect class="fil1" transform="matrix(1.31165E-15 -0.0495252 0.00707372 1.87344E-16 73.9837 152.908)" width="522.85" height="522.85"/>
  <rect class="fil1" transform="matrix(1.06187E-15 -0.0400938 0.00707372 1.87344E-16 93.7159 147.976)" width="522.85" height="522.85"/>
  <rect class="fil1" transform="matrix(1.06187E-15 -0.0400938 0.00707372 1.87344E-16 212.109 147.976)" width="522.85" height="522.85"/>
  <rect class="fil1" transform="matrix(1.31165E-15 -0.0495252 0.00707372 1.87344E-16 231.841 152.908)" width="522.85" height="522.85"/>
 </g>
</svg>
