<?xml version="1.0" encoding="UTF-8"?>
<!DOCTYPE svg PUBLIC "-//W3C//DTD SVG 1.1//EN" "http://www.w3.org/Graphics/SVG/1.1/DTD/svg11.dtd">
<!-- Creator: CorelDRAW 2018 (64-Bit) -->
<svg xmlns="http://www.w3.org/2000/svg" xml:space="preserve" width="0.816669in" height="0.640016in" version="1.1" style="shape-rendering:geometricPrecision; text-rendering:geometricPrecision; image-rendering:optimizeQuality; fill-rule:evenodd; clip-rule:evenodd"
viewBox="0 0 9.61 7.53"
 xmlns:xlink="http://www.w3.org/1999/xlink">
 <defs>
  <style type="text/css">
   <![CDATA[
    .str0 {stroke:white;stroke-width:0.16;stroke-miterlimit:2.61313}
    .fil0 {fill:none}
    .fil1 {fill:#C51162;fill-rule:nonzero}
   ]]>
  </style>
 </defs>
 <g id="Layer_x0020_1">
  <metadata id="CorelCorpID_0Corel-Layer"/>
  <rect class="fil0" width="9.61" height="7.53"/>
  <path class="fil1 str0" d="M0.55 3.74c0.39,-0.41 0.64,-0.68 0.76,-0.8 -0.36,-0.36 -0.63,-0.64 -0.81,-0.87l0.38 -0.24c0.2,0.24 0.46,0.5 0.75,0.79 0.34,-0.33 0.64,-0.6 0.9,-0.8l0.28 0.38c-0.26,0.19 -0.54,0.44 -0.84,0.75 0.38,0.36 0.65,0.63 0.82,0.81l-0.33 0.33c-0.18,-0.2 -0.45,-0.47 -0.81,-0.82 -0.41,0.42 -0.67,0.69 -0.8,0.81l-0.29 -0.33z"/>
  <path class="fil1 str0" d="M6.03 5.14c-0.14,-0.01 -0.28,-0.02 -0.41,-0.02 -0.13,0 -0.29,0 -0.48,0.01l0 0.05c0,0.26 0.01,0.57 0.02,0.91l-0.55 -0.04c-0.01,-0.34 -0.02,-0.63 -0.02,-0.87l0 -0.02c-0.03,0.01 -0.31,0.02 -0.83,0.05l-0.02 -0.47c0.38,-0.01 0.67,-0.03 0.86,-0.05 0.01,-0.35 0.03,-0.67 0.06,-0.97l0.55 0.05c-0.03,0.3 -0.05,0.59 -0.05,0.89 0.18,-0.01 0.35,-0.01 0.5,-0.01 0.15,0 0.3,0.01 0.43,0.02l-0.05 0.47z"/>
  <path class="fil1 str0" d="M7.01 2.72l1.4 -0.03c0.39,0 0.7,0.01 0.95,0.04l-0.07 0.47c-0.21,-0.03 -0.49,-0.04 -0.84,-0.04l-1.44 0.03 0 -0.47zm1.38 0.73c0.03,0.1 0.04,0.21 0.04,0.32 0,0.11 -0.02,0.2 -0.05,0.25l-0.51 -0.04c0.02,-0.1 0.03,-0.2 0.03,-0.31 0,-0.11 -0,-0.2 -0,-0.26l0.49 0.04zm0 -1.56c0.03,0.1 0.04,0.21 0.04,0.32 0,0.11 -0.02,0.2 -0.05,0.26l-0.51 -0.04c0.02,-0.1 0.03,-0.2 0.03,-0.31 0,-0.11 -0,-0.2 -0,-0.26l0.49 0.04z"/>
 </g>
</svg>
