<?xml version="1.0" encoding="UTF-8"?>
<!DOCTYPE svg PUBLIC "-//W3C//DTD SVG 1.1//EN" "http://www.w3.org/Graphics/SVG/1.1/DTD/svg11.dtd">
<!-- Creator: CorelDRAW 2018 (64-Bit) -->
<svg xmlns="http://www.w3.org/2000/svg" xml:space="preserve" width="0.853331in" height="0.853331in" version="1.1" style="shape-rendering:geometricPrecision; text-rendering:geometricPrecision; image-rendering:optimizeQuality; fill-rule:evenodd; clip-rule:evenodd"
viewBox="0 0 1213.61 1213.61"
 xmlns:xlink="http://www.w3.org/1999/xlink">
 <defs>
  <style type="text/css">
   <![CDATA[
    .str0 {stroke:white;stroke-width:18.96;stroke-miterlimit:2.61313}
    .fil0 {fill:none}
    .fil1 {fill:none;fill-rule:nonzero}
   ]]>
  </style>
 </defs>
 <g id="Layer_x0020_1">
  <metadata id="CorelCorpID_0Corel-Layer"/>
  <rect class="fil0" x="-0" y="-0" width="1213.61" height="1213.61"/>
  <path class="fil1 str0" d="M225.72 613.13c33.73,-35.78 55.84,-59.14 66.32,-70.08 -30.99,-30.99 -54.58,-56.18 -70.76,-75.54l32.82 -21.2c17.78,20.51 39.65,43.53 65.63,69.06 29.4,-29.17 55.49,-52.41 78.28,-69.74l24.61 33.16c-22.56,16.86 -47.06,38.52 -73.5,64.96 32.82,31.45 56.74,54.92 71.79,70.42l-29.06 29.06c-15.72,-17.09 -39.2,-40.91 -70.42,-71.45 -35.32,36.46 -58.68,59.94 -70.07,70.43l-25.64 -29.06z"/>
  <path class="fil1 str0" d="M702.59 735.85c-12.08,-1.14 -23.99,-1.71 -35.73,-1.71 -11.74,0 -25.58,0.23 -41.53,0.68l0 4.45c0,23.02 0.57,49.34 1.71,78.97l-47.86 -3.07c-1.14,-29.63 -1.71,-54.93 -1.71,-75.89l0 -1.71c-2.73,0.46 -26.78,1.83 -72.13,4.1l-2.05 -41.02c33.27,-1.14 58.11,-2.62 74.52,-4.44 1.14,-30.54 2.85,-58.69 5.13,-84.44l47.86 4.1c-2.5,25.75 -4.1,51.73 -4.79,77.94 15.95,-0.46 30.54,-0.68 43.76,-0.68 13.21,0 25.75,0.57 37.6,1.71l-4.78 41.02z"/>
  <path class="fil1 str0" d="M788.74 524.59l121.69 -2.73c33.96,0 61.42,1.25 82.39,3.76l-6.15 41.03c-18.46,-2.51 -42.73,-3.76 -72.81,-3.76l-125.11 2.73 0 -41.02zm120.67 63.93c2.28,8.66 3.42,17.89 3.42,27.69 0,9.8 -1.48,17.21 -4.45,22.22l-44.44 -3.42c1.83,-8.66 2.74,-17.77 2.74,-27.35 0,-9.57 -0.12,-17.21 -0.35,-22.9l43.07 3.76zm0 -135.71c2.28,8.66 3.42,17.89 3.42,27.69 0,9.8 -1.48,17.21 -4.45,22.22l-44.44 -3.42c1.83,-8.66 2.74,-17.78 2.74,-27.35 0,-9.57 -0.12,-17.21 -0.35,-22.9l43.07 3.76z"/>
 </g>
</svg>
