<?xml version="1.0" encoding="UTF-8"?>
<!DOCTYPE svg PUBLIC "-//W3C//DTD SVG 1.1//EN" "http://www.w3.org/Graphics/SVG/1.1/DTD/svg11.dtd">
<!-- Creator: CorelDRAW 2018 (64-Bit) -->
<svg xmlns="http://www.w3.org/2000/svg" xml:space="preserve" width="0.853331in" height="0.853331in" version="1.1" style="shape-rendering:geometricPrecision; text-rendering:geometricPrecision; image-rendering:optimizeQuality; fill-rule:evenodd; clip-rule:evenodd"
viewBox="0 0 1213.61 1213.61"
 xmlns:xlink="http://www.w3.org/1999/xlink">
 <defs>
  <style type="text/css">
   <![CDATA[
    .str0 {stroke:white;stroke-width:18.96;stroke-miterlimit:2.61313}
    .fil0 {fill:none}
    .fil1 {fill:none;fill-rule:nonzero}
   ]]>
  </style>
 </defs>
 <g id="Layer_x0020_1">
  <metadata id="CorelCorpID_0Corel-Layer"/>
  <rect class="fil0" x="-0" y="-0" width="1213.61" height="1213.61"/>
  <path class="fil1 str0" d="M340.38 517.13c20.99,0 37.13,6.65 48.42,19.93 11.29,13.28 16.94,30.02 16.94,50.21 0,13.55 -7.44,33.14 -22.32,58.78 -14.88,25.64 -33.75,51.48 -56.59,77.52 5.85,-2.13 17.87,-3.19 36.06,-3.19 18.2,0 32.22,0.92 42.05,2.78l-4.78 45.04c-16.48,-1.33 -30.29,-1.99 -41.45,-1.99 -30.55,0 -64.56,6.38 -102.02,19.13l-17.14 -34.67c28.96,-24.18 55.93,-53.8 80.9,-88.87 24.97,-35.07 37.46,-59.98 37.46,-74.73 0,-14.75 -5.85,-22.13 -17.54,-22.13 -9.56,0 -19.46,5.52 -29.69,16.55 -10.23,11.02 -21.19,26.37 -32.88,46.03l-39.86 -27.9c34.54,-55.01 68.68,-82.5 102.43,-82.5zm320.03 -150.65c-5.31,43.57 -7.97,88.01 -7.97,133.32 0,45.3 1.86,86.02 5.58,122.15l-53.41 -5.18c-1.86,-31.09 -2.79,-61.44 -2.79,-91.07 0,-29.63 1.06,-57.72 3.19,-84.29l-22.32 29.89 -30.29 -25.5c16.74,-24.45 34.41,-54.47 53.01,-90.07l55 10.76zm168.18 263.83c15.94,-11.42 30.35,-19.73 43.24,-24.91 12.88,-5.18 27.43,-7.77 43.64,-7.77 16.2,0 30.29,5.45 42.24,16.34 11.96,10.9 17.93,26.11 17.93,45.64 0,19.53 -15.4,40.05 -46.23,61.57 26.57,13.81 39.86,32.48 39.86,56 0,23.51 -8.77,42.84 -26.31,57.99 -17.54,15.14 -35.07,22.72 -52.6,22.72 -17.54,0 -33.62,-2.79 -48.23,-8.37l-7.17 -43.84c9.3,2.92 20.72,4.39 34.27,4.39 13.55,0 25.64,-2.99 36.27,-8.97 10.63,-5.97 15.95,-13.02 15.95,-21.13 0,-8.1 -3.33,-14.88 -9.97,-20.33 -6.64,-5.44 -15.15,-8.16 -25.51,-8.16 -10.36,0 -21.52,1.86 -33.48,5.58l-13.54 -41.05c27.9,-9.29 49.35,-19.19 64.36,-29.69 15.02,-10.5 22.52,-19.99 22.52,-28.49 0,-9.57 -5.18,-14.35 -15.54,-14.35 -13.81,0 -32.54,8.24 -56.19,24.71l-25.5 -37.86z"/>
 </g>
</svg>
