<?xml version="1.0" encoding="UTF-8"?>
<!DOCTYPE svg PUBLIC "-//W3C//DTD SVG 1.1//EN" "http://www.w3.org/Graphics/SVG/1.1/DTD/svg11.dtd">
<!-- Creator: CorelDRAW 2018 (64-Bit) -->
<svg xmlns="http://www.w3.org/2000/svg" xml:space="preserve" width="0.816669in" height="0.640016in" version="1.1" style="shape-rendering:geometricPrecision; text-rendering:geometricPrecision; image-rendering:optimizeQuality; fill-rule:evenodd; clip-rule:evenodd"
viewBox="0 0 10.02 7.85"
 xmlns:xlink="http://www.w3.org/1999/xlink">
 <defs>
  <style type="text/css">
   <![CDATA[
    .str0 {stroke:white;stroke-width:0.16;stroke-miterlimit:2.61313}
    .fil0 {fill:none}
    .fil1 {fill:none;fill-rule:nonzero}
   ]]>
  </style>
 </defs>
 <g id="Layer_x0020_1">
  <metadata id="CorelCorpID_0Corel-Layer"/>
  <rect class="fil0" width="10.02" height="7.85"/>
  <path class="fil1 str0" d="M2.28 3.01c0.22,0 0.38,0.07 0.5,0.2 0.12,0.14 0.17,0.31 0.17,0.52 0,0.14 -0.08,0.34 -0.23,0.6 -0.15,0.26 -0.35,0.53 -0.58,0.8 0.06,-0.02 0.18,-0.03 0.37,-0.03 0.19,0 0.33,0.01 0.43,0.03l-0.05 0.46c-0.17,-0.01 -0.31,-0.02 -0.43,-0.02 -0.31,0 -0.66,0.07 -1.05,0.2l-0.18 -0.36c0.3,-0.25 0.57,-0.55 0.83,-0.91 0.26,-0.36 0.38,-0.62 0.38,-0.77 0,-0.15 -0.06,-0.23 -0.18,-0.23 -0.1,0 -0.2,0.06 -0.3,0.17 -0.1,0.11 -0.22,0.27 -0.34,0.47l-0.41 -0.29c0.35,-0.56 0.7,-0.85 1.05,-0.85zm3.28 -1.55c-0.05,0.45 -0.08,0.9 -0.08,1.37 0,0.46 0.02,0.88 0.06,1.25l-0.55 -0.05c-0.02,-0.32 -0.03,-0.63 -0.03,-0.93 0,-0.3 0.01,-0.59 0.03,-0.87l-0.23 0.31 -0.31 -0.26c0.17,-0.25 0.35,-0.56 0.54,-0.92l0.56 0.11zm1.73 2.71c0.16,-0.12 0.31,-0.2 0.44,-0.26 0.13,-0.05 0.28,-0.08 0.45,-0.08 0.17,0 0.31,0.06 0.43,0.17 0.12,0.11 0.18,0.27 0.18,0.47 0,0.2 -0.16,0.41 -0.47,0.63 0.27,0.14 0.41,0.33 0.41,0.57 0,0.24 -0.09,0.44 -0.27,0.6 -0.18,0.16 -0.36,0.23 -0.54,0.23 -0.18,0 -0.34,-0.03 -0.49,-0.09l-0.07 -0.45c0.1,0.03 0.21,0.05 0.35,0.05 0.14,0 0.26,-0.03 0.37,-0.09 0.11,-0.06 0.16,-0.13 0.16,-0.22 0,-0.08 -0.03,-0.15 -0.1,-0.21 -0.07,-0.06 -0.16,-0.08 -0.26,-0.08 -0.11,0 -0.22,0.02 -0.34,0.06l-0.14 -0.42c0.29,-0.1 0.51,-0.2 0.66,-0.3 0.15,-0.11 0.23,-0.21 0.23,-0.29 0,-0.1 -0.05,-0.15 -0.16,-0.15 -0.14,0 -0.33,0.08 -0.58,0.25l-0.26 -0.39z"/>
 </g>
</svg>
