<?xml version="1.0" encoding="UTF-8"?>
<!DOCTYPE svg PUBLIC "-//W3C//DTD SVG 1.0//EN" "http://www.w3.org/TR/2001/REC-SVG-20010904/DTD/svg10.dtd">
<!-- Creator: CorelDRAW 2018 (64-Bit) -->
<svg xmlns="http://www.w3.org/2000/svg" xml:space="preserve" width="0.853331in" height="0.853331in" version="1.0" style="shape-rendering:geometricPrecision; text-rendering:geometricPrecision; image-rendering:optimizeQuality; fill-rule:evenodd; clip-rule:evenodd"
viewBox="0 0 315.68 315.68"
 xmlns:xlink="http://www.w3.org/1999/xlink">
 <defs>
  <style type="text/css">
   <![CDATA[
    .fil0 {fill:none}
    .fil1 {fill:#FEFEFE}
    .fil2 {fill:white}
   ]]>
  </style>
 </defs>
 <g id="Layer_x0020_1">
  <metadata id="CorelCorpID_0Corel-Layer"/>
  <rect class="fil0" x="-0" y="-0" width="315.68" height="315.68"/>
  <path class="fil1" d="M139.34 78.92l36.99 0 0 157.84 -36.99 0 0 -157.84zm3.7 3.7l29.6 0 0 154.14 -29.6 0 0 -154.14zm-64.12 44.39l38.23 0 0 109.75 -38.23 0 0 -109.75zm119.61 30.83l38.23 0 0 78.92 -38.23 0 0 -78.92zm3.7 3.7l30.83 0 0 75.22 -30.83 0 0 -75.22zm-119.61 -30.83l30.83 0 0 106.05 -30.83 0 0 -106.05z"/>
  <rect class="fil2" x="198.53" y="233.06" width="38.23" height="3.7"/>
  <rect class="fil2" x="139.34" y="233.06" width="36.99" height="3.7"/>
  <rect class="fil2" x="78.92" y="233.06" width="38.23" height="3.7"/>
 </g>
</svg>
