<?xml version="1.0" encoding="UTF-8"?>
<!DOCTYPE svg PUBLIC "-//W3C//DTD SVG 1.0//EN" "http://www.w3.org/TR/2001/REC-SVG-20010904/DTD/svg10.dtd">
<!-- Creator: CorelDRAW 2018 (64-Bit) -->
<svg xmlns="http://www.w3.org/2000/svg" xml:space="preserve" width="0.853331in" height="0.853331in" version="1.0" style="shape-rendering:geometricPrecision; text-rendering:geometricPrecision; image-rendering:optimizeQuality; fill-rule:evenodd; clip-rule:evenodd"
viewBox="0 0 181.44 181.44"
 xmlns:xlink="http://www.w3.org/1999/xlink">
 <defs>
  <style type="text/css">
   <![CDATA[
    .fil0 {fill:none}
    .fil1 {fill:white}
    .fil2 {fill:white;fill-rule:nonzero}
   ]]>
  </style>
 </defs>
 <g id="Layer_x0020_1">
  <metadata id="CorelCorpID_0Corel-Layer"/>
  <rect class="fil0" x="-0" y="-0" width="181.44" height="181.44"/>
  <path class="fil1" d="M45.36 45.36l90.72 0 0 90.72 -90.72 0 0 -90.72zm3.54 3.54l83.63 0 0 83.63 -83.63 0 0 -83.63z"/>
  <path class="fil2" d="M93.38 65.1c3.64,0 6.5,1.17 8.58,3.51 2.08,2.34 3.12,5.28 3.12,8.82 0,1.65 -0.31,3.05 -0.92,4.18 -0.61,1.13 -1.1,1.98 -1.45,2.55 -0.35,0.57 -0.94,1.32 -1.77,2.27 -0.83,0.95 -1.45,1.63 -1.88,2.06 -1.61,1.84 -3.07,3.43 -4.39,4.75 -2.13,2.27 -3.19,4.3 -3.19,6.09 0,0.66 0.12,1.39 0.35,2.2l-6.02 -0.71c-1.51,-1.04 -2.27,-2.28 -2.27,-3.72 0,-1.44 0.47,-2.91 1.42,-4.39 0.94,-1.49 2.03,-2.93 3.26,-4.32 1.23,-1.39 2.3,-2.6 3.23,-3.61 0.92,-1.02 1.61,-1.78 2.06,-2.3 0.45,-0.52 0.96,-1.16 1.52,-1.91 1.04,-1.46 1.56,-2.68 1.56,-3.65 0,-0.97 -0.28,-1.76 -0.85,-2.37 -0.57,-0.61 -1.35,-0.92 -2.34,-0.92 -2.22,0 -5.72,2.34 -10.49,7.02l-6.52 -5.67c6.19,-6.57 11.86,-9.85 17.01,-9.85zm-1.06 40.11c0.52,0.95 0.78,2.6 0.78,4.96 0,2.36 -0.38,4.42 -1.13,6.17l-8.43 -1.63c0.47,-1.75 0.71,-3.58 0.71,-5.49 0,-1.91 -0.05,-3.53 -0.14,-4.85l8.22 0.85z"/>
 </g>
</svg>
